<ttFont>
    <TTGlyph name="A" xMin="-5" yMin="0" xMax="673" yMax="690">
      <contour>
        <pt x="440" y="164" on="1"/>
        <pt x="228" y="164" on="1"/>
        <pt x="187" y="0" on="1"/>
        <pt x="-5" y="0" on="1"/>
        <pt x="184" y="641" on="1"/>
        <pt x="189" y="663" on="0"/>
        <pt x="224" y="690" on="0"/>
        <pt x="247" y="690" on="1"/>
        <pt x="421" y="690" on="1"/>
        <pt x="444" y="690" on="0"/>
        <pt x="479" y="663" on="0"/>
        <pt x="485" y="641" on="1"/>
        <pt x="673" y="0" on="1"/>
        <pt x="481" y="0" on="1"/>
      </contour>
      <contour>
        <pt x="405" y="300" on="1"/>
        <pt x="361" y="477" on="1"/>
        <pt x="350" y="529" on="0"/>
        <pt x="348" y="549" on="1"/>
        <pt x="321" y="549" on="1"/>
        <pt x="314" y="511" on="0"/>
        <pt x="307" y="477" on="1"/>
        <pt x="263" y="300" on="1"/>
      </contour>
    </TTGlyph>
    <TTGlyph name="AE" xMin="-15" yMin="-3" xMax="910" yMax="692">
      <contour>
        <pt x="901" y="141" on="1"/>
        <pt x="910" y="8" on="1"/>
        <pt x="808" y="-3" on="0"/>
        <pt x="580" y="-3" on="1"/>
        <pt x="516" y="-3" on="0"/>
        <pt x="441" y="79" on="0"/>
        <pt x="441" y="145" on="1"/>
        <pt x="441" y="174" on="1"/>
        <pt x="256" y="174" on="1"/>
        <pt x="177" y="0" on="1"/>
        <pt x="-15" y="0" on="1"/>
        <pt x="248" y="545" on="1"/>
        <pt x="274" y="601" on="0"/>
        <pt x="342" y="661" on="0"/>
        <pt x="468" y="692" on="0"/>
        <pt x="573" y="692" on="1"/>
        <pt x="783" y="692" on="0"/>
        <pt x="910" y="682" on="1"/>
        <pt x="901" y="549" on="1"/>
        <pt x="661" y="549" on="1"/>
        <pt x="641" y="549" on="0"/>
        <pt x="616" y="524" on="0"/>
        <pt x="616" y="505" on="1"/>
        <pt x="616" y="417" on="1"/>
        <pt x="866" y="417" on="1"/>
        <pt x="866" y="295" on="1"/>
        <pt x="616" y="295" on="1"/>
        <pt x="616" y="184" on="1"/>
        <pt x="616" y="141" on="0"/>
        <pt x="661" y="141" on="1"/>
      </contour>
      <contour>
        <pt x="441" y="307" on="1"/>
        <pt x="441" y="512" on="1"/>
        <pt x="441" y="547" on="0"/>
        <pt x="460" y="576" on="1"/>
        <pt x="447" y="576" on="1"/>
        <pt x="437" y="565" on="0"/>
        <pt x="416" y="528" on="1"/>
        <pt x="316" y="307" on="1"/>
      </contour>
    </TTGlyph>
    <TTGlyph name="Aacute" xMin="-5" yMin="0" xMax="673" yMax="946">
      <contour>
        <pt x="292" y="721" on="1"/>
        <pt x="242" y="797" on="1"/>
        <pt x="460" y="946" on="1"/>
        <pt x="534" y="827" on="1"/>
      </contour>
      <contour>
        <pt x="440" y="164" on="1"/>
        <pt x="228" y="164" on="1"/>
        <pt x="187" y="0" on="1"/>
        <pt x="-5" y="0" on="1"/>
        <pt x="184" y="641" on="1"/>
        <pt x="189" y="663" on="0"/>
        <pt x="224" y="690" on="0"/>
        <pt x="247" y="690" on="1"/>
        <pt x="421" y="690" on="1"/>
        <pt x="444" y="690" on="0"/>
        <pt x="479" y="663" on="0"/>
        <pt x="485" y="641" on="1"/>
        <pt x="673" y="0" on="1"/>
        <pt x="481" y="0" on="1"/>
      </contour>
      <contour>
        <pt x="405" y="300" on="1"/>
        <pt x="361" y="477" on="1"/>
        <pt x="350" y="529" on="0"/>
        <pt x="348" y="549" on="1"/>
        <pt x="321" y="549" on="1"/>
        <pt x="314" y="511" on="0"/>
        <pt x="307" y="477" on="1"/>
        <pt x="263" y="300" on="1"/>
      </contour>
    </TTGlyph>
    <TTGlyph name="Abreve" xMin="-5" yMin="0" xMax="673" yMax="913">
      <contour>
        <pt x="422" y="913" on="1"/>
        <pt x="507" y="901" on="1"/>
        <pt x="517" y="834" on="0"/>
        <pt x="421" y="738" on="0"/>
        <pt x="249" y="738" on="0"/>
        <pt x="152" y="834" on="0"/>
        <pt x="163" y="901" on="1"/>
        <pt x="248" y="913" on="1"/>
        <pt x="248" y="881" on="0"/>
        <pt x="289" y="851" on="0"/>
        <pt x="381" y="851" on="0"/>
        <pt x="422" y="881" on="0"/>
      </contour>
      <contour>
        <pt x="440" y="164" on="1"/>
        <pt x="228" y="164" on="1"/>
        <pt x="187" y="0" on="1"/>
        <pt x="-5" y="0" on="1"/>
        <pt x="184" y="641" on="1"/>
        <pt x="189" y="663" on="0"/>
        <pt x="224" y="690" on="0"/>
        <pt x="247" y="690" on="1"/>
        <pt x="421" y="690" on="1"/>
        <pt x="444" y="690" on="0"/>
        <pt x="479" y="663" on="0"/>
        <pt x="485" y="641" on="1"/>
        <pt x="673" y="0" on="1"/>
        <pt x="481" y="0" on="1"/>
      </contour>
      <contour>
        <pt x="405" y="300" on="1"/>
        <pt x="361" y="477" on="1"/>
        <pt x="350" y="529" on="0"/>
        <pt x="348" y="549" on="1"/>
        <pt x="321" y="549" on="1"/>
        <pt x="314" y="511" on="0"/>
        <pt x="307" y="477" on="1"/>
        <pt x="263" y="300" on="1"/>
      </contour>
    </TTGlyph>
    <TTGlyph name="Acircumflex" xMin="-5" yMin="0" xMax="673" yMax="915">
      <contour>
        <pt x="179" y="714" on="1"/>
        <pt x="133" y="783" on="1"/>
        <pt x="270" y="915" on="1"/>
        <pt x="402" y="915" on="1"/>
        <pt x="536" y="777" on="1"/>
        <pt x="491" y="714" on="1"/>
        <pt x="340" y="808" on="1"/>
        <pt x="332" y="808" on="1"/>
      </contour>
      <contour>
        <pt x="440" y="164" on="1"/>
        <pt x="228" y="164" on="1"/>
        <pt x="187" y="0" on="1"/>
        <pt x="-5" y="0" on="1"/>
        <pt x="184" y="641" on="1"/>
        <pt x="189" y="663" on="0"/>
        <pt x="224" y="690" on="0"/>
        <pt x="247" y="690" on="1"/>
        <pt x="421" y="690" on="1"/>
        <pt x="444" y="690" on="0"/>
        <pt x="479" y="663" on="0"/>
        <pt x="485" y="641" on="1"/>
        <pt x="673" y="0" on="1"/>
        <pt x="481" y="0" on="1"/>
      </contour>
      <contour>
        <pt x="405" y="300" on="1"/>
        <pt x="361" y="477" on="1"/>
        <pt x="350" y="529" on="0"/>
        <pt x="348" y="549" on="1"/>
        <pt x="321" y="549" on="1"/>
        <pt x="314" y="511" on="0"/>
        <pt x="307" y="477" on="1"/>
        <pt x="263" y="300" on="1"/>
      </contour>
    </TTGlyph>
    <TTGlyph name="Adieresis" xMin="-5" yMin="0" xMax="673" yMax="896">
      <contour>
        <pt x="271" y="763" on="1"/>
        <pt x="211" y="763" on="1"/>
        <pt x="175" y="763" on="0"/>
        <pt x="175" y="799" on="1"/>
        <pt x="175" y="860" on="1"/>
        <pt x="175" y="896" on="0"/>
        <pt x="211" y="896" on="1"/>
        <pt x="271" y="896" on="1"/>
        <pt x="307" y="896" on="0"/>
        <pt x="307" y="860" on="1"/>
        <pt x="307" y="799" on="1"/>
        <pt x="307" y="763" on="0"/>
      </contour>
      <contour>
        <pt x="456" y="763" on="1"/>
        <pt x="397" y="763" on="1"/>
        <pt x="361" y="763" on="0"/>
        <pt x="361" y="799" on="1"/>
        <pt x="361" y="860" on="1"/>
        <pt x="361" y="896" on="0"/>
        <pt x="397" y="896" on="1"/>
        <pt x="456" y="896" on="1"/>
        <pt x="493" y="896" on="0"/>
        <pt x="493" y="860" on="1"/>
        <pt x="493" y="799" on="1"/>
        <pt x="493" y="763" on="0"/>
      </contour>
      <contour>
        <pt x="440" y="164" on="1"/>
        <pt x="228" y="164" on="1"/>
        <pt x="187" y="0" on="1"/>
        <pt x="-5" y="0" on="1"/>
        <pt x="184" y="641" on="1"/>
        <pt x="189" y="663" on="0"/>
        <pt x="224" y="690" on="0"/>
        <pt x="247" y="690" on="1"/>
        <pt x="421" y="690" on="1"/>
        <pt x="444" y="690" on="0"/>
        <pt x="479" y="663" on="0"/>
        <pt x="485" y="641" on="1"/>
        <pt x="673" y="0" on="1"/>
        <pt x="481" y="0" on="1"/>
      </contour>
      <contour>
        <pt x="405" y="300" on="1"/>
        <pt x="361" y="477" on="1"/>
        <pt x="350" y="529" on="0"/>
        <pt x="348" y="549" on="1"/>
        <pt x="321" y="549" on="1"/>
        <pt x="314" y="511" on="0"/>
        <pt x="307" y="477" on="1"/>
        <pt x="263" y="300" on="1"/>
      </contour>
    </TTGlyph>
    <TTGlyph name="Agrave" xMin="-5" yMin="0" xMax="673" yMax="946">
      <contour>
        <pt x="372" y="721" on="1"/>
        <pt x="130" y="827" on="1"/>
        <pt x="204" y="946" on="1"/>
        <pt x="422" y="797" on="1"/>
      </contour>
      <contour>
        <pt x="440" y="164" on="1"/>
        <pt x="228" y="164" on="1"/>
        <pt x="187" y="0" on="1"/>
        <pt x="-5" y="0" on="1"/>
        <pt x="184" y="641" on="1"/>
        <pt x="189" y="663" on="0"/>
        <pt x="224" y="690" on="0"/>
        <pt x="247" y="690" on="1"/>
        <pt x="421" y="690" on="1"/>
        <pt x="444" y="690" on="0"/>
        <pt x="479" y="663" on="0"/>
        <pt x="485" y="641" on="1"/>
        <pt x="673" y="0" on="1"/>
        <pt x="481" y="0" on="1"/>
      </contour>
      <contour>
        <pt x="405" y="300" on="1"/>
        <pt x="361" y="477" on="1"/>
        <pt x="350" y="529" on="0"/>
        <pt x="348" y="549" on="1"/>
        <pt x="321" y="549" on="1"/>
        <pt x="314" y="511" on="0"/>
        <pt x="307" y="477" on="1"/>
        <pt x="263" y="300" on="1"/>
      </contour>
    </TTGlyph>
    <TTGlyph name="Amacron" xMin="-5" yMin="0" xMax="673" yMax="885">
      <contour>
        <pt x="491" y="774" on="1"/>
        <pt x="181" y="774" on="1"/>
        <pt x="181" y="885" on="1"/>
        <pt x="491" y="885" on="1"/>
      </contour>
      <contour>
        <pt x="440" y="164" on="1"/>
        <pt x="228" y="164" on="1"/>
        <pt x="187" y="0" on="1"/>
        <pt x="-5" y="0" on="1"/>
        <pt x="184" y="641" on="1"/>
        <pt x="189" y="663" on="0"/>
        <pt x="224" y="690" on="0"/>
        <pt x="247" y="690" on="1"/>
        <pt x="421" y="690" on="1"/>
        <pt x="444" y="690" on="0"/>
        <pt x="479" y="663" on="0"/>
        <pt x="485" y="641" on="1"/>
        <pt x="673" y="0" on="1"/>
        <pt x="481" y="0" on="1"/>
      </contour>
      <contour>
        <pt x="405" y="300" on="1"/>
        <pt x="361" y="477" on="1"/>
        <pt x="350" y="529" on="0"/>
        <pt x="348" y="549" on="1"/>
        <pt x="321" y="549" on="1"/>
        <pt x="314" y="511" on="0"/>
        <pt x="307" y="477" on="1"/>
        <pt x="263" y="300" on="1"/>
      </contour>
    </TTGlyph>
    <TTGlyph name="Aogonek" xMin="-5" yMin="-213" xMax="687" yMax="690">
      <contour>
        <pt x="674" y="-128" on="1"/>
        <pt x="687" y="-192" on="1"/>
        <pt x="609" y="-221" on="0"/>
        <pt x="519" y="-204" on="0"/>
        <pt x="486" y="-146" on="0"/>
        <pt x="499" y="-108" on="1"/>
        <pt x="517" y="-52" on="0"/>
        <pt x="599" y="0" on="1"/>
        <pt x="481" y="0" on="1"/>
        <pt x="440" y="164" on="1"/>
        <pt x="228" y="164" on="1"/>
        <pt x="187" y="0" on="1"/>
        <pt x="-5" y="0" on="1"/>
        <pt x="184" y="641" on="1"/>
        <pt x="189" y="663" on="0"/>
        <pt x="224" y="690" on="0"/>
        <pt x="247" y="690" on="1"/>
        <pt x="421" y="690" on="1"/>
        <pt x="444" y="690" on="0"/>
        <pt x="479" y="663" on="0"/>
        <pt x="485" y="641" on="1"/>
        <pt x="673" y="0" on="1"/>
        <pt x="634" y="-62" on="0"/>
        <pt x="620" y="-93" on="1"/>
        <pt x="607" y="-120" on="0"/>
        <pt x="642" y="-137" on="0"/>
      </contour>
      <contour>
        <pt x="405" y="300" on="1"/>
        <pt x="361" y="477" on="1"/>
        <pt x="350" y="529" on="0"/>
        <pt x="348" y="549" on="1"/>
        <pt x="321" y="549" on="1"/>
        <pt x="314" y="511" on="0"/>
        <pt x="307" y="477" on="1"/>
        <pt x="263" y="300" on="1"/>
      </contour>
    </TTGlyph>
    <TTGlyph name="Aring" xMin="-5" yMin="0" xMax="673" yMax="954">
      <contour>
        <pt x="386" y="713" on="0"/>
        <pt x="284" y="713" on="0"/>
        <pt x="211" y="783" on="0"/>
        <pt x="211" y="883" on="0"/>
        <pt x="284" y="954" on="0"/>
        <pt x="386" y="954" on="0"/>
        <pt x="459" y="883" on="0"/>
        <pt x="459" y="783" on="0"/>
      </contour>
      <contour>
        <pt x="335" y="881" on="1"/>
        <pt x="316" y="881" on="0"/>
        <pt x="289" y="853" on="0"/>
        <pt x="289" y="813" on="0"/>
        <pt x="316" y="786" on="0"/>
        <pt x="335" y="786" on="1"/>
        <pt x="355" y="786" on="0"/>
        <pt x="382" y="813" on="0"/>
        <pt x="382" y="853" on="0"/>
        <pt x="355" y="881" on="0"/>
      </contour>
      <contour>
        <pt x="440" y="164" on="1"/>
        <pt x="228" y="164" on="1"/>
        <pt x="187" y="0" on="1"/>
        <pt x="-5" y="0" on="1"/>
        <pt x="184" y="641" on="1"/>
        <pt x="189" y="663" on="0"/>
        <pt x="224" y="690" on="0"/>
        <pt x="247" y="690" on="1"/>
        <pt x="421" y="690" on="1"/>
        <pt x="444" y="690" on="0"/>
        <pt x="479" y="663" on="0"/>
        <pt x="485" y="641" on="1"/>
        <pt x="673" y="0" on="1"/>
        <pt x="481" y="0" on="1"/>
      </contour>
      <contour>
        <pt x="405" y="300" on="1"/>
        <pt x="361" y="477" on="1"/>
        <pt x="350" y="529" on="0"/>
        <pt x="348" y="549" on="1"/>
        <pt x="321" y="549" on="1"/>
        <pt x="314" y="511" on="0"/>
        <pt x="307" y="477" on="1"/>
        <pt x="263" y="300" on="1"/>
      </contour>
    </TTGlyph>
    <TTGlyph name="Atilde" xMin="-5" yMin="0" xMax="673" yMax="910">
      <contour>
        <pt x="228" y="754" on="1"/>
        <pt x="152" y="754" on="1"/>
        <pt x="139" y="831" on="0"/>
        <pt x="192" y="913" on="0"/>
        <pt x="235" y="910" on="1"/>
        <pt x="273" y="907" on="0"/>
        <pt x="381" y="869" on="0"/>
        <pt x="400" y="865" on="1"/>
        <pt x="422" y="861" on="0"/>
        <pt x="433" y="878" on="0"/>
        <pt x="433" y="905" on="1"/>
        <pt x="510" y="905" on="1"/>
        <pt x="523" y="830" on="0"/>
        <pt x="473" y="746" on="0"/>
        <pt x="426" y="749" on="1"/>
        <pt x="387" y="752" on="0"/>
        <pt x="276" y="792" on="0"/>
        <pt x="261" y="795" on="1"/>
        <pt x="239" y="798" on="0"/>
        <pt x="228" y="782" on="0"/>
      </contour>
      <contour>
        <pt x="440" y="164" on="1"/>
        <pt x="228" y="164" on="1"/>
        <pt x="187" y="0" on="1"/>
        <pt x="-5" y="0" on="1"/>
        <pt x="184" y="641" on="1"/>
        <pt x="189" y="663" on="0"/>
        <pt x="224" y="690" on="0"/>
        <pt x="247" y="690" on="1"/>
        <pt x="421" y="690" on="1"/>
        <pt x="444" y="690" on="0"/>
        <pt x="479" y="663" on="0"/>
        <pt x="485" y="641" on="1"/>
        <pt x="673" y="0" on="1"/>
        <pt x="481" y="0" on="1"/>
      </contour>
      <contour>
        <pt x="405" y="300" on="1"/>
        <pt x="361" y="477" on="1"/>
        <pt x="350" y="529" on="0"/>
        <pt x="348" y="549" on="1"/>
        <pt x="321" y="549" on="1"/>
        <pt x="314" y="511" on="0"/>
        <pt x="307" y="477" on="1"/>
        <pt x="263" y="300" on="1"/>
      </contour>
    </TTGlyph>
    <TTGlyph name="B" xMin="60" yMin="-8" xMax="616" yMax="698">
      <contour>
        <pt x="470" y="361" on="1"/>
        <pt x="470" y="355" on="1"/>
        <pt x="548" y="348" on="0"/>
        <pt x="616" y="258" on="0"/>
        <pt x="616" y="172" on="1"/>
        <pt x="616" y="69" on="0"/>
        <pt x="504" y="-8" on="0"/>
        <pt x="373" y="-8" on="1"/>
        <pt x="166" y="-8" on="0"/>
        <pt x="60" y="0" on="1"/>
        <pt x="60" y="690" on="1"/>
        <pt x="156" y="698" on="0"/>
        <pt x="341" y="698" on="1"/>
        <pt x="483" y="698" on="0"/>
        <pt x="593" y="623" on="0"/>
        <pt x="593" y="518" on="1"/>
        <pt x="593" y="443" on="0"/>
        <pt x="535" y="367" on="0"/>
      </contour>
      <contour>
        <pt x="244" y="415" on="1"/>
        <pt x="336" y="415" on="1"/>
        <pt x="382" y="415" on="0"/>
        <pt x="414" y="446" on="0"/>
        <pt x="414" y="492" on="1"/>
        <pt x="414" y="537" on="0"/>
        <pt x="380" y="566" on="0"/>
        <pt x="331" y="566" on="1"/>
        <pt x="244" y="566" on="1"/>
      </contour>
      <contour>
        <pt x="244" y="125" on="1"/>
        <pt x="340" y="124" on="1"/>
        <pt x="393" y="124" on="0"/>
        <pt x="428" y="158" on="0"/>
        <pt x="428" y="209" on="1"/>
        <pt x="428" y="264" on="0"/>
        <pt x="392" y="300" on="0"/>
        <pt x="338" y="300" on="1"/>
        <pt x="244" y="300" on="1"/>
      </contour>
    </TTGlyph>
    <TTGlyph name="C" xMin="39" yMin="-12" xMax="574" yMax="702">
      <contour>
        <pt x="559" y="156" on="1"/>
        <pt x="574" y="19" on="1"/>
        <pt x="484" y="-12" on="0"/>
        <pt x="341" y="-12" on="1"/>
        <pt x="175" y="-12" on="0"/>
        <pt x="39" y="148" on="0"/>
        <pt x="39" y="542" on="0"/>
        <pt x="175" y="702" on="0"/>
        <pt x="341" y="702" on="1"/>
        <pt x="467" y="702" on="0"/>
        <pt x="559" y="677" on="1"/>
        <pt x="545" y="539" on="1"/>
        <pt x="443" y="542" on="0"/>
        <pt x="341" y="542" on="1"/>
        <pt x="279" y="542" on="0"/>
        <pt x="236" y="461" on="0"/>
        <pt x="236" y="229" on="0"/>
        <pt x="279" y="148" on="0"/>
        <pt x="341" y="148" on="1"/>
        <pt x="486" y="148" on="0"/>
      </contour>
    </TTGlyph>
    <TTGlyph name="Cacute" xMin="39" yMin="-12" xMax="574" yMax="946">
      <contour>
        <pt x="536" y="827" on="1"/>
        <pt x="295" y="721" on="1"/>
        <pt x="244" y="797" on="1"/>
        <pt x="462" y="946" on="1"/>
      </contour>
      <contour>
        <pt x="559" y="156" on="1"/>
        <pt x="574" y="19" on="1"/>
        <pt x="484" y="-12" on="0"/>
        <pt x="341" y="-12" on="1"/>
        <pt x="175" y="-12" on="0"/>
        <pt x="39" y="148" on="0"/>
        <pt x="39" y="542" on="0"/>
        <pt x="175" y="702" on="0"/>
        <pt x="341" y="702" on="1"/>
        <pt x="467" y="702" on="0"/>
        <pt x="559" y="677" on="1"/>
        <pt x="545" y="539" on="1"/>
        <pt x="443" y="542" on="0"/>
        <pt x="341" y="542" on="1"/>
        <pt x="279" y="542" on="0"/>
        <pt x="236" y="461" on="0"/>
        <pt x="236" y="229" on="0"/>
        <pt x="279" y="148" on="0"/>
        <pt x="341" y="148" on="1"/>
        <pt x="486" y="148" on="0"/>
      </contour>
    </TTGlyph>
    <TTGlyph name="Ccaron" xMin="39" yMin="-12" xMax="574" yMax="937">
      <contour>
        <pt x="532" y="868" on="1"/>
        <pt x="374" y="737" on="1"/>
        <pt x="301" y="737" on="1"/>
        <pt x="143" y="868" on="1"/>
        <pt x="188" y="937" on="1"/>
        <pt x="334" y="859" on="1"/>
        <pt x="342" y="859" on="1"/>
        <pt x="487" y="937" on="1"/>
      </contour>
      <contour>
        <pt x="559" y="156" on="1"/>
        <pt x="574" y="19" on="1"/>
        <pt x="484" y="-12" on="0"/>
        <pt x="341" y="-12" on="1"/>
        <pt x="175" y="-12" on="0"/>
        <pt x="39" y="148" on="0"/>
        <pt x="39" y="542" on="0"/>
        <pt x="175" y="702" on="0"/>
        <pt x="341" y="702" on="1"/>
        <pt x="467" y="702" on="0"/>
        <pt x="559" y="677" on="1"/>
        <pt x="545" y="539" on="1"/>
        <pt x="443" y="542" on="0"/>
        <pt x="341" y="542" on="1"/>
        <pt x="279" y="542" on="0"/>
        <pt x="236" y="461" on="0"/>
        <pt x="236" y="229" on="0"/>
        <pt x="279" y="148" on="0"/>
        <pt x="341" y="148" on="1"/>
        <pt x="486" y="148" on="0"/>
      </contour>
    </TTGlyph>
    <TTGlyph name="Ccedilla" xMin="39" yMin="-268" xMax="574" yMax="702">
      <contour>
        <pt x="559" y="156" on="1"/>
        <pt x="574" y="19" on="1"/>
        <pt x="484" y="-12" on="0"/>
        <pt x="341" y="-12" on="1"/>
        <pt x="175" y="-12" on="0"/>
        <pt x="39" y="148" on="0"/>
        <pt x="39" y="542" on="0"/>
        <pt x="175" y="702" on="0"/>
        <pt x="341" y="702" on="1"/>
        <pt x="467" y="702" on="0"/>
        <pt x="559" y="677" on="1"/>
        <pt x="545" y="539" on="1"/>
        <pt x="443" y="542" on="0"/>
        <pt x="341" y="542" on="1"/>
        <pt x="279" y="542" on="0"/>
        <pt x="236" y="461" on="0"/>
        <pt x="236" y="229" on="0"/>
        <pt x="279" y="148" on="0"/>
        <pt x="341" y="148" on="1"/>
        <pt x="486" y="148" on="0"/>
      </contour>
      <contour>
        <pt x="243" y="-128" on="1"/>
        <pt x="260" y="-62" on="1"/>
        <pt x="346" y="-49" on="0"/>
        <pt x="424" y="-73" on="0"/>
        <pt x="422" y="-127" on="1"/>
        <pt x="418" y="-206" on="0"/>
        <pt x="295" y="-280" on="0"/>
        <pt x="203" y="-268" on="1"/>
        <pt x="224" y="-196" on="1"/>
        <pt x="306" y="-198" on="0"/>
        <pt x="310" y="-142" on="1"/>
        <pt x="311" y="-131" on="0"/>
        <pt x="292" y="-128" on="0"/>
      </contour>
    </TTGlyph>
    <TTGlyph name="Cdotaccent" xMin="39" yMin="-12" xMax="574" yMax="901">
      <contour>
        <pt x="310" y="901" on="1"/>
        <pt x="365" y="901" on="1"/>
        <pt x="416" y="901" on="0"/>
        <pt x="416" y="851" on="1"/>
        <pt x="416" y="802" on="1"/>
        <pt x="416" y="752" on="0"/>
        <pt x="365" y="752" on="1"/>
        <pt x="310" y="752" on="1"/>
        <pt x="259" y="752" on="0"/>
        <pt x="259" y="802" on="1"/>
        <pt x="259" y="851" on="1"/>
        <pt x="259" y="901" on="0"/>
      </contour>
      <contour>
        <pt x="559" y="156" on="1"/>
        <pt x="574" y="19" on="1"/>
        <pt x="484" y="-12" on="0"/>
        <pt x="341" y="-12" on="1"/>
        <pt x="175" y="-12" on="0"/>
        <pt x="39" y="148" on="0"/>
        <pt x="39" y="542" on="0"/>
        <pt x="175" y="702" on="0"/>
        <pt x="341" y="702" on="1"/>
        <pt x="467" y="702" on="0"/>
        <pt x="559" y="677" on="1"/>
        <pt x="545" y="539" on="1"/>
        <pt x="443" y="542" on="0"/>
        <pt x="341" y="542" on="1"/>
        <pt x="279" y="542" on="0"/>
        <pt x="236" y="461" on="0"/>
        <pt x="236" y="229" on="0"/>
        <pt x="279" y="148" on="0"/>
        <pt x="341" y="148" on="1"/>
        <pt x="486" y="148" on="0"/>
      </contour>
    </TTGlyph>
    <TTGlyph name="D" xMin="60" yMin="-10" xMax="652" yMax="700">
      <contour>
        <pt x="60" y="0" on="1"/>
        <pt x="60" y="690" on="1"/>
        <pt x="228" y="700" on="0"/>
        <pt x="343" y="700" on="1"/>
        <pt x="517" y="700" on="0"/>
        <pt x="652" y="550" on="0"/>
        <pt x="652" y="140" on="0"/>
        <pt x="517" y="-10" on="0"/>
        <pt x="343" y="-10" on="1"/>
        <pt x="198" y="-10" on="0"/>
      </contour>
      <contour>
        <pt x="248" y="559" on="1"/>
        <pt x="248" y="132" on="1"/>
        <pt x="277" y="131" on="0"/>
        <pt x="343" y="131" on="1"/>
        <pt x="408" y="131" on="0"/>
        <pt x="454" y="218" on="0"/>
        <pt x="454" y="472" on="0"/>
        <pt x="408" y="560" on="0"/>
        <pt x="343" y="560" on="1"/>
      </contour>
    </TTGlyph>
    <TTGlyph name="Dcaron" xMin="60" yMin="-10" xMax="652" yMax="937">
      <contour>
        <pt x="303" y="737" on="1"/>
        <pt x="144" y="868" on="1"/>
        <pt x="190" y="937" on="1"/>
        <pt x="335" y="859" on="1"/>
        <pt x="343" y="859" on="1"/>
        <pt x="489" y="937" on="1"/>
        <pt x="534" y="868" on="1"/>
        <pt x="376" y="737" on="1"/>
      </contour>
      <contour>
        <pt x="60" y="0" on="1"/>
        <pt x="60" y="690" on="1"/>
        <pt x="228" y="700" on="0"/>
        <pt x="343" y="700" on="1"/>
        <pt x="517" y="700" on="0"/>
        <pt x="652" y="550" on="0"/>
        <pt x="652" y="140" on="0"/>
        <pt x="517" y="-10" on="0"/>
        <pt x="343" y="-10" on="1"/>
        <pt x="198" y="-10" on="0"/>
      </contour>
      <contour>
        <pt x="248" y="559" on="1"/>
        <pt x="248" y="132" on="1"/>
        <pt x="277" y="131" on="0"/>
        <pt x="343" y="131" on="1"/>
        <pt x="408" y="131" on="0"/>
        <pt x="454" y="218" on="0"/>
        <pt x="454" y="472" on="0"/>
        <pt x="408" y="560" on="0"/>
        <pt x="343" y="560" on="1"/>
      </contour>
    </TTGlyph>
    <TTGlyph name="Dcroat" xMin="11" yMin="-10" xMax="654" yMax="700">
      <contour>
        <pt x="61" y="405" on="1"/>
        <pt x="61" y="690" on="1"/>
        <pt x="231" y="700" on="0"/>
        <pt x="345" y="700" on="1"/>
        <pt x="518" y="700" on="0"/>
        <pt x="654" y="550" on="0"/>
        <pt x="654" y="140" on="0"/>
        <pt x="518" y="-10" on="0"/>
        <pt x="345" y="-10" on="1"/>
        <pt x="201" y="-10" on="0"/>
        <pt x="61" y="0" on="1"/>
        <pt x="61" y="313" on="1"/>
        <pt x="11" y="313" on="1"/>
        <pt x="11" y="405" on="1"/>
      </contour>
      <contour>
        <pt x="249" y="313" on="1"/>
        <pt x="249" y="132" on="1"/>
        <pt x="278" y="131" on="0"/>
        <pt x="345" y="131" on="1"/>
        <pt x="410" y="131" on="0"/>
        <pt x="456" y="218" on="0"/>
        <pt x="456" y="472" on="0"/>
        <pt x="410" y="560" on="0"/>
        <pt x="345" y="560" on="1"/>
        <pt x="249" y="559" on="1"/>
        <pt x="249" y="405" on="1"/>
        <pt x="359" y="405" on="1"/>
        <pt x="359" y="313" on="1"/>
      </contour>
    </TTGlyph>
    <TTGlyph name="Delta" xMin="18" yMin="0" xMax="666" yMax="690">
      <contour>
        <pt x="666" y="61" on="1"/>
        <pt x="666" y="0" on="1"/>
        <pt x="18" y="0" on="1"/>
        <pt x="18" y="61" on="1"/>
        <pt x="249" y="690" on="1"/>
        <pt x="435" y="690" on="1"/>
      </contour>
      <contour>
        <pt x="455" y="135" on="1"/>
        <pt x="363" y="416" on="1"/>
        <pt x="355" y="440" on="0"/>
        <pt x="342" y="511" on="1"/>
        <pt x="340" y="500" on="0"/>
        <pt x="332" y="461" on="0"/>
        <pt x="325" y="429" on="0"/>
        <pt x="321" y="415" on="1"/>
        <pt x="228" y="135" on="1"/>
      </contour>
    </TTGlyph>
    <TTGlyph name="E" xMin="55" yMin="-3" xMax="554" yMax="693">
      <contour>
        <pt x="545" y="143" on="1"/>
        <pt x="554" y="8" on="1"/>
        <pt x="456" y="-3" on="0"/>
        <pt x="212" y="-3" on="1"/>
        <pt x="141" y="-3" on="0"/>
        <pt x="55" y="78" on="0"/>
        <pt x="55" y="145" on="1"/>
        <pt x="55" y="545" on="1"/>
        <pt x="55" y="612" on="0"/>
        <pt x="142" y="693" on="0"/>
        <pt x="212" y="693" on="1"/>
        <pt x="456" y="693" on="0"/>
        <pt x="554" y="682" on="1"/>
        <pt x="545" y="547" on="1"/>
        <pt x="286" y="547" on="1"/>
        <pt x="243" y="547" on="0"/>
        <pt x="243" y="504" on="1"/>
        <pt x="243" y="420" on="1"/>
        <pt x="508" y="420" on="1"/>
        <pt x="508" y="291" on="1"/>
        <pt x="243" y="291" on="1"/>
        <pt x="243" y="186" on="1"/>
        <pt x="243" y="143" on="0"/>
        <pt x="286" y="143" on="1"/>
      </contour>
    </TTGlyph>
    <TTGlyph name="Eacute" xMin="55" yMin="-3" xMax="554" yMax="952">
      <contour>
        <pt x="277" y="727" on="1"/>
        <pt x="226" y="802" on="1"/>
        <pt x="444" y="952" on="1"/>
        <pt x="518" y="832" on="1"/>
      </contour>
      <contour>
        <pt x="545" y="143" on="1"/>
        <pt x="554" y="8" on="1"/>
        <pt x="456" y="-3" on="0"/>
        <pt x="212" y="-3" on="1"/>
        <pt x="141" y="-3" on="0"/>
        <pt x="55" y="78" on="0"/>
        <pt x="55" y="145" on="1"/>
        <pt x="55" y="545" on="1"/>
        <pt x="55" y="612" on="0"/>
        <pt x="142" y="693" on="0"/>
        <pt x="212" y="693" on="1"/>
        <pt x="456" y="693" on="0"/>
        <pt x="554" y="682" on="1"/>
        <pt x="545" y="547" on="1"/>
        <pt x="286" y="547" on="1"/>
        <pt x="243" y="547" on="0"/>
        <pt x="243" y="504" on="1"/>
        <pt x="243" y="420" on="1"/>
        <pt x="508" y="420" on="1"/>
        <pt x="508" y="291" on="1"/>
        <pt x="243" y="291" on="1"/>
        <pt x="243" y="186" on="1"/>
        <pt x="243" y="143" on="0"/>
        <pt x="286" y="143" on="1"/>
      </contour>
    </TTGlyph>
    <TTGlyph name="Ecaron" xMin="55" yMin="-3" xMax="554" yMax="942">
      <contour>
        <pt x="283" y="743" on="1"/>
        <pt x="125" y="874" on="1"/>
        <pt x="170" y="942" on="1"/>
        <pt x="316" y="865" on="1"/>
        <pt x="324" y="865" on="1"/>
        <pt x="469" y="942" on="1"/>
        <pt x="514" y="874" on="1"/>
        <pt x="356" y="743" on="1"/>
      </contour>
      <contour>
        <pt x="545" y="143" on="1"/>
        <pt x="554" y="8" on="1"/>
        <pt x="456" y="-3" on="0"/>
        <pt x="212" y="-3" on="1"/>
        <pt x="141" y="-3" on="0"/>
        <pt x="55" y="78" on="0"/>
        <pt x="55" y="145" on="1"/>
        <pt x="55" y="545" on="1"/>
        <pt x="55" y="612" on="0"/>
        <pt x="142" y="693" on="0"/>
        <pt x="212" y="693" on="1"/>
        <pt x="456" y="693" on="0"/>
        <pt x="554" y="682" on="1"/>
        <pt x="545" y="547" on="1"/>
        <pt x="286" y="547" on="1"/>
        <pt x="243" y="547" on="0"/>
        <pt x="243" y="504" on="1"/>
        <pt x="243" y="420" on="1"/>
        <pt x="508" y="420" on="1"/>
        <pt x="508" y="291" on="1"/>
        <pt x="243" y="291" on="1"/>
        <pt x="243" y="186" on="1"/>
        <pt x="243" y="143" on="0"/>
        <pt x="286" y="143" on="1"/>
      </contour>
    </TTGlyph>
    <TTGlyph name="Ecircumflex" xMin="55" yMin="-3" xMax="554" yMax="920">
      <contour>
        <pt x="163" y="719" on="1"/>
        <pt x="117" y="788" on="1"/>
        <pt x="254" y="920" on="1"/>
        <pt x="386" y="920" on="1"/>
        <pt x="520" y="782" on="1"/>
        <pt x="475" y="719" on="1"/>
        <pt x="324" y="813" on="1"/>
        <pt x="316" y="813" on="1"/>
      </contour>
      <contour>
        <pt x="545" y="143" on="1"/>
        <pt x="554" y="8" on="1"/>
        <pt x="456" y="-3" on="0"/>
        <pt x="212" y="-3" on="1"/>
        <pt x="141" y="-3" on="0"/>
        <pt x="55" y="78" on="0"/>
        <pt x="55" y="145" on="1"/>
        <pt x="55" y="545" on="1"/>
        <pt x="55" y="612" on="0"/>
        <pt x="142" y="693" on="0"/>
        <pt x="212" y="693" on="1"/>
        <pt x="456" y="693" on="0"/>
        <pt x="554" y="682" on="1"/>
        <pt x="545" y="547" on="1"/>
        <pt x="286" y="547" on="1"/>
        <pt x="243" y="547" on="0"/>
        <pt x="243" y="504" on="1"/>
        <pt x="243" y="420" on="1"/>
        <pt x="508" y="420" on="1"/>
        <pt x="508" y="291" on="1"/>
        <pt x="243" y="291" on="1"/>
        <pt x="243" y="186" on="1"/>
        <pt x="243" y="143" on="0"/>
        <pt x="286" y="143" on="1"/>
      </contour>
    </TTGlyph>
    <TTGlyph name="Edieresis" xMin="55" yMin="-3" xMax="554" yMax="901">
      <contour>
        <pt x="255" y="768" on="1"/>
        <pt x="195" y="768" on="1"/>
        <pt x="159" y="768" on="0"/>
        <pt x="159" y="804" on="1"/>
        <pt x="159" y="865" on="1"/>
        <pt x="159" y="901" on="0"/>
        <pt x="195" y="901" on="1"/>
        <pt x="255" y="901" on="1"/>
        <pt x="291" y="901" on="0"/>
        <pt x="291" y="865" on="1"/>
        <pt x="291" y="804" on="1"/>
        <pt x="291" y="768" on="0"/>
      </contour>
      <contour>
        <pt x="441" y="768" on="1"/>
        <pt x="381" y="768" on="1"/>
        <pt x="345" y="768" on="0"/>
        <pt x="345" y="804" on="1"/>
        <pt x="345" y="865" on="1"/>
        <pt x="345" y="901" on="0"/>
        <pt x="381" y="901" on="1"/>
        <pt x="441" y="901" on="1"/>
        <pt x="477" y="901" on="0"/>
        <pt x="477" y="865" on="1"/>
        <pt x="477" y="804" on="1"/>
        <pt x="477" y="768" on="0"/>
      </contour>
      <contour>
        <pt x="545" y="143" on="1"/>
        <pt x="554" y="8" on="1"/>
        <pt x="456" y="-3" on="0"/>
        <pt x="212" y="-3" on="1"/>
        <pt x="141" y="-3" on="0"/>
        <pt x="55" y="78" on="0"/>
        <pt x="55" y="145" on="1"/>
        <pt x="55" y="545" on="1"/>
        <pt x="55" y="612" on="0"/>
        <pt x="142" y="693" on="0"/>
        <pt x="212" y="693" on="1"/>
        <pt x="456" y="693" on="0"/>
        <pt x="554" y="682" on="1"/>
        <pt x="545" y="547" on="1"/>
        <pt x="286" y="547" on="1"/>
        <pt x="243" y="547" on="0"/>
        <pt x="243" y="504" on="1"/>
        <pt x="243" y="420" on="1"/>
        <pt x="508" y="420" on="1"/>
        <pt x="508" y="291" on="1"/>
        <pt x="243" y="291" on="1"/>
        <pt x="243" y="186" on="1"/>
        <pt x="243" y="143" on="0"/>
        <pt x="286" y="143" on="1"/>
      </contour>
    </TTGlyph>
    <TTGlyph name="Edotaccent" xMin="55" yMin="-3" xMax="554" yMax="906">
      <contour>
        <pt x="347" y="758" on="1"/>
        <pt x="292" y="758" on="1"/>
        <pt x="241" y="758" on="0"/>
        <pt x="241" y="807" on="1"/>
        <pt x="241" y="857" on="1"/>
        <pt x="241" y="906" on="0"/>
        <pt x="292" y="906" on="1"/>
        <pt x="347" y="906" on="1"/>
        <pt x="399" y="906" on="0"/>
        <pt x="399" y="857" on="1"/>
        <pt x="399" y="807" on="1"/>
        <pt x="399" y="758" on="0"/>
      </contour>
      <contour>
        <pt x="545" y="143" on="1"/>
        <pt x="554" y="8" on="1"/>
        <pt x="456" y="-3" on="0"/>
        <pt x="212" y="-3" on="1"/>
        <pt x="141" y="-3" on="0"/>
        <pt x="55" y="78" on="0"/>
        <pt x="55" y="145" on="1"/>
        <pt x="55" y="545" on="1"/>
        <pt x="55" y="612" on="0"/>
        <pt x="142" y="693" on="0"/>
        <pt x="212" y="693" on="1"/>
        <pt x="456" y="693" on="0"/>
        <pt x="554" y="682" on="1"/>
        <pt x="545" y="547" on="1"/>
        <pt x="286" y="547" on="1"/>
        <pt x="243" y="547" on="0"/>
        <pt x="243" y="504" on="1"/>
        <pt x="243" y="420" on="1"/>
        <pt x="508" y="420" on="1"/>
        <pt x="508" y="291" on="1"/>
        <pt x="243" y="291" on="1"/>
        <pt x="243" y="186" on="1"/>
        <pt x="243" y="143" on="0"/>
        <pt x="286" y="143" on="1"/>
      </contour>
    </TTGlyph>
    <TTGlyph name="Egrave" xMin="55" yMin="-3" xMax="554" yMax="952">
      <contour>
        <pt x="356" y="727" on="1"/>
        <pt x="114" y="832" on="1"/>
        <pt x="188" y="952" on="1"/>
        <pt x="407" y="802" on="1"/>
      </contour>
      <contour>
        <pt x="545" y="143" on="1"/>
        <pt x="554" y="8" on="1"/>
        <pt x="456" y="-3" on="0"/>
        <pt x="212" y="-3" on="1"/>
        <pt x="141" y="-3" on="0"/>
        <pt x="55" y="78" on="0"/>
        <pt x="55" y="145" on="1"/>
        <pt x="55" y="545" on="1"/>
        <pt x="55" y="612" on="0"/>
        <pt x="142" y="693" on="0"/>
        <pt x="212" y="693" on="1"/>
        <pt x="456" y="693" on="0"/>
        <pt x="554" y="682" on="1"/>
        <pt x="545" y="547" on="1"/>
        <pt x="286" y="547" on="1"/>
        <pt x="243" y="547" on="0"/>
        <pt x="243" y="504" on="1"/>
        <pt x="243" y="420" on="1"/>
        <pt x="508" y="420" on="1"/>
        <pt x="508" y="291" on="1"/>
        <pt x="243" y="291" on="1"/>
        <pt x="243" y="186" on="1"/>
        <pt x="243" y="143" on="0"/>
        <pt x="286" y="143" on="1"/>
      </contour>
    </TTGlyph>
    <TTGlyph name="Emacron" xMin="55" yMin="-3" xMax="554" yMax="890">
      <contour>
        <pt x="475" y="779" on="1"/>
        <pt x="165" y="779" on="1"/>
        <pt x="165" y="890" on="1"/>
        <pt x="475" y="890" on="1"/>
      </contour>
      <contour>
        <pt x="545" y="143" on="1"/>
        <pt x="554" y="8" on="1"/>
        <pt x="456" y="-3" on="0"/>
        <pt x="212" y="-3" on="1"/>
        <pt x="141" y="-3" on="0"/>
        <pt x="55" y="78" on="0"/>
        <pt x="55" y="145" on="1"/>
        <pt x="55" y="545" on="1"/>
        <pt x="55" y="612" on="0"/>
        <pt x="142" y="693" on="0"/>
        <pt x="212" y="693" on="1"/>
        <pt x="456" y="693" on="0"/>
        <pt x="554" y="682" on="1"/>
        <pt x="545" y="547" on="1"/>
        <pt x="286" y="547" on="1"/>
        <pt x="243" y="547" on="0"/>
        <pt x="243" y="504" on="1"/>
        <pt x="243" y="420" on="1"/>
        <pt x="508" y="420" on="1"/>
        <pt x="508" y="291" on="1"/>
        <pt x="243" y="291" on="1"/>
        <pt x="243" y="186" on="1"/>
        <pt x="243" y="143" on="0"/>
        <pt x="286" y="143" on="1"/>
      </contour>
    </TTGlyph>
    <TTGlyph name="Eng" xMin="60" yMin="-207" xMax="671" yMax="690">
      <contour>
        <pt x="671" y="690" on="1"/>
        <pt x="671" y="-43" on="1"/>
        <pt x="671" y="-120" on="0"/>
        <pt x="593" y="-207" on="0"/>
        <pt x="528" y="-207" on="1"/>
        <pt x="449" y="-207" on="0"/>
        <pt x="397" y="-184" on="1"/>
        <pt x="417" y="-66" on="1"/>
        <pt x="455" y="-66" on="1"/>
        <pt x="507" y="-66" on="0"/>
        <pt x="507" y="-28" on="1"/>
        <pt x="507" y="7" on="1"/>
        <pt x="494" y="7" on="1"/>
        <pt x="480" y="7" on="0"/>
        <pt x="453" y="54" on="1"/>
        <pt x="280" y="346" on="1"/>
        <pt x="263" y="373" on="0"/>
        <pt x="234" y="459" on="1"/>
        <pt x="227" y="459" on="1"/>
        <pt x="235" y="398" on="0"/>
        <pt x="235" y="347" on="1"/>
        <pt x="235" y="0" on="1"/>
        <pt x="60" y="0" on="1"/>
        <pt x="60" y="624" on="1"/>
        <pt x="60" y="690" on="0"/>
        <pt x="126" y="690" on="1"/>
        <pt x="207" y="690" on="1"/>
        <pt x="234" y="690" on="0"/>
        <pt x="265" y="665" on="0"/>
        <pt x="282" y="635" on="1"/>
        <pt x="445" y="355" on="1"/>
        <pt x="473" y="304" on="0"/>
        <pt x="496" y="240" on="1"/>
        <pt x="504" y="240" on="1"/>
        <pt x="496" y="304" on="0"/>
        <pt x="496" y="359" on="1"/>
        <pt x="496" y="690" on="1"/>
      </contour>
    </TTGlyph>
    <TTGlyph name="Eogonek" xMin="55" yMin="-205" xMax="568" yMax="693">
      <contour>
        <pt x="555" y="-120" on="1"/>
        <pt x="568" y="-184" on="1"/>
        <pt x="490" y="-213" on="0"/>
        <pt x="400" y="-196" on="0"/>
        <pt x="367" y="-138" on="0"/>
        <pt x="380" y="-100" on="1"/>
        <pt x="398" y="-47" on="0"/>
        <pt x="469" y="1" on="1"/>
        <pt x="387" y="-3" on="0"/>
        <pt x="212" y="-3" on="1"/>
        <pt x="141" y="-3" on="0"/>
        <pt x="55" y="78" on="0"/>
        <pt x="55" y="145" on="1"/>
        <pt x="55" y="545" on="1"/>
        <pt x="55" y="612" on="0"/>
        <pt x="142" y="693" on="0"/>
        <pt x="212" y="693" on="1"/>
        <pt x="456" y="693" on="0"/>
        <pt x="554" y="682" on="1"/>
        <pt x="545" y="547" on="1"/>
        <pt x="286" y="547" on="1"/>
        <pt x="243" y="547" on="0"/>
        <pt x="243" y="504" on="1"/>
        <pt x="243" y="420" on="1"/>
        <pt x="508" y="420" on="1"/>
        <pt x="508" y="291" on="1"/>
        <pt x="243" y="291" on="1"/>
        <pt x="243" y="186" on="1"/>
        <pt x="243" y="143" on="0"/>
        <pt x="286" y="143" on="1"/>
        <pt x="545" y="143" on="1"/>
        <pt x="554" y="8" on="1"/>
        <pt x="515" y="-54" on="0"/>
        <pt x="501" y="-85" on="1"/>
        <pt x="488" y="-112" on="0"/>
        <pt x="523" y="-129" on="0"/>
      </contour>
    </TTGlyph>
    <TTGlyph name="Eth" xMin="11" yMin="-10" xMax="654" yMax="700">
      <contour>
        <pt x="61" y="405" on="1"/>
        <pt x="61" y="690" on="1"/>
        <pt x="231" y="700" on="0"/>
        <pt x="345" y="700" on="1"/>
        <pt x="518" y="700" on="0"/>
        <pt x="654" y="550" on="0"/>
        <pt x="654" y="140" on="0"/>
        <pt x="518" y="-10" on="0"/>
        <pt x="345" y="-10" on="1"/>
        <pt x="201" y="-10" on="0"/>
        <pt x="61" y="0" on="1"/>
        <pt x="61" y="313" on="1"/>
        <pt x="11" y="313" on="1"/>
        <pt x="11" y="405" on="1"/>
      </contour>
      <contour>
        <pt x="249" y="313" on="1"/>
        <pt x="249" y="132" on="1"/>
        <pt x="278" y="131" on="0"/>
        <pt x="345" y="131" on="1"/>
        <pt x="410" y="131" on="0"/>
        <pt x="456" y="218" on="0"/>
        <pt x="456" y="472" on="0"/>
        <pt x="410" y="560" on="0"/>
        <pt x="345" y="560" on="1"/>
        <pt x="249" y="559" on="1"/>
        <pt x="249" y="405" on="1"/>
        <pt x="359" y="405" on="1"/>
        <pt x="359" y="313" on="1"/>
      </contour>
    </TTGlyph>
    <TTGlyph name="Euro" xMin="33" yMin="-12" xMax="611" yMax="702">
      <contour>
        <pt x="503" y="364" on="1"/>
        <pt x="34" y="364" on="1"/>
        <pt x="34" y="467" on="1"/>
        <pt x="104" y="467" on="1"/>
        <pt x="125" y="588" on="0"/>
        <pt x="271" y="702" on="0"/>
        <pt x="414" y="702" on="1"/>
        <pt x="512" y="702" on="0"/>
        <pt x="594" y="677" on="1"/>
        <pt x="578" y="546" on="1"/>
        <pt x="461" y="561" on="0"/>
        <pt x="399" y="549" on="1"/>
        <pt x="327" y="539" on="0"/>
        <pt x="306" y="467" on="1"/>
        <pt x="514" y="467" on="1"/>
      </contour>
      <contour>
        <pt x="597" y="150" on="1"/>
        <pt x="611" y="19" on="1"/>
        <pt x="528" y="-12" on="0"/>
        <pt x="414" y="-12" on="1"/>
        <pt x="270" y="-12" on="0"/>
        <pt x="124" y="104" on="0"/>
        <pt x="105" y="228" on="1"/>
        <pt x="33" y="228" on="1"/>
        <pt x="33" y="331" on="1"/>
        <pt x="492" y="331" on="1"/>
        <pt x="481" y="228" on="1"/>
        <pt x="304" y="228" on="1"/>
        <pt x="314" y="186" on="0"/>
        <pt x="359" y="145" on="0"/>
        <pt x="399" y="141" on="1"/>
        <pt x="487" y="130" on="0"/>
      </contour>
    </TTGlyph>
    <TTGlyph name="F" xMin="58" yMin="0" xMax="547" yMax="693">
      <contour>
        <pt x="538" y="547" on="1"/>
        <pt x="294" y="547" on="1"/>
        <pt x="246" y="547" on="0"/>
        <pt x="246" y="504" on="1"/>
        <pt x="246" y="407" on="1"/>
        <pt x="501" y="407" on="1"/>
        <pt x="501" y="277" on="1"/>
        <pt x="246" y="277" on="1"/>
        <pt x="246" y="0" on="1"/>
        <pt x="58" y="0" on="1"/>
        <pt x="58" y="543" on="1"/>
        <pt x="58" y="611" on="0"/>
        <pt x="146" y="693" on="0"/>
        <pt x="217" y="693" on="1"/>
        <pt x="454" y="693" on="0"/>
        <pt x="547" y="681" on="1"/>
      </contour>
    </TTGlyph>
    <TTGlyph name="G" xMin="39" yMin="-14" xMax="613" yMax="704">
      <contour>
        <pt x="613" y="397" on="1"/>
        <pt x="613" y="0" on="1"/>
        <pt x="475" y="0" on="1"/>
        <pt x="459" y="70" on="1"/>
        <pt x="428" y="36" on="0"/>
        <pt x="328" y="-14" on="0"/>
        <pt x="264" y="-14" on="1"/>
        <pt x="146" y="-14" on="0"/>
        <pt x="39" y="154" on="0"/>
        <pt x="39" y="346" on="1"/>
        <pt x="39" y="546" on="0"/>
        <pt x="181" y="704" on="0"/>
        <pt x="357" y="704" on="1"/>
        <pt x="488" y="704" on="0"/>
        <pt x="587" y="677" on="1"/>
        <pt x="572" y="541" on="1"/>
        <pt x="464" y="544" on="0"/>
        <pt x="359" y="544" on="1"/>
        <pt x="286" y="544" on="0"/>
        <pt x="236" y="467" on="0"/>
        <pt x="236" y="344" on="1"/>
        <pt x="236" y="229" on="0"/>
        <pt x="278" y="147" on="0"/>
        <pt x="336" y="147" on="1"/>
        <pt x="384" y="147" on="0"/>
        <pt x="433" y="164" on="1"/>
        <pt x="433" y="397" on="1"/>
      </contour>
    </TTGlyph>
    <TTGlyph name="Gbreve" xMin="39" yMin="-14" xMax="613" yMax="913">
      <contour>
        <pt x="432" y="913" on="1"/>
        <pt x="517" y="901" on="1"/>
        <pt x="528" y="834" on="0"/>
        <pt x="432" y="738" on="0"/>
        <pt x="260" y="738" on="0"/>
        <pt x="163" y="834" on="0"/>
        <pt x="173" y="901" on="1"/>
        <pt x="258" y="913" on="1"/>
        <pt x="258" y="881" on="0"/>
        <pt x="300" y="851" on="0"/>
        <pt x="346" y="851" on="1"/>
        <pt x="391" y="851" on="0"/>
        <pt x="432" y="881" on="0"/>
      </contour>
      <contour>
        <pt x="613" y="397" on="1"/>
        <pt x="613" y="0" on="1"/>
        <pt x="475" y="0" on="1"/>
        <pt x="459" y="70" on="1"/>
        <pt x="428" y="36" on="0"/>
        <pt x="328" y="-14" on="0"/>
        <pt x="264" y="-14" on="1"/>
        <pt x="146" y="-14" on="0"/>
        <pt x="39" y="154" on="0"/>
        <pt x="39" y="346" on="1"/>
        <pt x="39" y="546" on="0"/>
        <pt x="181" y="704" on="0"/>
        <pt x="357" y="704" on="1"/>
        <pt x="488" y="704" on="0"/>
        <pt x="587" y="677" on="1"/>
        <pt x="572" y="541" on="1"/>
        <pt x="464" y="544" on="0"/>
        <pt x="359" y="544" on="1"/>
        <pt x="286" y="544" on="0"/>
        <pt x="236" y="467" on="0"/>
        <pt x="236" y="344" on="1"/>
        <pt x="236" y="229" on="0"/>
        <pt x="278" y="147" on="0"/>
        <pt x="336" y="147" on="1"/>
        <pt x="384" y="147" on="0"/>
        <pt x="433" y="164" on="1"/>
        <pt x="433" y="397" on="1"/>
      </contour>
    </TTGlyph>
    <TTGlyph name="Gcommaaccent" xMin="39" yMin="-301" xMax="613" yMax="704">
      <contour>
        <pt x="613" y="397" on="1"/>
        <pt x="613" y="0" on="1"/>
        <pt x="475" y="0" on="1"/>
        <pt x="459" y="70" on="1"/>
        <pt x="428" y="36" on="0"/>
        <pt x="328" y="-14" on="0"/>
        <pt x="264" y="-14" on="1"/>
        <pt x="146" y="-14" on="0"/>
        <pt x="39" y="154" on="0"/>
        <pt x="39" y="346" on="1"/>
        <pt x="39" y="546" on="0"/>
        <pt x="181" y="704" on="0"/>
        <pt x="357" y="704" on="1"/>
        <pt x="488" y="704" on="0"/>
        <pt x="587" y="677" on="1"/>
        <pt x="572" y="541" on="1"/>
        <pt x="464" y="544" on="0"/>
        <pt x="359" y="544" on="1"/>
        <pt x="286" y="544" on="0"/>
        <pt x="236" y="467" on="0"/>
        <pt x="236" y="344" on="1"/>
        <pt x="236" y="229" on="0"/>
        <pt x="278" y="147" on="0"/>
        <pt x="336" y="147" on="1"/>
        <pt x="384" y="147" on="0"/>
        <pt x="433" y="164" on="1"/>
        <pt x="433" y="397" on="1"/>
      </contour>
      <contour>
        <pt x="326" y="-50" on="1"/>
        <pt x="361" y="-50" on="1"/>
        <pt x="393" y="-50" on="0"/>
        <pt x="417" y="-70" on="0"/>
        <pt x="418" y="-98" on="1"/>
        <pt x="418" y="-148" on="1"/>
        <pt x="418" y="-233" on="0"/>
        <pt x="363" y="-301" on="1"/>
        <pt x="299" y="-284" on="1"/>
        <pt x="313" y="-244" on="0"/>
        <pt x="315" y="-181" on="1"/>
        <pt x="269" y="-181" on="0"/>
        <pt x="267" y="-138" on="1"/>
        <pt x="269" y="-98" on="1"/>
        <pt x="270" y="-70" on="0"/>
        <pt x="294" y="-50" on="0"/>
      </contour>
    </TTGlyph>
    <TTGlyph name="Gdotaccent" xMin="39" yMin="-14" xMax="613" yMax="901">
      <contour>
        <pt x="374" y="752" on="1"/>
        <pt x="319" y="752" on="1"/>
        <pt x="267" y="752" on="0"/>
        <pt x="267" y="802" on="1"/>
        <pt x="267" y="851" on="1"/>
        <pt x="267" y="901" on="0"/>
        <pt x="319" y="901" on="1"/>
        <pt x="374" y="901" on="1"/>
        <pt x="425" y="901" on="0"/>
        <pt x="425" y="851" on="1"/>
        <pt x="425" y="802" on="1"/>
        <pt x="425" y="752" on="0"/>
      </contour>
      <contour>
        <pt x="613" y="397" on="1"/>
        <pt x="613" y="0" on="1"/>
        <pt x="475" y="0" on="1"/>
        <pt x="459" y="70" on="1"/>
        <pt x="428" y="36" on="0"/>
        <pt x="328" y="-14" on="0"/>
        <pt x="264" y="-14" on="1"/>
        <pt x="146" y="-14" on="0"/>
        <pt x="39" y="154" on="0"/>
        <pt x="39" y="346" on="1"/>
        <pt x="39" y="546" on="0"/>
        <pt x="181" y="704" on="0"/>
        <pt x="357" y="704" on="1"/>
        <pt x="488" y="704" on="0"/>
        <pt x="587" y="677" on="1"/>
        <pt x="572" y="541" on="1"/>
        <pt x="464" y="544" on="0"/>
        <pt x="359" y="544" on="1"/>
        <pt x="286" y="544" on="0"/>
        <pt x="236" y="467" on="0"/>
        <pt x="236" y="344" on="1"/>
        <pt x="236" y="229" on="0"/>
        <pt x="278" y="147" on="0"/>
        <pt x="336" y="147" on="1"/>
        <pt x="384" y="147" on="0"/>
        <pt x="433" y="164" on="1"/>
        <pt x="433" y="397" on="1"/>
      </contour>
    </TTGlyph>
    <TTGlyph name="H" xMin="61" yMin="0" xMax="642" yMax="690">
      <contour>
        <pt x="642" y="690" on="1"/>
        <pt x="642" y="0" on="1"/>
        <pt x="454" y="0" on="1"/>
        <pt x="454" y="298" on="1"/>
        <pt x="248" y="298" on="1"/>
        <pt x="248" y="0" on="1"/>
        <pt x="61" y="0" on="1"/>
        <pt x="61" y="690" on="1"/>
        <pt x="248" y="690" on="1"/>
        <pt x="248" y="435" on="1"/>
        <pt x="454" y="435" on="1"/>
        <pt x="454" y="690" on="1"/>
      </contour>
    </TTGlyph>
    <TTGlyph name="Hbar" xMin="8" yMin="0" xMax="698" yMax="690">
      <contour>
        <pt x="698" y="510" on="1"/>
        <pt x="643" y="510" on="1"/>
        <pt x="643" y="0" on="1"/>
        <pt x="455" y="0" on="1"/>
        <pt x="455" y="298" on="1"/>
        <pt x="250" y="298" on="1"/>
        <pt x="250" y="0" on="1"/>
        <pt x="62" y="0" on="1"/>
        <pt x="62" y="510" on="1"/>
        <pt x="8" y="510" on="1"/>
        <pt x="8" y="594" on="1"/>
        <pt x="62" y="594" on="1"/>
        <pt x="62" y="690" on="1"/>
        <pt x="250" y="690" on="1"/>
        <pt x="250" y="594" on="1"/>
        <pt x="455" y="594" on="1"/>
        <pt x="455" y="690" on="1"/>
        <pt x="643" y="690" on="1"/>
        <pt x="643" y="594" on="1"/>
        <pt x="698" y="594" on="1"/>
      </contour>
      <contour>
        <pt x="455" y="510" on="1"/>
        <pt x="250" y="510" on="1"/>
        <pt x="250" y="435" on="1"/>
        <pt x="455" y="435" on="1"/>
      </contour>
    </TTGlyph>
    <TTGlyph name="I" xMin="61" yMin="0" xMax="247" yMax="690">
      <contour>
        <pt x="247" y="0" on="1"/>
        <pt x="61" y="0" on="1"/>
        <pt x="61" y="690" on="1"/>
        <pt x="247" y="690" on="1"/>
      </contour>
    </TTGlyph>
    <TTGlyph name="IJ" xMin="61" yMin="-13" xMax="638" yMax="690">
      <contour>
        <pt x="247" y="0" on="1"/>
        <pt x="61" y="0" on="1"/>
        <pt x="61" y="690" on="1"/>
        <pt x="247" y="690" on="1"/>
      </contour>
      <contour>
        <pt x="638" y="690" on="1"/>
        <pt x="638" y="135" on="1"/>
        <pt x="638" y="64" on="0"/>
        <pt x="548" y="-13" on="0"/>
        <pt x="467" y="-13" on="1"/>
        <pt x="371" y="-13" on="0"/>
        <pt x="322" y="10" on="1"/>
        <pt x="342" y="131" on="1"/>
        <pt x="389" y="131" on="1"/>
        <pt x="452" y="131" on="0"/>
        <pt x="452" y="174" on="1"/>
        <pt x="452" y="690" on="1"/>
      </contour>
    </TTGlyph>
    <TTGlyph name="Iacute" xMin="61" yMin="0" xMax="353" yMax="946">
      <contour>
        <pt x="353" y="827" on="1"/>
        <pt x="112" y="721" on="1"/>
        <pt x="61" y="797" on="1"/>
        <pt x="279" y="946" on="1"/>
      </contour>
      <contour>
        <pt x="247" y="0" on="1"/>
        <pt x="61" y="0" on="1"/>
        <pt x="61" y="690" on="1"/>
        <pt x="247" y="690" on="1"/>
      </contour>
    </TTGlyph>
    <TTGlyph name="Icircumflex" xMin="-48" yMin="0" xMax="355" yMax="915">
      <contour>
        <pt x="355" y="777" on="1"/>
        <pt x="310" y="714" on="1"/>
        <pt x="159" y="808" on="1"/>
        <pt x="151" y="808" on="1"/>
        <pt x="-2" y="714" on="1"/>
        <pt x="-48" y="783" on="1"/>
        <pt x="89" y="915" on="1"/>
        <pt x="221" y="915" on="1"/>
      </contour>
      <contour>
        <pt x="247" y="0" on="1"/>
        <pt x="61" y="0" on="1"/>
        <pt x="61" y="690" on="1"/>
        <pt x="247" y="690" on="1"/>
      </contour>
    </TTGlyph>
    <TTGlyph name="Idieresis" xMin="-6" yMin="0" xMax="312" yMax="896">
      <contour>
        <pt x="30" y="896" on="1"/>
        <pt x="90" y="896" on="1"/>
        <pt x="126" y="896" on="0"/>
        <pt x="126" y="860" on="1"/>
        <pt x="126" y="799" on="1"/>
        <pt x="126" y="763" on="0"/>
        <pt x="90" y="763" on="1"/>
        <pt x="30" y="763" on="1"/>
        <pt x="-6" y="763" on="0"/>
        <pt x="-6" y="799" on="1"/>
        <pt x="-6" y="860" on="1"/>
        <pt x="-6" y="896" on="0"/>
      </contour>
      <contour>
        <pt x="216" y="896" on="1"/>
        <pt x="276" y="896" on="1"/>
        <pt x="312" y="896" on="0"/>
        <pt x="312" y="860" on="1"/>
        <pt x="312" y="799" on="1"/>
        <pt x="312" y="763" on="0"/>
        <pt x="276" y="763" on="1"/>
        <pt x="216" y="763" on="1"/>
        <pt x="180" y="763" on="0"/>
        <pt x="180" y="799" on="1"/>
        <pt x="180" y="860" on="1"/>
        <pt x="180" y="896" on="0"/>
      </contour>
      <contour>
        <pt x="247" y="0" on="1"/>
        <pt x="61" y="0" on="1"/>
        <pt x="61" y="690" on="1"/>
        <pt x="247" y="690" on="1"/>
      </contour>
    </TTGlyph>
    <TTGlyph name="Idotaccent" xMin="61" yMin="0" xMax="247" yMax="901">
      <contour>
        <pt x="127" y="901" on="1"/>
        <pt x="182" y="901" on="1"/>
        <pt x="233" y="901" on="0"/>
        <pt x="233" y="851" on="1"/>
        <pt x="233" y="802" on="1"/>
        <pt x="233" y="752" on="0"/>
        <pt x="182" y="752" on="1"/>
        <pt x="127" y="752" on="1"/>
        <pt x="76" y="752" on="0"/>
        <pt x="76" y="802" on="1"/>
        <pt x="76" y="851" on="1"/>
        <pt x="76" y="901" on="0"/>
      </contour>
      <contour>
        <pt x="247" y="0" on="1"/>
        <pt x="61" y="0" on="1"/>
        <pt x="61" y="690" on="1"/>
        <pt x="247" y="690" on="1"/>
      </contour>
    </TTGlyph>
    <TTGlyph name="Igrave" xMin="-51" yMin="0" xMax="247" yMax="946">
      <contour>
        <pt x="242" y="797" on="1"/>
        <pt x="191" y="721" on="1"/>
        <pt x="-51" y="827" on="1"/>
        <pt x="23" y="946" on="1"/>
      </contour>
      <contour>
        <pt x="247" y="0" on="1"/>
        <pt x="61" y="0" on="1"/>
        <pt x="61" y="690" on="1"/>
        <pt x="247" y="690" on="1"/>
      </contour>
    </TTGlyph>
    <TTGlyph name="Imacron" xMin="0" yMin="0" xMax="310" yMax="885">
      <contour>
        <pt x="310" y="774" on="1"/>
        <pt x="0" y="774" on="1"/>
        <pt x="0" y="885" on="1"/>
        <pt x="310" y="885" on="1"/>
      </contour>
      <contour>
        <pt x="247" y="0" on="1"/>
        <pt x="61" y="0" on="1"/>
        <pt x="61" y="690" on="1"/>
        <pt x="247" y="690" on="1"/>
      </contour>
    </TTGlyph>
    <TTGlyph name="Iogonek" xMin="50" yMin="-213" xMax="247" yMax="690">
      <contour>
        <pt x="247" y="0" on="1"/>
        <pt x="223" y="0" on="1"/>
        <pt x="184" y="-62" on="0"/>
        <pt x="170" y="-93" on="1"/>
        <pt x="157" y="-120" on="0"/>
        <pt x="192" y="-137" on="0"/>
        <pt x="225" y="-128" on="1"/>
        <pt x="237" y="-192" on="1"/>
        <pt x="160" y="-221" on="0"/>
        <pt x="69" y="-204" on="0"/>
        <pt x="37" y="-146" on="0"/>
        <pt x="50" y="-108" on="1"/>
        <pt x="68" y="-52" on="0"/>
        <pt x="149" y="0" on="1"/>
        <pt x="61" y="0" on="1"/>
        <pt x="61" y="690" on="1"/>
        <pt x="247" y="690" on="1"/>
      </contour>
    </TTGlyph>
    <TTGlyph name="J" xMin="15" yMin="-13" xMax="330" yMax="690">
      <contour>
        <pt x="330" y="690" on="1"/>
        <pt x="330" y="135" on="1"/>
        <pt x="330" y="64" on="0"/>
        <pt x="240" y="-13" on="0"/>
        <pt x="160" y="-13" on="1"/>
        <pt x="63" y="-13" on="0"/>
        <pt x="15" y="10" on="1"/>
        <pt x="35" y="131" on="1"/>
        <pt x="82" y="131" on="1"/>
        <pt x="144" y="131" on="0"/>
        <pt x="144" y="174" on="1"/>
        <pt x="144" y="690" on="1"/>
      </contour>
    </TTGlyph>
    <TTGlyph name="K" xMin="61" yMin="0" xMax="658" yMax="690">
      <contour>
        <pt x="288" y="295" on="1"/>
        <pt x="240" y="295" on="1"/>
        <pt x="248" y="260" on="0"/>
        <pt x="248" y="231" on="1"/>
        <pt x="248" y="0" on="1"/>
        <pt x="61" y="0" on="1"/>
        <pt x="61" y="690" on="1"/>
        <pt x="248" y="690" on="1"/>
        <pt x="248" y="507" on="1"/>
        <pt x="248" y="460" on="0"/>
        <pt x="240" y="421" on="1"/>
        <pt x="287" y="421" on="1"/>
        <pt x="445" y="690" on="1"/>
        <pt x="647" y="690" on="1"/>
        <pt x="480" y="418" on="1"/>
        <pt x="459" y="381" on="0"/>
        <pt x="424" y="359" on="1"/>
        <pt x="424" y="356" on="1"/>
        <pt x="465" y="332" on="0"/>
        <pt x="488" y="291" on="1"/>
        <pt x="658" y="0" on="1"/>
        <pt x="450" y="0" on="1"/>
      </contour>
    </TTGlyph>
    <TTGlyph name="Kcommaaccent" xMin="61" yMin="-301" xMax="658" yMax="690">
      <contour>
        <pt x="658" y="0" on="1"/>
        <pt x="450" y="0" on="1"/>
        <pt x="288" y="295" on="1"/>
        <pt x="240" y="295" on="1"/>
        <pt x="248" y="260" on="0"/>
        <pt x="248" y="231" on="1"/>
        <pt x="248" y="0" on="1"/>
        <pt x="61" y="0" on="1"/>
        <pt x="61" y="690" on="1"/>
        <pt x="248" y="690" on="1"/>
        <pt x="248" y="507" on="1"/>
        <pt x="248" y="460" on="0"/>
        <pt x="240" y="421" on="1"/>
        <pt x="287" y="421" on="1"/>
        <pt x="445" y="690" on="1"/>
        <pt x="647" y="690" on="1"/>
        <pt x="480" y="418" on="1"/>
        <pt x="459" y="381" on="0"/>
        <pt x="424" y="359" on="1"/>
        <pt x="424" y="356" on="1"/>
        <pt x="465" y="332" on="0"/>
        <pt x="488" y="291" on="1"/>
      </contour>
      <contour>
        <pt x="323" y="-50" on="1"/>
        <pt x="357" y="-50" on="1"/>
        <pt x="389" y="-50" on="0"/>
        <pt x="414" y="-71" on="0"/>
        <pt x="414" y="-98" on="1"/>
        <pt x="414" y="-148" on="1"/>
        <pt x="414" y="-198" on="0"/>
        <pt x="388" y="-267" on="0"/>
        <pt x="360" y="-301" on="1"/>
        <pt x="296" y="-284" on="1"/>
        <pt x="311" y="-241" on="0"/>
        <pt x="311" y="-181" on="1"/>
        <pt x="264" y="-181" on="0"/>
        <pt x="264" y="-138" on="1"/>
        <pt x="266" y="-98" on="1"/>
        <pt x="267" y="-70" on="0"/>
        <pt x="291" y="-50" on="0"/>
      </contour>
    </TTGlyph>
    <TTGlyph name="L" xMin="58" yMin="-3" xMax="536" yMax="690">
      <contour>
        <pt x="246" y="690" on="1"/>
        <pt x="246" y="193" on="1"/>
        <pt x="246" y="150" on="0"/>
        <pt x="293" y="150" on="1"/>
        <pt x="527" y="150" on="1"/>
        <pt x="536" y="9" on="1"/>
        <pt x="438" y="-3" on="0"/>
        <pt x="219" y="-3" on="1"/>
        <pt x="142" y="-3" on="0"/>
        <pt x="58" y="80" on="0"/>
        <pt x="58" y="149" on="1"/>
        <pt x="58" y="690" on="1"/>
      </contour>
    </TTGlyph>
    <TTGlyph name="Lacute" xMin="58" yMin="-3" xMax="536" yMax="946">
      <contour>
        <pt x="355" y="827" on="1"/>
        <pt x="114" y="721" on="1"/>
        <pt x="63" y="797" on="1"/>
        <pt x="281" y="946" on="1"/>
      </contour>
      <contour>
        <pt x="246" y="690" on="1"/>
        <pt x="246" y="193" on="1"/>
        <pt x="246" y="150" on="0"/>
        <pt x="293" y="150" on="1"/>
        <pt x="527" y="150" on="1"/>
        <pt x="536" y="9" on="1"/>
        <pt x="438" y="-3" on="0"/>
        <pt x="219" y="-3" on="1"/>
        <pt x="142" y="-3" on="0"/>
        <pt x="58" y="80" on="0"/>
        <pt x="58" y="149" on="1"/>
        <pt x="58" y="690" on="1"/>
      </contour>
    </TTGlyph>
    <TTGlyph name="Lcaron" xMin="58" yMin="-3" xMax="536" yMax="691">
      <contour>
        <pt x="374" y="691" on="1"/>
        <pt x="409" y="691" on="1"/>
        <pt x="441" y="691" on="0"/>
        <pt x="465" y="670" on="0"/>
        <pt x="466" y="642" on="1"/>
        <pt x="466" y="592" on="1"/>
        <pt x="466" y="506" on="0"/>
        <pt x="412" y="439" on="1"/>
        <pt x="348" y="456" on="1"/>
        <pt x="361" y="497" on="0"/>
        <pt x="363" y="559" on="1"/>
        <pt x="317" y="559" on="0"/>
        <pt x="315" y="602" on="1"/>
        <pt x="317" y="642" on="1"/>
        <pt x="318" y="670" on="0"/>
        <pt x="343" y="691" on="0"/>
      </contour>
      <contour>
        <pt x="246" y="690" on="1"/>
        <pt x="246" y="193" on="1"/>
        <pt x="246" y="150" on="0"/>
        <pt x="293" y="150" on="1"/>
        <pt x="527" y="150" on="1"/>
        <pt x="536" y="9" on="1"/>
        <pt x="438" y="-3" on="0"/>
        <pt x="219" y="-3" on="1"/>
        <pt x="142" y="-3" on="0"/>
        <pt x="58" y="80" on="0"/>
        <pt x="58" y="149" on="1"/>
        <pt x="58" y="690" on="1"/>
      </contour>
    </TTGlyph>
    <TTGlyph name="Lcommaaccent" xMin="58" yMin="-301" xMax="536" yMax="690">
      <contour>
        <pt x="246" y="690" on="1"/>
        <pt x="246" y="193" on="1"/>
        <pt x="246" y="150" on="0"/>
        <pt x="293" y="150" on="1"/>
        <pt x="527" y="150" on="1"/>
        <pt x="536" y="9" on="1"/>
        <pt x="438" y="-3" on="0"/>
        <pt x="219" y="-3" on="1"/>
        <pt x="142" y="-3" on="0"/>
        <pt x="58" y="80" on="0"/>
        <pt x="58" y="149" on="1"/>
        <pt x="58" y="690" on="1"/>
      </contour>
      <contour>
        <pt x="277" y="-50" on="1"/>
        <pt x="312" y="-50" on="1"/>
        <pt x="344" y="-50" on="0"/>
        <pt x="368" y="-70" on="0"/>
        <pt x="368" y="-98" on="1"/>
        <pt x="368" y="-148" on="1"/>
        <pt x="368" y="-198" on="0"/>
        <pt x="342" y="-267" on="0"/>
        <pt x="314" y="-301" on="1"/>
        <pt x="250" y="-284" on="1"/>
        <pt x="264" y="-244" on="0"/>
        <pt x="266" y="-181" on="1"/>
        <pt x="218" y="-181" on="0"/>
        <pt x="218" y="-138" on="1"/>
        <pt x="220" y="-98" on="1"/>
        <pt x="221" y="-70" on="0"/>
        <pt x="245" y="-50" on="0"/>
      </contour>
    </TTGlyph>
    <TTGlyph name="Ldot" xMin="58" yMin="-3" xMax="536" yMax="690">
      <contour>
        <pt x="246" y="690" on="1"/>
        <pt x="246" y="193" on="1"/>
        <pt x="246" y="150" on="0"/>
        <pt x="293" y="150" on="1"/>
        <pt x="527" y="150" on="1"/>
        <pt x="536" y="9" on="1"/>
        <pt x="438" y="-3" on="0"/>
        <pt x="219" y="-3" on="1"/>
        <pt x="142" y="-3" on="0"/>
        <pt x="58" y="80" on="0"/>
        <pt x="58" y="149" on="1"/>
        <pt x="58" y="690" on="1"/>
      </contour>
      <contour>
        <pt x="452" y="342" on="1"/>
        <pt x="397" y="342" on="1"/>
        <pt x="346" y="342" on="0"/>
        <pt x="346" y="392" on="1"/>
        <pt x="346" y="441" on="1"/>
        <pt x="346" y="491" on="0"/>
        <pt x="397" y="491" on="1"/>
        <pt x="452" y="491" on="1"/>
        <pt x="504" y="491" on="0"/>
        <pt x="504" y="441" on="1"/>
        <pt x="504" y="392" on="1"/>
        <pt x="504" y="342" on="0"/>
      </contour>
    </TTGlyph>
    <TTGlyph name="Lslash" xMin="10" yMin="-3" xMax="538" yMax="690">
      <contour>
        <pt x="529" y="150" on="1"/>
        <pt x="538" y="9" on="1"/>
        <pt x="440" y="-3" on="0"/>
        <pt x="221" y="-3" on="1"/>
        <pt x="144" y="-3" on="0"/>
        <pt x="60" y="80" on="0"/>
        <pt x="60" y="149" on="1"/>
        <pt x="60" y="297" on="1"/>
        <pt x="10" y="277" on="1"/>
        <pt x="10" y="371" on="1"/>
        <pt x="60" y="391" on="1"/>
        <pt x="60" y="690" on="1"/>
        <pt x="248" y="690" on="1"/>
        <pt x="248" y="464" on="1"/>
        <pt x="354" y="505" on="1"/>
        <pt x="354" y="411" on="1"/>
        <pt x="248" y="370" on="1"/>
        <pt x="248" y="193" on="1"/>
        <pt x="248" y="150" on="0"/>
        <pt x="295" y="150" on="1"/>
      </contour>
    </TTGlyph>
    <TTGlyph name="M" xMin="48" yMin="0" xMax="886" yMax="690">
      <contour>
        <pt x="622" y="690" on="1"/>
        <pt x="793" y="690" on="1"/>
        <pt x="858" y="690" on="0"/>
        <pt x="861" y="623" on="1"/>
        <pt x="886" y="0" on="1"/>
        <pt x="714" y="0" on="1"/>
        <pt x="692" y="547" on="1"/>
        <pt x="676" y="547" on="1"/>
        <pt x="592" y="161" on="1"/>
        <pt x="581" y="103" on="0"/>
        <pt x="519" y="103" on="1"/>
        <pt x="413" y="103" on="1"/>
        <pt x="351" y="103" on="0"/>
        <pt x="339" y="161" on="1"/>
        <pt x="254" y="547" on="1"/>
        <pt x="238" y="547" on="1"/>
        <pt x="220" y="0" on="1"/>
        <pt x="48" y="0" on="1"/>
        <pt x="72" y="623" on="1"/>
        <pt x="75" y="690" on="0"/>
        <pt x="140" y="690" on="1"/>
        <pt x="308" y="690" on="1"/>
        <pt x="369" y="690" on="0"/>
        <pt x="381" y="631" on="1"/>
        <pt x="446" y="325" on="1"/>
        <pt x="452" y="294" on="0"/>
        <pt x="460" y="225" on="1"/>
        <pt x="471" y="225" on="1"/>
        <pt x="472" y="232" on="0"/>
        <pt x="482" y="306" on="0"/>
        <pt x="486" y="326" on="1"/>
        <pt x="549" y="631" on="1"/>
        <pt x="561" y="690" on="0"/>
      </contour>
    </TTGlyph>
    <TTGlyph name="N" xMin="60" yMin="0" xMax="671" yMax="690">
      <contour>
        <pt x="671" y="690" on="1"/>
        <pt x="671" y="66" on="1"/>
        <pt x="671" y="0" on="0"/>
        <pt x="606" y="0" on="1"/>
        <pt x="517" y="0" on="1"/>
        <pt x="490" y="0" on="0"/>
        <pt x="460" y="25" on="0"/>
        <pt x="444" y="55" on="1"/>
        <pt x="280" y="351" on="1"/>
        <pt x="253" y="402" on="0"/>
        <pt x="235" y="464" on="1"/>
        <pt x="227" y="464" on="1"/>
        <pt x="235" y="402" on="0"/>
        <pt x="235" y="346" on="1"/>
        <pt x="235" y="0" on="1"/>
        <pt x="60" y="0" on="1"/>
        <pt x="60" y="624" on="1"/>
        <pt x="60" y="690" on="0"/>
        <pt x="126" y="690" on="1"/>
        <pt x="214" y="690" on="1"/>
        <pt x="241" y="690" on="0"/>
        <pt x="270" y="665" on="0"/>
        <pt x="287" y="635" on="1"/>
        <pt x="445" y="350" on="1"/>
        <pt x="470" y="305" on="0"/>
        <pt x="497" y="235" on="1"/>
        <pt x="505" y="235" on="1"/>
        <pt x="498" y="304" on="0"/>
        <pt x="497" y="356" on="1"/>
        <pt x="497" y="690" on="1"/>
      </contour>
    </TTGlyph>
    <TTGlyph name="Nacute" xMin="60" yMin="0" xMax="671" yMax="946">
      <contour>
        <pt x="572" y="827" on="1"/>
        <pt x="330" y="721" on="1"/>
        <pt x="279" y="797" on="1"/>
        <pt x="498" y="946" on="1"/>
      </contour>
      <contour>
        <pt x="671" y="690" on="1"/>
        <pt x="671" y="66" on="1"/>
        <pt x="671" y="0" on="0"/>
        <pt x="606" y="0" on="1"/>
        <pt x="517" y="0" on="1"/>
        <pt x="490" y="0" on="0"/>
        <pt x="460" y="25" on="0"/>
        <pt x="444" y="55" on="1"/>
        <pt x="280" y="351" on="1"/>
        <pt x="253" y="402" on="0"/>
        <pt x="235" y="464" on="1"/>
        <pt x="227" y="464" on="1"/>
        <pt x="235" y="402" on="0"/>
        <pt x="235" y="346" on="1"/>
        <pt x="235" y="0" on="1"/>
        <pt x="60" y="0" on="1"/>
        <pt x="60" y="624" on="1"/>
        <pt x="60" y="690" on="0"/>
        <pt x="126" y="690" on="1"/>
        <pt x="214" y="690" on="1"/>
        <pt x="241" y="690" on="0"/>
        <pt x="270" y="665" on="0"/>
        <pt x="287" y="635" on="1"/>
        <pt x="445" y="350" on="1"/>
        <pt x="470" y="305" on="0"/>
        <pt x="497" y="235" on="1"/>
        <pt x="505" y="235" on="1"/>
        <pt x="498" y="304" on="0"/>
        <pt x="497" y="356" on="1"/>
        <pt x="497" y="690" on="1"/>
      </contour>
    </TTGlyph>
    <TTGlyph name="Ncaron" xMin="60" yMin="0" xMax="671" yMax="937">
      <contour>
        <pt x="568" y="868" on="1"/>
        <pt x="409" y="737" on="1"/>
        <pt x="337" y="737" on="1"/>
        <pt x="178" y="868" on="1"/>
        <pt x="224" y="937" on="1"/>
        <pt x="369" y="859" on="1"/>
        <pt x="377" y="859" on="1"/>
        <pt x="523" y="937" on="1"/>
      </contour>
      <contour>
        <pt x="671" y="690" on="1"/>
        <pt x="671" y="66" on="1"/>
        <pt x="671" y="0" on="0"/>
        <pt x="606" y="0" on="1"/>
        <pt x="517" y="0" on="1"/>
        <pt x="490" y="0" on="0"/>
        <pt x="460" y="25" on="0"/>
        <pt x="444" y="55" on="1"/>
        <pt x="280" y="351" on="1"/>
        <pt x="253" y="402" on="0"/>
        <pt x="235" y="464" on="1"/>
        <pt x="227" y="464" on="1"/>
        <pt x="235" y="402" on="0"/>
        <pt x="235" y="346" on="1"/>
        <pt x="235" y="0" on="1"/>
        <pt x="60" y="0" on="1"/>
        <pt x="60" y="624" on="1"/>
        <pt x="60" y="690" on="0"/>
        <pt x="126" y="690" on="1"/>
        <pt x="214" y="690" on="1"/>
        <pt x="241" y="690" on="0"/>
        <pt x="270" y="665" on="0"/>
        <pt x="287" y="635" on="1"/>
        <pt x="445" y="350" on="1"/>
        <pt x="470" y="305" on="0"/>
        <pt x="497" y="235" on="1"/>
        <pt x="505" y="235" on="1"/>
        <pt x="498" y="304" on="0"/>
        <pt x="497" y="356" on="1"/>
        <pt x="497" y="690" on="1"/>
      </contour>
    </TTGlyph>
    <TTGlyph name="Ncommaaccent" xMin="60" yMin="-301" xMax="671" yMax="690">
      <contour>
        <pt x="671" y="690" on="1"/>
        <pt x="671" y="66" on="1"/>
        <pt x="671" y="0" on="0"/>
        <pt x="606" y="0" on="1"/>
        <pt x="517" y="0" on="1"/>
        <pt x="490" y="0" on="0"/>
        <pt x="460" y="25" on="0"/>
        <pt x="444" y="55" on="1"/>
        <pt x="280" y="351" on="1"/>
        <pt x="253" y="402" on="0"/>
        <pt x="235" y="464" on="1"/>
        <pt x="227" y="464" on="1"/>
        <pt x="235" y="402" on="0"/>
        <pt x="235" y="346" on="1"/>
        <pt x="235" y="0" on="1"/>
        <pt x="60" y="0" on="1"/>
        <pt x="60" y="624" on="1"/>
        <pt x="60" y="690" on="0"/>
        <pt x="126" y="690" on="1"/>
        <pt x="214" y="690" on="1"/>
        <pt x="241" y="690" on="0"/>
        <pt x="270" y="665" on="0"/>
        <pt x="287" y="635" on="1"/>
        <pt x="445" y="350" on="1"/>
        <pt x="470" y="305" on="0"/>
        <pt x="497" y="235" on="1"/>
        <pt x="505" y="235" on="1"/>
        <pt x="498" y="304" on="0"/>
        <pt x="497" y="356" on="1"/>
        <pt x="497" y="690" on="1"/>
      </contour>
      <contour>
        <pt x="352" y="-50" on="1"/>
        <pt x="387" y="-50" on="1"/>
        <pt x="419" y="-50" on="0"/>
        <pt x="443" y="-70" on="0"/>
        <pt x="444" y="-98" on="1"/>
        <pt x="444" y="-148" on="1"/>
        <pt x="443" y="-235" on="0"/>
        <pt x="389" y="-301" on="1"/>
        <pt x="325" y="-284" on="1"/>
        <pt x="339" y="-244" on="0"/>
        <pt x="341" y="-181" on="1"/>
        <pt x="295" y="-181" on="0"/>
        <pt x="293" y="-138" on="1"/>
        <pt x="295" y="-98" on="1"/>
        <pt x="296" y="-70" on="0"/>
        <pt x="320" y="-50" on="0"/>
      </contour>
    </TTGlyph>
    <TTGlyph name="Ntilde" xMin="60" yMin="0" xMax="671" yMax="910">
      <contour>
        <pt x="266" y="754" on="1"/>
        <pt x="190" y="754" on="1"/>
        <pt x="177" y="831" on="0"/>
        <pt x="230" y="913" on="0"/>
        <pt x="273" y="910" on="1"/>
        <pt x="311" y="907" on="0"/>
        <pt x="418" y="869" on="0"/>
        <pt x="438" y="865" on="1"/>
        <pt x="460" y="861" on="0"/>
        <pt x="471" y="878" on="0"/>
        <pt x="471" y="905" on="1"/>
        <pt x="547" y="905" on="1"/>
        <pt x="560" y="830" on="0"/>
        <pt x="511" y="746" on="0"/>
        <pt x="464" y="749" on="1"/>
        <pt x="425" y="752" on="0"/>
        <pt x="314" y="792" on="0"/>
        <pt x="298" y="795" on="1"/>
        <pt x="276" y="798" on="0"/>
        <pt x="266" y="782" on="0"/>
      </contour>
      <contour>
        <pt x="671" y="690" on="1"/>
        <pt x="671" y="66" on="1"/>
        <pt x="671" y="0" on="0"/>
        <pt x="606" y="0" on="1"/>
        <pt x="517" y="0" on="1"/>
        <pt x="490" y="0" on="0"/>
        <pt x="460" y="25" on="0"/>
        <pt x="444" y="55" on="1"/>
        <pt x="280" y="351" on="1"/>
        <pt x="253" y="402" on="0"/>
        <pt x="235" y="464" on="1"/>
        <pt x="227" y="464" on="1"/>
        <pt x="235" y="402" on="0"/>
        <pt x="235" y="346" on="1"/>
        <pt x="235" y="0" on="1"/>
        <pt x="60" y="0" on="1"/>
        <pt x="60" y="624" on="1"/>
        <pt x="60" y="690" on="0"/>
        <pt x="126" y="690" on="1"/>
        <pt x="214" y="690" on="1"/>
        <pt x="241" y="690" on="0"/>
        <pt x="270" y="665" on="0"/>
        <pt x="287" y="635" on="1"/>
        <pt x="445" y="350" on="1"/>
        <pt x="470" y="305" on="0"/>
        <pt x="497" y="235" on="1"/>
        <pt x="505" y="235" on="1"/>
        <pt x="498" y="304" on="0"/>
        <pt x="497" y="356" on="1"/>
        <pt x="497" y="690" on="1"/>
      </contour>
    </TTGlyph>
    <TTGlyph name="O" xMin="39" yMin="-14" xMax="658" yMax="704">
      <contour>
        <pt x="348" y="704" on="1"/>
        <pt x="466" y="704" on="0"/>
        <pt x="596" y="641" on="0"/>
        <pt x="658" y="486" on="0"/>
        <pt x="658" y="204" on="0"/>
        <pt x="596" y="49" on="0"/>
        <pt x="466" y="-14" on="0"/>
        <pt x="348" y="-14" on="1"/>
        <pt x="174" y="-14" on="0"/>
        <pt x="39" y="137" on="0"/>
        <pt x="39" y="553" on="0"/>
        <pt x="174" y="704" on="0"/>
      </contour>
      <contour>
        <pt x="414" y="560" on="0"/>
        <pt x="282" y="560" on="0"/>
        <pt x="236" y="472" on="0"/>
        <pt x="236" y="218" on="0"/>
        <pt x="282" y="130" on="0"/>
        <pt x="414" y="130" on="0"/>
        <pt x="460" y="218" on="0"/>
        <pt x="460" y="472" on="0"/>
      </contour>
    </TTGlyph>
    <TTGlyph name="OE" xMin="39" yMin="-14" xMax="932" yMax="704">
      <contour>
        <pt x="923" y="143" on="1"/>
        <pt x="932" y="8" on="1"/>
        <pt x="836" y="-3" on="0"/>
        <pt x="593" y="-3" on="1"/>
        <pt x="547" y="-3" on="0"/>
        <pt x="512" y="19" on="1"/>
        <pt x="442" y="-14" on="0"/>
        <pt x="345" y="-14" on="1"/>
        <pt x="229" y="-14" on="0"/>
        <pt x="100" y="49" on="0"/>
        <pt x="39" y="204" on="0"/>
        <pt x="39" y="486" on="0"/>
        <pt x="100" y="641" on="0"/>
        <pt x="229" y="704" on="0"/>
        <pt x="345" y="704" on="1"/>
        <pt x="445" y="704" on="0"/>
        <pt x="522" y="676" on="1"/>
        <pt x="556" y="693" on="0"/>
        <pt x="596" y="693" on="1"/>
        <pt x="837" y="693" on="0"/>
        <pt x="932" y="682" on="1"/>
        <pt x="923" y="547" on="1"/>
        <pt x="679" y="547" on="1"/>
        <pt x="634" y="547" on="0"/>
        <pt x="634" y="504" on="1"/>
        <pt x="634" y="417" on="1"/>
        <pt x="888" y="417" on="1"/>
        <pt x="888" y="295" on="1"/>
        <pt x="634" y="295" on="1"/>
        <pt x="634" y="186" on="1"/>
        <pt x="634" y="143" on="0"/>
        <pt x="679" y="143" on="1"/>
      </contour>
      <contour>
        <pt x="445" y="541" on="1"/>
        <pt x="446" y="550" on="1"/>
        <pt x="404" y="560" on="0"/>
        <pt x="345" y="560" on="1"/>
        <pt x="281" y="560" on="0"/>
        <pt x="237" y="473" on="0"/>
        <pt x="237" y="345" on="1"/>
        <pt x="237" y="218" on="0"/>
        <pt x="281" y="130" on="0"/>
        <pt x="345" y="130" on="1"/>
        <pt x="407" y="130" on="0"/>
        <pt x="446" y="141" on="1"/>
        <pt x="445" y="149" on="1"/>
      </contour>
    </TTGlyph>
    <TTGlyph name="Oacute" xMin="39" yMin="-14" xMax="658" yMax="946">
      <contour>
        <pt x="546" y="827" on="1"/>
        <pt x="305" y="721" on="1"/>
        <pt x="254" y="797" on="1"/>
        <pt x="473" y="946" on="1"/>
      </contour>
      <contour>
        <pt x="348" y="704" on="1"/>
        <pt x="466" y="704" on="0"/>
        <pt x="596" y="641" on="0"/>
        <pt x="658" y="486" on="0"/>
        <pt x="658" y="204" on="0"/>
        <pt x="596" y="49" on="0"/>
        <pt x="466" y="-14" on="0"/>
        <pt x="348" y="-14" on="1"/>
        <pt x="174" y="-14" on="0"/>
        <pt x="39" y="137" on="0"/>
        <pt x="39" y="553" on="0"/>
        <pt x="174" y="704" on="0"/>
      </contour>
      <contour>
        <pt x="414" y="560" on="0"/>
        <pt x="282" y="560" on="0"/>
        <pt x="236" y="472" on="0"/>
        <pt x="236" y="218" on="0"/>
        <pt x="282" y="130" on="0"/>
        <pt x="414" y="130" on="0"/>
        <pt x="460" y="218" on="0"/>
        <pt x="460" y="472" on="0"/>
      </contour>
    </TTGlyph>
    <TTGlyph name="Ocircumflex" xMin="39" yMin="-14" xMax="658" yMax="915">
      <contour>
        <pt x="548" y="777" on="1"/>
        <pt x="503" y="714" on="1"/>
        <pt x="352" y="808" on="1"/>
        <pt x="344" y="808" on="1"/>
        <pt x="191" y="714" on="1"/>
        <pt x="145" y="783" on="1"/>
        <pt x="283" y="915" on="1"/>
        <pt x="414" y="915" on="1"/>
      </contour>
      <contour>
        <pt x="348" y="704" on="1"/>
        <pt x="466" y="704" on="0"/>
        <pt x="596" y="641" on="0"/>
        <pt x="658" y="486" on="0"/>
        <pt x="658" y="204" on="0"/>
        <pt x="596" y="49" on="0"/>
        <pt x="466" y="-14" on="0"/>
        <pt x="348" y="-14" on="1"/>
        <pt x="174" y="-14" on="0"/>
        <pt x="39" y="137" on="0"/>
        <pt x="39" y="553" on="0"/>
        <pt x="174" y="704" on="0"/>
      </contour>
      <contour>
        <pt x="414" y="560" on="0"/>
        <pt x="282" y="560" on="0"/>
        <pt x="236" y="472" on="0"/>
        <pt x="236" y="218" on="0"/>
        <pt x="282" y="130" on="0"/>
        <pt x="414" y="130" on="0"/>
        <pt x="460" y="218" on="0"/>
        <pt x="460" y="472" on="0"/>
      </contour>
    </TTGlyph>
    <TTGlyph name="Odieresis" xMin="39" yMin="-14" xMax="658" yMax="896">
      <contour>
        <pt x="223" y="896" on="1"/>
        <pt x="283" y="896" on="1"/>
        <pt x="319" y="896" on="0"/>
        <pt x="319" y="860" on="1"/>
        <pt x="319" y="799" on="1"/>
        <pt x="319" y="763" on="0"/>
        <pt x="283" y="763" on="1"/>
        <pt x="223" y="763" on="1"/>
        <pt x="187" y="763" on="0"/>
        <pt x="187" y="799" on="1"/>
        <pt x="187" y="860" on="1"/>
        <pt x="187" y="896" on="0"/>
      </contour>
      <contour>
        <pt x="409" y="896" on="1"/>
        <pt x="469" y="896" on="1"/>
        <pt x="505" y="896" on="0"/>
        <pt x="505" y="860" on="1"/>
        <pt x="505" y="799" on="1"/>
        <pt x="505" y="763" on="0"/>
        <pt x="469" y="763" on="1"/>
        <pt x="409" y="763" on="1"/>
        <pt x="373" y="763" on="0"/>
        <pt x="373" y="799" on="1"/>
        <pt x="373" y="860" on="1"/>
        <pt x="373" y="896" on="0"/>
      </contour>
      <contour>
        <pt x="348" y="704" on="1"/>
        <pt x="466" y="704" on="0"/>
        <pt x="596" y="641" on="0"/>
        <pt x="658" y="486" on="0"/>
        <pt x="658" y="204" on="0"/>
        <pt x="596" y="49" on="0"/>
        <pt x="466" y="-14" on="0"/>
        <pt x="348" y="-14" on="1"/>
        <pt x="174" y="-14" on="0"/>
        <pt x="39" y="137" on="0"/>
        <pt x="39" y="553" on="0"/>
        <pt x="174" y="704" on="0"/>
      </contour>
      <contour>
        <pt x="414" y="560" on="0"/>
        <pt x="282" y="560" on="0"/>
        <pt x="236" y="472" on="0"/>
        <pt x="236" y="218" on="0"/>
        <pt x="282" y="130" on="0"/>
        <pt x="414" y="130" on="0"/>
        <pt x="460" y="218" on="0"/>
        <pt x="460" y="472" on="0"/>
      </contour>
    </TTGlyph>
    <TTGlyph name="Ograve" xMin="39" yMin="-14" xMax="658" yMax="946">
      <contour>
        <pt x="435" y="797" on="1"/>
        <pt x="384" y="721" on="1"/>
        <pt x="143" y="827" on="1"/>
        <pt x="216" y="946" on="1"/>
      </contour>
      <contour>
        <pt x="348" y="704" on="1"/>
        <pt x="466" y="704" on="0"/>
        <pt x="596" y="641" on="0"/>
        <pt x="658" y="486" on="0"/>
        <pt x="658" y="204" on="0"/>
        <pt x="596" y="49" on="0"/>
        <pt x="466" y="-14" on="0"/>
        <pt x="348" y="-14" on="1"/>
        <pt x="174" y="-14" on="0"/>
        <pt x="39" y="137" on="0"/>
        <pt x="39" y="553" on="0"/>
        <pt x="174" y="704" on="0"/>
      </contour>
      <contour>
        <pt x="414" y="560" on="0"/>
        <pt x="282" y="560" on="0"/>
        <pt x="236" y="472" on="0"/>
        <pt x="236" y="218" on="0"/>
        <pt x="282" y="130" on="0"/>
        <pt x="414" y="130" on="0"/>
        <pt x="460" y="218" on="0"/>
        <pt x="460" y="472" on="0"/>
      </contour>
    </TTGlyph>
    <TTGlyph name="Ohungarumlaut" xMin="39" yMin="-14" xMax="658" yMax="958">
      <contour>
        <pt x="395" y="883" on="1"/>
        <pt x="234" y="711" on="1"/>
        <pt x="161" y="769" on="1"/>
        <pt x="280" y="958" on="1"/>
      </contour>
      <contour>
        <pt x="598" y="883" on="1"/>
        <pt x="436" y="711" on="1"/>
        <pt x="365" y="768" on="1"/>
        <pt x="484" y="958" on="1"/>
      </contour>
      <contour>
        <pt x="348" y="704" on="1"/>
        <pt x="466" y="704" on="0"/>
        <pt x="596" y="641" on="0"/>
        <pt x="658" y="486" on="0"/>
        <pt x="658" y="204" on="0"/>
        <pt x="596" y="49" on="0"/>
        <pt x="466" y="-14" on="0"/>
        <pt x="348" y="-14" on="1"/>
        <pt x="174" y="-14" on="0"/>
        <pt x="39" y="137" on="0"/>
        <pt x="39" y="553" on="0"/>
        <pt x="174" y="704" on="0"/>
      </contour>
      <contour>
        <pt x="414" y="560" on="0"/>
        <pt x="282" y="560" on="0"/>
        <pt x="236" y="472" on="0"/>
        <pt x="236" y="218" on="0"/>
        <pt x="282" y="130" on="0"/>
        <pt x="414" y="130" on="0"/>
        <pt x="460" y="218" on="0"/>
        <pt x="460" y="472" on="0"/>
      </contour>
    </TTGlyph>
    <TTGlyph name="Omacron" xMin="39" yMin="-14" xMax="658" yMax="885">
      <contour>
        <pt x="504" y="774" on="1"/>
        <pt x="193" y="774" on="1"/>
        <pt x="193" y="885" on="1"/>
        <pt x="504" y="885" on="1"/>
      </contour>
      <contour>
        <pt x="348" y="704" on="1"/>
        <pt x="466" y="704" on="0"/>
        <pt x="596" y="641" on="0"/>
        <pt x="658" y="486" on="0"/>
        <pt x="658" y="204" on="0"/>
        <pt x="596" y="49" on="0"/>
        <pt x="466" y="-14" on="0"/>
        <pt x="348" y="-14" on="1"/>
        <pt x="174" y="-14" on="0"/>
        <pt x="39" y="137" on="0"/>
        <pt x="39" y="553" on="0"/>
        <pt x="174" y="704" on="0"/>
      </contour>
      <contour>
        <pt x="414" y="560" on="0"/>
        <pt x="282" y="560" on="0"/>
        <pt x="236" y="472" on="0"/>
        <pt x="236" y="218" on="0"/>
        <pt x="282" y="130" on="0"/>
        <pt x="414" y="130" on="0"/>
        <pt x="460" y="218" on="0"/>
        <pt x="460" y="472" on="0"/>
      </contour>
    </TTGlyph>
    <TTGlyph name="Omega" xMin="40" yMin="0" xMax="680" yMax="704">
      <contour>
        <pt x="40" y="144" on="1"/>
        <pt x="115" y="144" on="1"/>
        <pt x="154" y="144" on="0"/>
        <pt x="188" y="127" on="1"/>
        <pt x="112" y="189" on="0"/>
        <pt x="50" y="306" on="0"/>
        <pt x="51" y="398" on="1"/>
        <pt x="51" y="555" on="0"/>
        <pt x="195" y="704" on="0"/>
        <pt x="361" y="704" on="1"/>
        <pt x="526" y="704" on="0"/>
        <pt x="669" y="554" on="0"/>
        <pt x="669" y="394" on="1"/>
        <pt x="669" y="301" on="0"/>
        <pt x="608" y="185" on="0"/>
        <pt x="532" y="127" on="1"/>
        <pt x="572" y="144" on="0"/>
        <pt x="604" y="144" on="1"/>
        <pt x="680" y="144" on="1"/>
        <pt x="680" y="0" on="1"/>
        <pt x="387" y="0" on="1"/>
        <pt x="387" y="136" on="1"/>
        <pt x="437" y="180" on="0"/>
        <pt x="474" y="281" on="0"/>
        <pt x="474" y="370" on="1"/>
        <pt x="474" y="483" on="0"/>
        <pt x="426" y="561" on="0"/>
        <pt x="360" y="561" on="1"/>
        <pt x="292" y="561" on="0"/>
        <pt x="246" y="483" on="0"/>
        <pt x="246" y="368" on="1"/>
        <pt x="246" y="276" on="0"/>
        <pt x="283" y="184" on="0"/>
        <pt x="332" y="136" on="1"/>
        <pt x="332" y="0" on="1"/>
        <pt x="40" y="0" on="1"/>
      </contour>
    </TTGlyph>
    <TTGlyph name="Oslash" xMin="39" yMin="-114" xMax="658" yMax="800">
      <contour>
        <pt x="616" y="734" on="1"/>
        <pt x="575" y="644" on="1"/>
        <pt x="619" y="605" on="0"/>
        <pt x="658" y="461" on="0"/>
        <pt x="658" y="345" on="1"/>
        <pt x="658" y="204" on="0"/>
        <pt x="596" y="49" on="0"/>
        <pt x="466" y="-14" on="0"/>
        <pt x="348" y="-14" on="1"/>
        <pt x="308" y="-14" on="0"/>
        <pt x="266" y="-9" on="1"/>
        <pt x="217" y="-114" on="1"/>
        <pt x="77" y="-47" on="1"/>
        <pt x="121" y="47" on="1"/>
        <pt x="39" y="122" on="0"/>
        <pt x="39" y="345" on="1"/>
        <pt x="39" y="553" on="0"/>
        <pt x="174" y="704" on="0"/>
        <pt x="348" y="704" on="1"/>
        <pt x="380" y="704" on="0"/>
        <pt x="430" y="700" on="1"/>
        <pt x="476" y="800" on="1"/>
      </contour>
      <contour>
        <pt x="282" y="130" on="0"/>
        <pt x="414" y="130" on="0"/>
        <pt x="460" y="218" on="0"/>
        <pt x="460" y="472" on="0"/>
        <pt x="414" y="560" on="0"/>
        <pt x="282" y="560" on="0"/>
        <pt x="236" y="472" on="0"/>
        <pt x="236" y="218" on="0"/>
      </contour>
    </TTGlyph>
    <TTGlyph name="Otilde" xMin="39" yMin="-14" xMax="658" yMax="910">
      <contour>
        <pt x="241" y="754" on="1"/>
        <pt x="164" y="754" on="1"/>
        <pt x="151" y="831" on="0"/>
        <pt x="205" y="913" on="0"/>
        <pt x="248" y="910" on="1"/>
        <pt x="285" y="907" on="0"/>
        <pt x="393" y="869" on="0"/>
        <pt x="412" y="865" on="1"/>
        <pt x="434" y="861" on="0"/>
        <pt x="446" y="878" on="0"/>
        <pt x="446" y="905" on="1"/>
        <pt x="522" y="905" on="1"/>
        <pt x="535" y="830" on="0"/>
        <pt x="486" y="746" on="0"/>
        <pt x="439" y="749" on="1"/>
        <pt x="400" y="752" on="0"/>
        <pt x="289" y="792" on="0"/>
        <pt x="273" y="795" on="1"/>
        <pt x="264" y="799" on="0"/>
        <pt x="251" y="793" on="0"/>
        <pt x="245" y="792" on="0"/>
        <pt x="242" y="776" on="0"/>
        <pt x="241" y="766" on="0"/>
      </contour>
      <contour>
        <pt x="348" y="704" on="1"/>
        <pt x="466" y="704" on="0"/>
        <pt x="596" y="641" on="0"/>
        <pt x="658" y="486" on="0"/>
        <pt x="658" y="204" on="0"/>
        <pt x="596" y="49" on="0"/>
        <pt x="466" y="-14" on="0"/>
        <pt x="348" y="-14" on="1"/>
        <pt x="174" y="-14" on="0"/>
        <pt x="39" y="137" on="0"/>
        <pt x="39" y="553" on="0"/>
        <pt x="174" y="704" on="0"/>
      </contour>
      <contour>
        <pt x="414" y="560" on="0"/>
        <pt x="282" y="560" on="0"/>
        <pt x="236" y="472" on="0"/>
        <pt x="236" y="218" on="0"/>
        <pt x="282" y="130" on="0"/>
        <pt x="414" y="130" on="0"/>
        <pt x="460" y="218" on="0"/>
        <pt x="460" y="472" on="0"/>
      </contour>
    </TTGlyph>
    <TTGlyph name="P" xMin="60" yMin="0" xMax="609" yMax="700">
      <contour>
        <pt x="60" y="0" on="1"/>
        <pt x="60" y="690" on="1"/>
        <pt x="158" y="700" on="0"/>
        <pt x="338" y="700" on="1"/>
        <pt x="494" y="700" on="0"/>
        <pt x="609" y="604" on="0"/>
        <pt x="609" y="469" on="1"/>
        <pt x="609" y="336" on="0"/>
        <pt x="502" y="239" on="0"/>
        <pt x="364" y="239" on="1"/>
        <pt x="313" y="239" on="0"/>
        <pt x="248" y="246" on="1"/>
        <pt x="248" y="0" on="1"/>
      </contour>
      <contour>
        <pt x="248" y="376" on="1"/>
        <pt x="334" y="376" on="1"/>
        <pt x="385" y="376" on="0"/>
        <pt x="421" y="414" on="0"/>
        <pt x="421" y="469" on="1"/>
        <pt x="421" y="525" on="0"/>
        <pt x="385" y="563" on="0"/>
        <pt x="334" y="563" on="1"/>
        <pt x="248" y="563" on="1"/>
      </contour>
    </TTGlyph>
    <TTGlyph name="Q" xMin="39" yMin="-259" xMax="658" yMax="704">
      <contour>
        <pt x="348" y="704" on="1"/>
        <pt x="523" y="704" on="0"/>
        <pt x="658" y="553" on="0"/>
        <pt x="658" y="137" on="0"/>
        <pt x="523" y="-14" on="0"/>
        <pt x="348" y="-14" on="1"/>
        <pt x="260" y="-14" on="0"/>
        <pt x="147" y="19" on="0"/>
        <pt x="71" y="102" on="0"/>
        <pt x="39" y="239" on="0"/>
        <pt x="39" y="451" on="0"/>
        <pt x="71" y="588" on="0"/>
        <pt x="147" y="671" on="0"/>
        <pt x="260" y="704" on="0"/>
      </contour>
      <contour>
        <pt x="414" y="560" on="0"/>
        <pt x="282" y="560" on="0"/>
        <pt x="236" y="472" on="0"/>
        <pt x="236" y="218" on="0"/>
        <pt x="282" y="130" on="0"/>
        <pt x="414" y="130" on="0"/>
        <pt x="460" y="218" on="0"/>
        <pt x="460" y="472" on="0"/>
      </contour>
      <contour>
        <pt x="252" y="-123" on="1"/>
        <pt x="293" y="-30" on="1"/>
        <pt x="411" y="-73" on="0"/>
        <pt x="609" y="-101" on="1"/>
        <pt x="561" y="-259" on="1"/>
        <pt x="384" y="-211" on="0"/>
      </contour>
    </TTGlyph>
    <TTGlyph name="R" xMin="60" yMin="0" xMax="641" yMax="700">
      <contour>
        <pt x="641" y="0" on="1"/>
        <pt x="444" y="0" on="1"/>
        <pt x="395" y="208" on="1"/>
        <pt x="388" y="238" on="0"/>
        <pt x="359" y="260" on="0"/>
        <pt x="330" y="260" on="1"/>
        <pt x="245" y="260" on="1"/>
        <pt x="245" y="0" on="1"/>
        <pt x="60" y="0" on="1"/>
        <pt x="60" y="690" on="1"/>
        <pt x="158" y="700" on="0"/>
        <pt x="339" y="700" on="1"/>
        <pt x="488" y="700" on="0"/>
        <pt x="614" y="609" on="0"/>
        <pt x="614" y="492" on="1"/>
        <pt x="614" y="340" on="0"/>
        <pt x="478" y="325" on="1"/>
        <pt x="478" y="319" on="1"/>
        <pt x="565" y="305" on="0"/>
        <pt x="584" y="213" on="1"/>
      </contour>
      <contour>
        <pt x="245" y="397" on="1"/>
        <pt x="335" y="397" on="1"/>
        <pt x="388" y="397" on="0"/>
        <pt x="425" y="431" on="0"/>
        <pt x="425" y="529" on="0"/>
        <pt x="388" y="563" on="0"/>
        <pt x="335" y="563" on="1"/>
        <pt x="245" y="563" on="1"/>
      </contour>
    </TTGlyph>
    <TTGlyph name="Racute" xMin="60" yMin="0" xMax="641" yMax="946">
      <contour>
        <pt x="286" y="721" on="1"/>
        <pt x="235" y="797" on="1"/>
        <pt x="454" y="946" on="1"/>
        <pt x="528" y="827" on="1"/>
      </contour>
      <contour>
        <pt x="641" y="0" on="1"/>
        <pt x="444" y="0" on="1"/>
        <pt x="395" y="208" on="1"/>
        <pt x="388" y="238" on="0"/>
        <pt x="359" y="260" on="0"/>
        <pt x="330" y="260" on="1"/>
        <pt x="245" y="260" on="1"/>
        <pt x="245" y="0" on="1"/>
        <pt x="60" y="0" on="1"/>
        <pt x="60" y="690" on="1"/>
        <pt x="158" y="700" on="0"/>
        <pt x="339" y="700" on="1"/>
        <pt x="488" y="700" on="0"/>
        <pt x="614" y="609" on="0"/>
        <pt x="614" y="492" on="1"/>
        <pt x="614" y="340" on="0"/>
        <pt x="478" y="325" on="1"/>
        <pt x="478" y="319" on="1"/>
        <pt x="565" y="305" on="0"/>
        <pt x="584" y="213" on="1"/>
      </contour>
      <contour>
        <pt x="245" y="397" on="1"/>
        <pt x="335" y="397" on="1"/>
        <pt x="388" y="397" on="0"/>
        <pt x="425" y="431" on="0"/>
        <pt x="425" y="529" on="0"/>
        <pt x="388" y="563" on="0"/>
        <pt x="335" y="563" on="1"/>
        <pt x="245" y="563" on="1"/>
      </contour>
    </TTGlyph>
    <TTGlyph name="Rcaron" xMin="60" yMin="0" xMax="641" yMax="937">
      <contour>
        <pt x="293" y="737" on="1"/>
        <pt x="134" y="868" on="1"/>
        <pt x="180" y="937" on="1"/>
        <pt x="325" y="859" on="1"/>
        <pt x="333" y="859" on="1"/>
        <pt x="479" y="937" on="1"/>
        <pt x="524" y="868" on="1"/>
        <pt x="366" y="737" on="1"/>
      </contour>
      <contour>
        <pt x="641" y="0" on="1"/>
        <pt x="444" y="0" on="1"/>
        <pt x="395" y="208" on="1"/>
        <pt x="388" y="238" on="0"/>
        <pt x="359" y="260" on="0"/>
        <pt x="330" y="260" on="1"/>
        <pt x="245" y="260" on="1"/>
        <pt x="245" y="0" on="1"/>
        <pt x="60" y="0" on="1"/>
        <pt x="60" y="690" on="1"/>
        <pt x="158" y="700" on="0"/>
        <pt x="339" y="700" on="1"/>
        <pt x="488" y="700" on="0"/>
        <pt x="614" y="609" on="0"/>
        <pt x="614" y="492" on="1"/>
        <pt x="614" y="340" on="0"/>
        <pt x="478" y="325" on="1"/>
        <pt x="478" y="319" on="1"/>
        <pt x="565" y="305" on="0"/>
        <pt x="584" y="213" on="1"/>
      </contour>
      <contour>
        <pt x="245" y="397" on="1"/>
        <pt x="335" y="397" on="1"/>
        <pt x="388" y="397" on="0"/>
        <pt x="425" y="431" on="0"/>
        <pt x="425" y="529" on="0"/>
        <pt x="388" y="563" on="0"/>
        <pt x="335" y="563" on="1"/>
        <pt x="245" y="563" on="1"/>
      </contour>
    </TTGlyph>
    <TTGlyph name="Rcommaaccent" xMin="60" yMin="-301" xMax="641" yMax="700">
      <contour>
        <pt x="641" y="0" on="1"/>
        <pt x="444" y="0" on="1"/>
        <pt x="395" y="208" on="1"/>
        <pt x="388" y="238" on="0"/>
        <pt x="359" y="260" on="0"/>
        <pt x="330" y="260" on="1"/>
        <pt x="245" y="260" on="1"/>
        <pt x="245" y="0" on="1"/>
        <pt x="60" y="0" on="1"/>
        <pt x="60" y="690" on="1"/>
        <pt x="158" y="700" on="0"/>
        <pt x="339" y="700" on="1"/>
        <pt x="488" y="700" on="0"/>
        <pt x="614" y="609" on="0"/>
        <pt x="614" y="492" on="1"/>
        <pt x="614" y="340" on="0"/>
        <pt x="478" y="325" on="1"/>
        <pt x="478" y="319" on="1"/>
        <pt x="565" y="305" on="0"/>
        <pt x="584" y="213" on="1"/>
      </contour>
      <contour>
        <pt x="245" y="397" on="1"/>
        <pt x="335" y="397" on="1"/>
        <pt x="388" y="397" on="0"/>
        <pt x="425" y="431" on="0"/>
        <pt x="425" y="529" on="0"/>
        <pt x="388" y="563" on="0"/>
        <pt x="335" y="563" on="1"/>
        <pt x="245" y="563" on="1"/>
      </contour>
      <contour>
        <pt x="325" y="-50" on="1"/>
        <pt x="359" y="-50" on="1"/>
        <pt x="391" y="-50" on="0"/>
        <pt x="416" y="-71" on="0"/>
        <pt x="416" y="-98" on="1"/>
        <pt x="416" y="-148" on="1"/>
        <pt x="416" y="-198" on="0"/>
        <pt x="390" y="-267" on="0"/>
        <pt x="362" y="-301" on="1"/>
        <pt x="298" y="-284" on="1"/>
        <pt x="313" y="-241" on="0"/>
        <pt x="313" y="-181" on="1"/>
        <pt x="266" y="-181" on="0"/>
        <pt x="266" y="-138" on="1"/>
        <pt x="268" y="-98" on="1"/>
        <pt x="269" y="-70" on="0"/>
        <pt x="293" y="-50" on="0"/>
      </contour>
    </TTGlyph>
    <TTGlyph name="S" xMin="36" yMin="-13" xMax="566" yMax="703">
      <contour>
        <pt x="323" y="246" on="1"/>
        <pt x="185" y="301" on="1"/>
        <pt x="104" y="334" on="0"/>
        <pt x="36" y="429" on="0"/>
        <pt x="36" y="506" on="1"/>
        <pt x="36" y="622" on="0"/>
        <pt x="154" y="703" on="0"/>
        <pt x="305" y="703" on="1"/>
        <pt x="450" y="703" on="0"/>
        <pt x="545" y="672" on="1"/>
        <pt x="533" y="549" on="1"/>
        <pt x="356" y="552" on="0"/>
        <pt x="303" y="552" on="1"/>
        <pt x="255" y="552" on="0"/>
        <pt x="222" y="536" on="0"/>
        <pt x="222" y="509" on="1"/>
        <pt x="222" y="486" on="0"/>
        <pt x="250" y="461" on="0"/>
        <pt x="288" y="448" on="1"/>
        <pt x="415" y="399" on="1"/>
        <pt x="498" y="366" on="0"/>
        <pt x="566" y="270" on="0"/>
        <pt x="566" y="192" on="1"/>
        <pt x="566" y="75" on="0"/>
        <pt x="449" y="-13" on="0"/>
        <pt x="296" y="-13" on="1"/>
        <pt x="164" y="-13" on="0"/>
        <pt x="43" y="17" on="1"/>
        <pt x="54" y="150" on="1"/>
        <pt x="259" y="145" on="0"/>
        <pt x="295" y="145" on="1"/>
        <pt x="345" y="145" on="0"/>
        <pt x="378" y="162" on="0"/>
        <pt x="378" y="188" on="1"/>
        <pt x="378" y="212" on="0"/>
        <pt x="355" y="234" on="0"/>
      </contour>
    </TTGlyph>
    <TTGlyph name="Sacute" xMin="36" yMin="-13" xMax="566" yMax="946">
      <contour>
        <pt x="503" y="827" on="1"/>
        <pt x="261" y="721" on="1"/>
        <pt x="210" y="797" on="1"/>
        <pt x="429" y="946" on="1"/>
      </contour>
      <contour>
        <pt x="323" y="246" on="1"/>
        <pt x="185" y="301" on="1"/>
        <pt x="104" y="334" on="0"/>
        <pt x="36" y="429" on="0"/>
        <pt x="36" y="506" on="1"/>
        <pt x="36" y="622" on="0"/>
        <pt x="154" y="703" on="0"/>
        <pt x="305" y="703" on="1"/>
        <pt x="450" y="703" on="0"/>
        <pt x="545" y="672" on="1"/>
        <pt x="533" y="549" on="1"/>
        <pt x="356" y="552" on="0"/>
        <pt x="303" y="552" on="1"/>
        <pt x="255" y="552" on="0"/>
        <pt x="222" y="536" on="0"/>
        <pt x="222" y="509" on="1"/>
        <pt x="222" y="486" on="0"/>
        <pt x="250" y="461" on="0"/>
        <pt x="288" y="448" on="1"/>
        <pt x="415" y="399" on="1"/>
        <pt x="498" y="366" on="0"/>
        <pt x="566" y="270" on="0"/>
        <pt x="566" y="192" on="1"/>
        <pt x="566" y="75" on="0"/>
        <pt x="449" y="-13" on="0"/>
        <pt x="296" y="-13" on="1"/>
        <pt x="164" y="-13" on="0"/>
        <pt x="43" y="17" on="1"/>
        <pt x="54" y="150" on="1"/>
        <pt x="259" y="145" on="0"/>
        <pt x="295" y="145" on="1"/>
        <pt x="345" y="145" on="0"/>
        <pt x="378" y="162" on="0"/>
        <pt x="378" y="188" on="1"/>
        <pt x="378" y="212" on="0"/>
        <pt x="355" y="234" on="0"/>
      </contour>
    </TTGlyph>
    <TTGlyph name="Scaron" xMin="36" yMin="-13" xMax="566" yMax="937">
      <contour>
        <pt x="499" y="868" on="1"/>
        <pt x="341" y="737" on="1"/>
        <pt x="268" y="737" on="1"/>
        <pt x="109" y="868" on="1"/>
        <pt x="155" y="937" on="1"/>
        <pt x="300" y="859" on="1"/>
        <pt x="308" y="859" on="1"/>
        <pt x="454" y="937" on="1"/>
      </contour>
      <contour>
        <pt x="323" y="246" on="1"/>
        <pt x="185" y="301" on="1"/>
        <pt x="104" y="334" on="0"/>
        <pt x="36" y="429" on="0"/>
        <pt x="36" y="506" on="1"/>
        <pt x="36" y="622" on="0"/>
        <pt x="154" y="703" on="0"/>
        <pt x="305" y="703" on="1"/>
        <pt x="450" y="703" on="0"/>
        <pt x="545" y="672" on="1"/>
        <pt x="533" y="549" on="1"/>
        <pt x="356" y="552" on="0"/>
        <pt x="303" y="552" on="1"/>
        <pt x="255" y="552" on="0"/>
        <pt x="222" y="536" on="0"/>
        <pt x="222" y="509" on="1"/>
        <pt x="222" y="486" on="0"/>
        <pt x="250" y="461" on="0"/>
        <pt x="288" y="448" on="1"/>
        <pt x="415" y="399" on="1"/>
        <pt x="498" y="366" on="0"/>
        <pt x="566" y="270" on="0"/>
        <pt x="566" y="192" on="1"/>
        <pt x="566" y="75" on="0"/>
        <pt x="449" y="-13" on="0"/>
        <pt x="296" y="-13" on="1"/>
        <pt x="164" y="-13" on="0"/>
        <pt x="43" y="17" on="1"/>
        <pt x="54" y="150" on="1"/>
        <pt x="259" y="145" on="0"/>
        <pt x="295" y="145" on="1"/>
        <pt x="345" y="145" on="0"/>
        <pt x="378" y="162" on="0"/>
        <pt x="378" y="188" on="1"/>
        <pt x="378" y="212" on="0"/>
        <pt x="355" y="234" on="0"/>
      </contour>
    </TTGlyph>
    <TTGlyph name="Scedilla" xMin="36" yMin="-270" xMax="566" yMax="703">
      <contour>
        <pt x="323" y="246" on="1"/>
        <pt x="185" y="301" on="1"/>
        <pt x="104" y="334" on="0"/>
        <pt x="36" y="429" on="0"/>
        <pt x="36" y="506" on="1"/>
        <pt x="36" y="622" on="0"/>
        <pt x="154" y="703" on="0"/>
        <pt x="305" y="703" on="1"/>
        <pt x="450" y="703" on="0"/>
        <pt x="545" y="672" on="1"/>
        <pt x="533" y="549" on="1"/>
        <pt x="356" y="552" on="0"/>
        <pt x="303" y="552" on="1"/>
        <pt x="255" y="552" on="0"/>
        <pt x="222" y="536" on="0"/>
        <pt x="222" y="509" on="1"/>
        <pt x="222" y="486" on="0"/>
        <pt x="250" y="461" on="0"/>
        <pt x="288" y="448" on="1"/>
        <pt x="415" y="399" on="1"/>
        <pt x="498" y="366" on="0"/>
        <pt x="566" y="270" on="0"/>
        <pt x="566" y="192" on="1"/>
        <pt x="566" y="75" on="0"/>
        <pt x="449" y="-13" on="0"/>
        <pt x="296" y="-13" on="1"/>
        <pt x="164" y="-13" on="0"/>
        <pt x="43" y="17" on="1"/>
        <pt x="54" y="150" on="1"/>
        <pt x="259" y="145" on="0"/>
        <pt x="295" y="145" on="1"/>
        <pt x="345" y="145" on="0"/>
        <pt x="378" y="162" on="0"/>
        <pt x="378" y="188" on="1"/>
        <pt x="378" y="212" on="0"/>
        <pt x="355" y="234" on="0"/>
      </contour>
      <contour>
        <pt x="220" y="-129" on="1"/>
        <pt x="237" y="-63" on="1"/>
        <pt x="323" y="-50" on="0"/>
        <pt x="401" y="-75" on="0"/>
        <pt x="398" y="-128" on="1"/>
        <pt x="395" y="-207" on="0"/>
        <pt x="272" y="-282" on="0"/>
        <pt x="180" y="-270" on="1"/>
        <pt x="200" y="-198" on="1"/>
        <pt x="282" y="-198" on="0"/>
        <pt x="287" y="-144" on="1"/>
        <pt x="288" y="-133" on="0"/>
        <pt x="268" y="-129" on="0"/>
      </contour>
    </TTGlyph>
    <TTGlyph name="Scommaaccent" xMin="36" yMin="-301" xMax="566" yMax="703">
      <contour>
        <pt x="323" y="246" on="1"/>
        <pt x="185" y="301" on="1"/>
        <pt x="104" y="334" on="0"/>
        <pt x="36" y="429" on="0"/>
        <pt x="36" y="506" on="1"/>
        <pt x="36" y="622" on="0"/>
        <pt x="154" y="703" on="0"/>
        <pt x="305" y="703" on="1"/>
        <pt x="450" y="703" on="0"/>
        <pt x="545" y="672" on="1"/>
        <pt x="533" y="549" on="1"/>
        <pt x="356" y="552" on="0"/>
        <pt x="303" y="552" on="1"/>
        <pt x="255" y="552" on="0"/>
        <pt x="222" y="536" on="0"/>
        <pt x="222" y="509" on="1"/>
        <pt x="222" y="486" on="0"/>
        <pt x="250" y="461" on="0"/>
        <pt x="288" y="448" on="1"/>
        <pt x="415" y="399" on="1"/>
        <pt x="498" y="366" on="0"/>
        <pt x="566" y="270" on="0"/>
        <pt x="566" y="192" on="1"/>
        <pt x="566" y="75" on="0"/>
        <pt x="449" y="-13" on="0"/>
        <pt x="296" y="-13" on="1"/>
        <pt x="164" y="-13" on="0"/>
        <pt x="43" y="17" on="1"/>
        <pt x="54" y="150" on="1"/>
        <pt x="259" y="145" on="0"/>
        <pt x="295" y="145" on="1"/>
        <pt x="345" y="145" on="0"/>
        <pt x="378" y="162" on="0"/>
        <pt x="378" y="188" on="1"/>
        <pt x="378" y="212" on="0"/>
        <pt x="355" y="234" on="0"/>
      </contour>
      <contour>
        <pt x="259" y="-50" on="1"/>
        <pt x="294" y="-50" on="1"/>
        <pt x="326" y="-50" on="0"/>
        <pt x="350" y="-70" on="0"/>
        <pt x="351" y="-98" on="1"/>
        <pt x="351" y="-148" on="1"/>
        <pt x="351" y="-198" on="0"/>
        <pt x="325" y="-267" on="0"/>
        <pt x="297" y="-301" on="1"/>
        <pt x="232" y="-284" on="1"/>
        <pt x="246" y="-244" on="0"/>
        <pt x="248" y="-181" on="1"/>
        <pt x="202" y="-181" on="0"/>
        <pt x="200" y="-138" on="1"/>
        <pt x="202" y="-98" on="1"/>
        <pt x="203" y="-70" on="0"/>
        <pt x="227" y="-50" on="0"/>
      </contour>
    </TTGlyph>
    <TTGlyph name="T" xMin="14" yMin="0" xMax="599" yMax="690">
      <contour>
        <pt x="599" y="545" on="1"/>
        <pt x="400" y="545" on="1"/>
        <pt x="400" y="0" on="1"/>
        <pt x="212" y="0" on="1"/>
        <pt x="212" y="545" on="1"/>
        <pt x="14" y="545" on="1"/>
        <pt x="14" y="690" on="1"/>
        <pt x="599" y="690" on="1"/>
      </contour>
    </TTGlyph>
    <TTGlyph name="Tbar" xMin="15" yMin="0" xMax="601" yMax="690">
      <contour>
        <pt x="402" y="545" on="1"/>
        <pt x="402" y="406" on="1"/>
        <pt x="523" y="406" on="1"/>
        <pt x="523" y="321" on="1"/>
        <pt x="402" y="321" on="1"/>
        <pt x="402" y="0" on="1"/>
        <pt x="214" y="0" on="1"/>
        <pt x="214" y="321" on="1"/>
        <pt x="92" y="321" on="1"/>
        <pt x="92" y="406" on="1"/>
        <pt x="214" y="406" on="1"/>
        <pt x="214" y="545" on="1"/>
        <pt x="15" y="545" on="1"/>
        <pt x="15" y="690" on="1"/>
        <pt x="601" y="690" on="1"/>
        <pt x="601" y="545" on="1"/>
      </contour>
    </TTGlyph>
    <TTGlyph name="Tcaron" xMin="14" yMin="0" xMax="599" yMax="937">
      <contour>
        <pt x="270" y="737" on="1"/>
        <pt x="111" y="868" on="1"/>
        <pt x="157" y="937" on="1"/>
        <pt x="302" y="859" on="1"/>
        <pt x="310" y="859" on="1"/>
        <pt x="456" y="937" on="1"/>
        <pt x="501" y="868" on="1"/>
        <pt x="343" y="737" on="1"/>
      </contour>
      <contour>
        <pt x="599" y="545" on="1"/>
        <pt x="400" y="545" on="1"/>
        <pt x="400" y="0" on="1"/>
        <pt x="212" y="0" on="1"/>
        <pt x="212" y="545" on="1"/>
        <pt x="14" y="545" on="1"/>
        <pt x="14" y="690" on="1"/>
        <pt x="599" y="690" on="1"/>
      </contour>
    </TTGlyph>
    <TTGlyph name="Tcedilla" xMin="14" yMin="-256" xMax="599" yMax="690">
      <contour>
        <pt x="599" y="545" on="1"/>
        <pt x="400" y="545" on="1"/>
        <pt x="400" y="0" on="1"/>
        <pt x="212" y="0" on="1"/>
        <pt x="212" y="545" on="1"/>
        <pt x="14" y="545" on="1"/>
        <pt x="14" y="690" on="1"/>
        <pt x="599" y="690" on="1"/>
      </contour>
      <contour>
        <pt x="220" y="-116" on="1"/>
        <pt x="237" y="-50" on="1"/>
        <pt x="323" y="-37" on="0"/>
        <pt x="401" y="-61" on="0"/>
        <pt x="398" y="-115" on="1"/>
        <pt x="395" y="-194" on="0"/>
        <pt x="272" y="-268" on="0"/>
        <pt x="180" y="-256" on="1"/>
        <pt x="200" y="-184" on="1"/>
        <pt x="282" y="-186" on="0"/>
        <pt x="287" y="-130" on="1"/>
        <pt x="288" y="-119" on="0"/>
        <pt x="268" y="-116" on="0"/>
      </contour>
    </TTGlyph>
    <TTGlyph name="Thorn" xMin="61" yMin="0" xMax="599" yMax="690">
      <contour>
        <pt x="249" y="576" on="1"/>
        <pt x="334" y="576" on="1"/>
        <pt x="487" y="576" on="0"/>
        <pt x="599" y="479" on="0"/>
        <pt x="599" y="344" on="1"/>
        <pt x="599" y="211" on="0"/>
        <pt x="494" y="114" on="0"/>
        <pt x="359" y="114" on="1"/>
        <pt x="310" y="114" on="0"/>
        <pt x="249" y="121" on="1"/>
        <pt x="249" y="0" on="1"/>
        <pt x="61" y="0" on="1"/>
        <pt x="61" y="567" on="1"/>
        <pt x="61" y="690" on="1"/>
        <pt x="249" y="690" on="1"/>
      </contour>
      <contour>
        <pt x="249" y="251" on="1"/>
        <pt x="329" y="251" on="1"/>
        <pt x="377" y="251" on="0"/>
        <pt x="411" y="289" on="0"/>
        <pt x="411" y="344" on="1"/>
        <pt x="411" y="401" on="0"/>
        <pt x="378" y="439" on="0"/>
        <pt x="329" y="439" on="1"/>
        <pt x="249" y="439" on="1"/>
      </contour>
    </TTGlyph>
    <TTGlyph name="U" xMin="55" yMin="-14" xMax="639" yMax="690">
      <contour>
        <pt x="639" y="690" on="1"/>
        <pt x="639" y="280" on="1"/>
        <pt x="639" y="119" on="0"/>
        <pt x="512" y="-14" on="0"/>
        <pt x="357" y="-14" on="1"/>
        <pt x="191" y="-14" on="0"/>
        <pt x="55" y="119" on="0"/>
        <pt x="55" y="280" on="1"/>
        <pt x="55" y="690" on="1"/>
        <pt x="243" y="690" on="1"/>
        <pt x="243" y="280" on="1"/>
        <pt x="243" y="192" on="0"/>
        <pt x="287" y="130" on="0"/>
        <pt x="407" y="130" on="0"/>
        <pt x="451" y="192" on="0"/>
        <pt x="451" y="280" on="1"/>
        <pt x="451" y="690" on="1"/>
      </contour>
    </TTGlyph>
    <TTGlyph name="Uacute" xMin="55" yMin="-14" xMax="639" yMax="946">
      <contour>
        <pt x="546" y="827" on="1"/>
        <pt x="305" y="721" on="1"/>
        <pt x="254" y="797" on="1"/>
        <pt x="473" y="946" on="1"/>
      </contour>
      <contour>
        <pt x="639" y="690" on="1"/>
        <pt x="639" y="280" on="1"/>
        <pt x="639" y="119" on="0"/>
        <pt x="512" y="-14" on="0"/>
        <pt x="357" y="-14" on="1"/>
        <pt x="191" y="-14" on="0"/>
        <pt x="55" y="119" on="0"/>
        <pt x="55" y="280" on="1"/>
        <pt x="55" y="690" on="1"/>
        <pt x="243" y="690" on="1"/>
        <pt x="243" y="280" on="1"/>
        <pt x="243" y="192" on="0"/>
        <pt x="287" y="130" on="0"/>
        <pt x="407" y="130" on="0"/>
        <pt x="451" y="192" on="0"/>
        <pt x="451" y="280" on="1"/>
        <pt x="451" y="690" on="1"/>
      </contour>
    </TTGlyph>
    <TTGlyph name="Ucircumflex" xMin="55" yMin="-14" xMax="639" yMax="915">
      <contour>
        <pt x="548" y="777" on="1"/>
        <pt x="503" y="714" on="1"/>
        <pt x="352" y="808" on="1"/>
        <pt x="344" y="808" on="1"/>
        <pt x="191" y="714" on="1"/>
        <pt x="145" y="783" on="1"/>
        <pt x="283" y="915" on="1"/>
        <pt x="414" y="915" on="1"/>
      </contour>
      <contour>
        <pt x="639" y="690" on="1"/>
        <pt x="639" y="280" on="1"/>
        <pt x="639" y="119" on="0"/>
        <pt x="512" y="-14" on="0"/>
        <pt x="357" y="-14" on="1"/>
        <pt x="191" y="-14" on="0"/>
        <pt x="55" y="119" on="0"/>
        <pt x="55" y="280" on="1"/>
        <pt x="55" y="690" on="1"/>
        <pt x="243" y="690" on="1"/>
        <pt x="243" y="280" on="1"/>
        <pt x="243" y="192" on="0"/>
        <pt x="287" y="130" on="0"/>
        <pt x="407" y="130" on="0"/>
        <pt x="451" y="192" on="0"/>
        <pt x="451" y="280" on="1"/>
        <pt x="451" y="690" on="1"/>
      </contour>
    </TTGlyph>
    <TTGlyph name="Udieresis" xMin="55" yMin="-14" xMax="639" yMax="896">
      <contour>
        <pt x="223" y="896" on="1"/>
        <pt x="283" y="896" on="1"/>
        <pt x="319" y="896" on="0"/>
        <pt x="319" y="860" on="1"/>
        <pt x="319" y="799" on="1"/>
        <pt x="319" y="763" on="0"/>
        <pt x="283" y="763" on="1"/>
        <pt x="223" y="763" on="1"/>
        <pt x="187" y="763" on="0"/>
        <pt x="187" y="799" on="1"/>
        <pt x="187" y="860" on="1"/>
        <pt x="187" y="896" on="0"/>
      </contour>
      <contour>
        <pt x="409" y="896" on="1"/>
        <pt x="469" y="896" on="1"/>
        <pt x="505" y="896" on="0"/>
        <pt x="505" y="860" on="1"/>
        <pt x="505" y="799" on="1"/>
        <pt x="505" y="763" on="0"/>
        <pt x="469" y="763" on="1"/>
        <pt x="409" y="763" on="1"/>
        <pt x="373" y="763" on="0"/>
        <pt x="373" y="799" on="1"/>
        <pt x="373" y="860" on="1"/>
        <pt x="373" y="896" on="0"/>
      </contour>
      <contour>
        <pt x="639" y="690" on="1"/>
        <pt x="639" y="280" on="1"/>
        <pt x="639" y="119" on="0"/>
        <pt x="512" y="-14" on="0"/>
        <pt x="357" y="-14" on="1"/>
        <pt x="191" y="-14" on="0"/>
        <pt x="55" y="119" on="0"/>
        <pt x="55" y="280" on="1"/>
        <pt x="55" y="690" on="1"/>
        <pt x="243" y="690" on="1"/>
        <pt x="243" y="280" on="1"/>
        <pt x="243" y="192" on="0"/>
        <pt x="287" y="130" on="0"/>
        <pt x="407" y="130" on="0"/>
        <pt x="451" y="192" on="0"/>
        <pt x="451" y="280" on="1"/>
        <pt x="451" y="690" on="1"/>
      </contour>
    </TTGlyph>
    <TTGlyph name="Ugrave" xMin="55" yMin="-14" xMax="639" yMax="946">
      <contour>
        <pt x="435" y="797" on="1"/>
        <pt x="384" y="721" on="1"/>
        <pt x="143" y="827" on="1"/>
        <pt x="216" y="946" on="1"/>
      </contour>
      <contour>
        <pt x="639" y="690" on="1"/>
        <pt x="639" y="280" on="1"/>
        <pt x="639" y="119" on="0"/>
        <pt x="512" y="-14" on="0"/>
        <pt x="357" y="-14" on="1"/>
        <pt x="191" y="-14" on="0"/>
        <pt x="55" y="119" on="0"/>
        <pt x="55" y="280" on="1"/>
        <pt x="55" y="690" on="1"/>
        <pt x="243" y="690" on="1"/>
        <pt x="243" y="280" on="1"/>
        <pt x="243" y="192" on="0"/>
        <pt x="287" y="130" on="0"/>
        <pt x="407" y="130" on="0"/>
        <pt x="451" y="192" on="0"/>
        <pt x="451" y="280" on="1"/>
        <pt x="451" y="690" on="1"/>
      </contour>
    </TTGlyph>
    <TTGlyph name="Uhungarumlaut" xMin="55" yMin="-14" xMax="639" yMax="958">
      <contour>
        <pt x="395" y="883" on="1"/>
        <pt x="234" y="711" on="1"/>
        <pt x="161" y="769" on="1"/>
        <pt x="280" y="958" on="1"/>
      </contour>
      <contour>
        <pt x="598" y="883" on="1"/>
        <pt x="436" y="711" on="1"/>
        <pt x="365" y="768" on="1"/>
        <pt x="484" y="958" on="1"/>
      </contour>
      <contour>
        <pt x="639" y="690" on="1"/>
        <pt x="639" y="280" on="1"/>
        <pt x="639" y="119" on="0"/>
        <pt x="512" y="-14" on="0"/>
        <pt x="357" y="-14" on="1"/>
        <pt x="191" y="-14" on="0"/>
        <pt x="55" y="119" on="0"/>
        <pt x="55" y="280" on="1"/>
        <pt x="55" y="690" on="1"/>
        <pt x="243" y="690" on="1"/>
        <pt x="243" y="280" on="1"/>
        <pt x="243" y="192" on="0"/>
        <pt x="287" y="130" on="0"/>
        <pt x="407" y="130" on="0"/>
        <pt x="451" y="192" on="0"/>
        <pt x="451" y="280" on="1"/>
        <pt x="451" y="690" on="1"/>
      </contour>
    </TTGlyph>
    <TTGlyph name="Umacron" xMin="55" yMin="-14" xMax="639" yMax="885">
      <contour>
        <pt x="504" y="774" on="1"/>
        <pt x="193" y="774" on="1"/>
        <pt x="193" y="885" on="1"/>
        <pt x="504" y="885" on="1"/>
      </contour>
      <contour>
        <pt x="639" y="690" on="1"/>
        <pt x="639" y="280" on="1"/>
        <pt x="639" y="119" on="0"/>
        <pt x="512" y="-14" on="0"/>
        <pt x="357" y="-14" on="1"/>
        <pt x="191" y="-14" on="0"/>
        <pt x="55" y="119" on="0"/>
        <pt x="55" y="280" on="1"/>
        <pt x="55" y="690" on="1"/>
        <pt x="243" y="690" on="1"/>
        <pt x="243" y="280" on="1"/>
        <pt x="243" y="192" on="0"/>
        <pt x="287" y="130" on="0"/>
        <pt x="407" y="130" on="0"/>
        <pt x="451" y="192" on="0"/>
        <pt x="451" y="280" on="1"/>
        <pt x="451" y="690" on="1"/>
      </contour>
    </TTGlyph>
    <TTGlyph name="Uogonek" xMin="55" yMin="-222" xMax="639" yMax="690">
      <contour>
        <pt x="639" y="690" on="1"/>
        <pt x="639" y="280" on="1"/>
        <pt x="639" y="127" on="0"/>
        <pt x="526" y="-7" on="0"/>
        <pt x="390" y="-13" on="1"/>
        <pt x="353" y="-73" on="0"/>
        <pt x="340" y="-102" on="1"/>
        <pt x="327" y="-129" on="0"/>
        <pt x="362" y="-146" on="0"/>
        <pt x="394" y="-137" on="1"/>
        <pt x="407" y="-201" on="1"/>
        <pt x="329" y="-230" on="0"/>
        <pt x="239" y="-213" on="0"/>
        <pt x="206" y="-155" on="0"/>
        <pt x="219" y="-117" on="1"/>
        <pt x="236" y="-63" on="0"/>
        <pt x="314" y="-13" on="1"/>
        <pt x="173" y="-5" on="0"/>
        <pt x="55" y="129" on="0"/>
        <pt x="55" y="280" on="1"/>
        <pt x="55" y="690" on="1"/>
        <pt x="243" y="690" on="1"/>
        <pt x="243" y="280" on="1"/>
        <pt x="243" y="192" on="0"/>
        <pt x="287" y="130" on="0"/>
        <pt x="407" y="130" on="0"/>
        <pt x="451" y="192" on="0"/>
        <pt x="451" y="280" on="1"/>
        <pt x="451" y="690" on="1"/>
      </contour>
    </TTGlyph>
    <TTGlyph name="Uring" xMin="55" yMin="-14" xMax="639" yMax="954">
      <contour>
        <pt x="297" y="954" on="0"/>
        <pt x="399" y="954" on="0"/>
        <pt x="472" y="883" on="0"/>
        <pt x="472" y="783" on="0"/>
        <pt x="399" y="713" on="0"/>
        <pt x="297" y="713" on="0"/>
        <pt x="224" y="783" on="0"/>
        <pt x="224" y="883" on="0"/>
      </contour>
      <contour>
        <pt x="348" y="881" on="1"/>
        <pt x="328" y="881" on="0"/>
        <pt x="301" y="853" on="0"/>
        <pt x="301" y="813" on="0"/>
        <pt x="328" y="786" on="0"/>
        <pt x="348" y="786" on="1"/>
        <pt x="367" y="786" on="0"/>
        <pt x="395" y="813" on="0"/>
        <pt x="395" y="853" on="0"/>
        <pt x="367" y="881" on="0"/>
      </contour>
      <contour>
        <pt x="639" y="690" on="1"/>
        <pt x="639" y="280" on="1"/>
        <pt x="639" y="119" on="0"/>
        <pt x="512" y="-14" on="0"/>
        <pt x="357" y="-14" on="1"/>
        <pt x="191" y="-14" on="0"/>
        <pt x="55" y="119" on="0"/>
        <pt x="55" y="280" on="1"/>
        <pt x="55" y="690" on="1"/>
        <pt x="243" y="690" on="1"/>
        <pt x="243" y="280" on="1"/>
        <pt x="243" y="192" on="0"/>
        <pt x="287" y="130" on="0"/>
        <pt x="407" y="130" on="0"/>
        <pt x="451" y="192" on="0"/>
        <pt x="451" y="280" on="1"/>
        <pt x="451" y="690" on="1"/>
      </contour>
    </TTGlyph>
    <TTGlyph name="V" xMin="2" yMin="0" xMax="653" yMax="690">
      <contour>
        <pt x="653" y="690" on="1"/>
        <pt x="476" y="51" on="1"/>
        <pt x="471" y="28" on="0"/>
        <pt x="435" y="0" on="0"/>
        <pt x="411" y="0" on="1"/>
        <pt x="244" y="0" on="1"/>
        <pt x="220" y="0" on="0"/>
        <pt x="184" y="28" on="0"/>
        <pt x="179" y="51" on="1"/>
        <pt x="2" y="690" on="1"/>
        <pt x="195" y="690" on="1"/>
        <pt x="301" y="219" on="1"/>
        <pt x="309" y="181" on="0"/>
        <pt x="315" y="141" on="1"/>
        <pt x="340" y="141" on="1"/>
        <pt x="342" y="161" on="0"/>
        <pt x="354" y="219" on="1"/>
        <pt x="459" y="690" on="1"/>
      </contour>
    </TTGlyph>
    <TTGlyph name="W" xMin="23" yMin="0" xMax="967" yMax="690">
      <contour>
        <pt x="967" y="690" on="1"/>
        <pt x="870" y="51" on="1"/>
        <pt x="866" y="28" on="0"/>
        <pt x="830" y="0" on="0"/>
        <pt x="805" y="0" on="1"/>
        <pt x="638" y="0" on="1"/>
        <pt x="613" y="0" on="0"/>
        <pt x="576" y="28" on="0"/>
        <pt x="573" y="51" on="1"/>
        <pt x="513" y="464" on="1"/>
        <pt x="507" y="510" on="0"/>
        <pt x="504" y="559" on="1"/>
        <pt x="486" y="559" on="1"/>
        <pt x="480" y="491" on="0"/>
        <pt x="476" y="463" on="1"/>
        <pt x="417" y="51" on="1"/>
        <pt x="414" y="28" on="0"/>
        <pt x="377" y="0" on="0"/>
        <pt x="352" y="0" on="1"/>
        <pt x="184" y="0" on="1"/>
        <pt x="160" y="0" on="0"/>
        <pt x="123" y="28" on="0"/>
        <pt x="119" y="51" on="1"/>
        <pt x="23" y="690" on="1"/>
        <pt x="210" y="690" on="1"/>
        <pt x="260" y="242" on="1"/>
        <pt x="265" y="192" on="0"/>
        <pt x="266" y="133" on="1"/>
        <pt x="284" y="133" on="1"/>
        <pt x="285" y="140" on="0"/>
        <pt x="300" y="242" on="1"/>
        <pt x="358" y="634" on="1"/>
        <pt x="361" y="659" on="0"/>
        <pt x="397" y="690" on="0"/>
        <pt x="423" y="690" on="1"/>
        <pt x="567" y="690" on="1"/>
        <pt x="592" y="690" on="0"/>
        <pt x="628" y="659" on="0"/>
        <pt x="631" y="634" on="1"/>
        <pt x="690" y="241" on="1"/>
        <pt x="705" y="133" on="1"/>
        <pt x="723" y="133" on="1"/>
        <pt x="724" y="177" on="0"/>
        <pt x="730" y="240" on="1"/>
        <pt x="779" y="690" on="1"/>
      </contour>
    </TTGlyph>
    <TTGlyph name="Wacute" xMin="23" yMin="0" xMax="967" yMax="946">
      <contour>
        <pt x="694" y="827" on="1"/>
        <pt x="453" y="721" on="1"/>
        <pt x="402" y="797" on="1"/>
        <pt x="620" y="946" on="1"/>
      </contour>
      <contour>
        <pt x="967" y="690" on="1"/>
        <pt x="870" y="51" on="1"/>
        <pt x="866" y="28" on="0"/>
        <pt x="830" y="0" on="0"/>
        <pt x="805" y="0" on="1"/>
        <pt x="638" y="0" on="1"/>
        <pt x="613" y="0" on="0"/>
        <pt x="576" y="28" on="0"/>
        <pt x="573" y="51" on="1"/>
        <pt x="513" y="464" on="1"/>
        <pt x="507" y="510" on="0"/>
        <pt x="504" y="559" on="1"/>
        <pt x="486" y="559" on="1"/>
        <pt x="480" y="491" on="0"/>
        <pt x="476" y="463" on="1"/>
        <pt x="417" y="51" on="1"/>
        <pt x="414" y="28" on="0"/>
        <pt x="377" y="0" on="0"/>
        <pt x="352" y="0" on="1"/>
        <pt x="184" y="0" on="1"/>
        <pt x="160" y="0" on="0"/>
        <pt x="123" y="28" on="0"/>
        <pt x="119" y="51" on="1"/>
        <pt x="23" y="690" on="1"/>
        <pt x="210" y="690" on="1"/>
        <pt x="260" y="242" on="1"/>
        <pt x="265" y="192" on="0"/>
        <pt x="266" y="133" on="1"/>
        <pt x="284" y="133" on="1"/>
        <pt x="285" y="140" on="0"/>
        <pt x="300" y="242" on="1"/>
        <pt x="358" y="634" on="1"/>
        <pt x="361" y="659" on="0"/>
        <pt x="397" y="690" on="0"/>
        <pt x="423" y="690" on="1"/>
        <pt x="567" y="690" on="1"/>
        <pt x="592" y="690" on="0"/>
        <pt x="628" y="659" on="0"/>
        <pt x="631" y="634" on="1"/>
        <pt x="690" y="241" on="1"/>
        <pt x="705" y="133" on="1"/>
        <pt x="723" y="133" on="1"/>
        <pt x="724" y="177" on="0"/>
        <pt x="730" y="240" on="1"/>
        <pt x="779" y="690" on="1"/>
      </contour>
    </TTGlyph>
    <TTGlyph name="Wcircumflex" xMin="23" yMin="0" xMax="967" yMax="915">
      <contour>
        <pt x="696" y="777" on="1"/>
        <pt x="651" y="714" on="1"/>
        <pt x="500" y="808" on="1"/>
        <pt x="492" y="808" on="1"/>
        <pt x="339" y="714" on="1"/>
        <pt x="293" y="782" on="1"/>
        <pt x="430" y="915" on="1"/>
        <pt x="562" y="915" on="1"/>
      </contour>
      <contour>
        <pt x="967" y="690" on="1"/>
        <pt x="870" y="51" on="1"/>
        <pt x="866" y="28" on="0"/>
        <pt x="830" y="0" on="0"/>
        <pt x="805" y="0" on="1"/>
        <pt x="638" y="0" on="1"/>
        <pt x="613" y="0" on="0"/>
        <pt x="576" y="28" on="0"/>
        <pt x="573" y="51" on="1"/>
        <pt x="513" y="464" on="1"/>
        <pt x="507" y="510" on="0"/>
        <pt x="504" y="559" on="1"/>
        <pt x="486" y="559" on="1"/>
        <pt x="480" y="491" on="0"/>
        <pt x="476" y="463" on="1"/>
        <pt x="417" y="51" on="1"/>
        <pt x="414" y="28" on="0"/>
        <pt x="377" y="0" on="0"/>
        <pt x="352" y="0" on="1"/>
        <pt x="184" y="0" on="1"/>
        <pt x="160" y="0" on="0"/>
        <pt x="123" y="28" on="0"/>
        <pt x="119" y="51" on="1"/>
        <pt x="23" y="690" on="1"/>
        <pt x="210" y="690" on="1"/>
        <pt x="260" y="242" on="1"/>
        <pt x="265" y="192" on="0"/>
        <pt x="266" y="133" on="1"/>
        <pt x="284" y="133" on="1"/>
        <pt x="285" y="140" on="0"/>
        <pt x="300" y="242" on="1"/>
        <pt x="358" y="634" on="1"/>
        <pt x="361" y="659" on="0"/>
        <pt x="397" y="690" on="0"/>
        <pt x="423" y="690" on="1"/>
        <pt x="567" y="690" on="1"/>
        <pt x="592" y="690" on="0"/>
        <pt x="628" y="659" on="0"/>
        <pt x="631" y="634" on="1"/>
        <pt x="690" y="241" on="1"/>
        <pt x="705" y="133" on="1"/>
        <pt x="723" y="133" on="1"/>
        <pt x="724" y="177" on="0"/>
        <pt x="730" y="240" on="1"/>
        <pt x="779" y="690" on="1"/>
      </contour>
    </TTGlyph>
    <TTGlyph name="Wdieresis" xMin="23" yMin="0" xMax="967" yMax="896">
      <contour>
        <pt x="371" y="896" on="1"/>
        <pt x="431" y="896" on="1"/>
        <pt x="467" y="896" on="0"/>
        <pt x="467" y="859" on="1"/>
        <pt x="467" y="799" on="1"/>
        <pt x="467" y="763" on="0"/>
        <pt x="431" y="763" on="1"/>
        <pt x="371" y="763" on="1"/>
        <pt x="335" y="763" on="0"/>
        <pt x="335" y="799" on="1"/>
        <pt x="335" y="859" on="1"/>
        <pt x="335" y="896" on="0"/>
      </contour>
      <contour>
        <pt x="557" y="896" on="1"/>
        <pt x="617" y="896" on="1"/>
        <pt x="653" y="896" on="0"/>
        <pt x="653" y="859" on="1"/>
        <pt x="653" y="799" on="1"/>
        <pt x="653" y="763" on="0"/>
        <pt x="617" y="763" on="1"/>
        <pt x="557" y="763" on="1"/>
        <pt x="521" y="763" on="0"/>
        <pt x="521" y="799" on="1"/>
        <pt x="521" y="859" on="1"/>
        <pt x="521" y="896" on="0"/>
      </contour>
      <contour>
        <pt x="967" y="690" on="1"/>
        <pt x="870" y="51" on="1"/>
        <pt x="866" y="28" on="0"/>
        <pt x="830" y="0" on="0"/>
        <pt x="805" y="0" on="1"/>
        <pt x="638" y="0" on="1"/>
        <pt x="613" y="0" on="0"/>
        <pt x="576" y="28" on="0"/>
        <pt x="573" y="51" on="1"/>
        <pt x="513" y="464" on="1"/>
        <pt x="507" y="510" on="0"/>
        <pt x="504" y="559" on="1"/>
        <pt x="486" y="559" on="1"/>
        <pt x="480" y="491" on="0"/>
        <pt x="476" y="463" on="1"/>
        <pt x="417" y="51" on="1"/>
        <pt x="414" y="28" on="0"/>
        <pt x="377" y="0" on="0"/>
        <pt x="352" y="0" on="1"/>
        <pt x="184" y="0" on="1"/>
        <pt x="160" y="0" on="0"/>
        <pt x="123" y="28" on="0"/>
        <pt x="119" y="51" on="1"/>
        <pt x="23" y="690" on="1"/>
        <pt x="210" y="690" on="1"/>
        <pt x="260" y="242" on="1"/>
        <pt x="265" y="192" on="0"/>
        <pt x="266" y="133" on="1"/>
        <pt x="284" y="133" on="1"/>
        <pt x="285" y="140" on="0"/>
        <pt x="300" y="242" on="1"/>
        <pt x="358" y="634" on="1"/>
        <pt x="361" y="659" on="0"/>
        <pt x="397" y="690" on="0"/>
        <pt x="423" y="690" on="1"/>
        <pt x="567" y="690" on="1"/>
        <pt x="592" y="690" on="0"/>
        <pt x="628" y="659" on="0"/>
        <pt x="631" y="634" on="1"/>
        <pt x="690" y="241" on="1"/>
        <pt x="705" y="133" on="1"/>
        <pt x="723" y="133" on="1"/>
        <pt x="724" y="177" on="0"/>
        <pt x="730" y="240" on="1"/>
        <pt x="779" y="690" on="1"/>
      </contour>
    </TTGlyph>
    <TTGlyph name="Wgrave" xMin="23" yMin="0" xMax="967" yMax="946">
      <contour>
        <pt x="583" y="797" on="1"/>
        <pt x="532" y="721" on="1"/>
        <pt x="290" y="827" on="1"/>
        <pt x="364" y="946" on="1"/>
      </contour>
      <contour>
        <pt x="967" y="690" on="1"/>
        <pt x="870" y="51" on="1"/>
        <pt x="866" y="28" on="0"/>
        <pt x="830" y="0" on="0"/>
        <pt x="805" y="0" on="1"/>
        <pt x="638" y="0" on="1"/>
        <pt x="613" y="0" on="0"/>
        <pt x="576" y="28" on="0"/>
        <pt x="573" y="51" on="1"/>
        <pt x="513" y="464" on="1"/>
        <pt x="507" y="510" on="0"/>
        <pt x="504" y="559" on="1"/>
        <pt x="486" y="559" on="1"/>
        <pt x="480" y="491" on="0"/>
        <pt x="476" y="463" on="1"/>
        <pt x="417" y="51" on="1"/>
        <pt x="414" y="28" on="0"/>
        <pt x="377" y="0" on="0"/>
        <pt x="352" y="0" on="1"/>
        <pt x="184" y="0" on="1"/>
        <pt x="160" y="0" on="0"/>
        <pt x="123" y="28" on="0"/>
        <pt x="119" y="51" on="1"/>
        <pt x="23" y="690" on="1"/>
        <pt x="210" y="690" on="1"/>
        <pt x="260" y="242" on="1"/>
        <pt x="265" y="192" on="0"/>
        <pt x="266" y="133" on="1"/>
        <pt x="284" y="133" on="1"/>
        <pt x="285" y="140" on="0"/>
        <pt x="300" y="242" on="1"/>
        <pt x="358" y="634" on="1"/>
        <pt x="361" y="659" on="0"/>
        <pt x="397" y="690" on="0"/>
        <pt x="423" y="690" on="1"/>
        <pt x="567" y="690" on="1"/>
        <pt x="592" y="690" on="0"/>
        <pt x="628" y="659" on="0"/>
        <pt x="631" y="634" on="1"/>
        <pt x="690" y="241" on="1"/>
        <pt x="705" y="133" on="1"/>
        <pt x="723" y="133" on="1"/>
        <pt x="724" y="177" on="0"/>
        <pt x="730" y="240" on="1"/>
        <pt x="779" y="690" on="1"/>
      </contour>
    </TTGlyph>
    <TTGlyph name="X" xMin="2" yMin="0" xMax="659" yMax="690">
      <contour>
        <pt x="332" y="300" on="1"/>
        <pt x="328" y="300" on="1"/>
        <pt x="191" y="0" on="1"/>
        <pt x="2" y="0" on="1"/>
        <pt x="177" y="353" on="1"/>
        <pt x="16" y="690" on="1"/>
        <pt x="203" y="690" on="1"/>
        <pt x="327" y="410" on="1"/>
        <pt x="333" y="410" on="1"/>
        <pt x="457" y="690" on="1"/>
        <pt x="645" y="690" on="1"/>
        <pt x="484" y="353" on="1"/>
        <pt x="659" y="0" on="1"/>
        <pt x="470" y="0" on="1"/>
      </contour>
    </TTGlyph>
    <TTGlyph name="Y" xMin="-5" yMin="0" xMax="638" yMax="690">
      <contour>
        <pt x="411" y="221" on="1"/>
        <pt x="411" y="0" on="1"/>
        <pt x="223" y="0" on="1"/>
        <pt x="223" y="220" on="1"/>
        <pt x="-5" y="690" on="1"/>
        <pt x="189" y="690" on="1"/>
        <pt x="288" y="457" on="1"/>
        <pt x="301" y="427" on="0"/>
        <pt x="311" y="364" on="1"/>
        <pt x="323" y="364" on="1"/>
        <pt x="337" y="434" on="0"/>
        <pt x="346" y="457" on="1"/>
        <pt x="445" y="690" on="1"/>
        <pt x="638" y="690" on="1"/>
      </contour>
    </TTGlyph>
    <TTGlyph name="Yacute" xMin="-5" yMin="0" xMax="638" yMax="946">
      <contour>
        <pt x="274" y="721" on="1"/>
        <pt x="223" y="797" on="1"/>
        <pt x="441" y="946" on="1"/>
        <pt x="515" y="827" on="1"/>
      </contour>
      <contour>
        <pt x="411" y="221" on="1"/>
        <pt x="411" y="0" on="1"/>
        <pt x="223" y="0" on="1"/>
        <pt x="223" y="220" on="1"/>
        <pt x="-5" y="690" on="1"/>
        <pt x="189" y="690" on="1"/>
        <pt x="288" y="457" on="1"/>
        <pt x="301" y="427" on="0"/>
        <pt x="311" y="364" on="1"/>
        <pt x="323" y="364" on="1"/>
        <pt x="337" y="434" on="0"/>
        <pt x="346" y="457" on="1"/>
        <pt x="445" y="690" on="1"/>
        <pt x="638" y="690" on="1"/>
      </contour>
    </TTGlyph>
    <TTGlyph name="Ycircumflex" xMin="-5" yMin="0" xMax="638" yMax="915">
      <contour>
        <pt x="160" y="714" on="1"/>
        <pt x="114" y="783" on="1"/>
        <pt x="251" y="915" on="1"/>
        <pt x="383" y="915" on="1"/>
        <pt x="517" y="777" on="1"/>
        <pt x="472" y="714" on="1"/>
        <pt x="321" y="808" on="1"/>
        <pt x="313" y="808" on="1"/>
      </contour>
      <contour>
        <pt x="411" y="221" on="1"/>
        <pt x="411" y="0" on="1"/>
        <pt x="223" y="0" on="1"/>
        <pt x="223" y="220" on="1"/>
        <pt x="-5" y="690" on="1"/>
        <pt x="189" y="690" on="1"/>
        <pt x="288" y="457" on="1"/>
        <pt x="301" y="427" on="0"/>
        <pt x="311" y="364" on="1"/>
        <pt x="323" y="364" on="1"/>
        <pt x="337" y="434" on="0"/>
        <pt x="346" y="457" on="1"/>
        <pt x="445" y="690" on="1"/>
        <pt x="638" y="690" on="1"/>
      </contour>
    </TTGlyph>
    <TTGlyph name="Ydieresis" xMin="-5" yMin="0" xMax="638" yMax="896">
      <contour>
        <pt x="252" y="763" on="1"/>
        <pt x="192" y="763" on="1"/>
        <pt x="156" y="763" on="0"/>
        <pt x="156" y="799" on="1"/>
        <pt x="156" y="860" on="1"/>
        <pt x="156" y="896" on="0"/>
        <pt x="192" y="896" on="1"/>
        <pt x="252" y="896" on="1"/>
        <pt x="288" y="896" on="0"/>
        <pt x="288" y="860" on="1"/>
        <pt x="288" y="799" on="1"/>
        <pt x="288" y="763" on="0"/>
      </contour>
      <contour>
        <pt x="438" y="763" on="1"/>
        <pt x="378" y="763" on="1"/>
        <pt x="342" y="763" on="0"/>
        <pt x="342" y="799" on="1"/>
        <pt x="342" y="860" on="1"/>
        <pt x="342" y="896" on="0"/>
        <pt x="378" y="896" on="1"/>
        <pt x="438" y="896" on="1"/>
        <pt x="474" y="896" on="0"/>
        <pt x="474" y="860" on="1"/>
        <pt x="474" y="799" on="1"/>
        <pt x="474" y="763" on="0"/>
      </contour>
      <contour>
        <pt x="411" y="221" on="1"/>
        <pt x="411" y="0" on="1"/>
        <pt x="223" y="0" on="1"/>
        <pt x="223" y="220" on="1"/>
        <pt x="-5" y="690" on="1"/>
        <pt x="189" y="690" on="1"/>
        <pt x="288" y="457" on="1"/>
        <pt x="301" y="427" on="0"/>
        <pt x="311" y="364" on="1"/>
        <pt x="323" y="364" on="1"/>
        <pt x="337" y="434" on="0"/>
        <pt x="346" y="457" on="1"/>
        <pt x="445" y="690" on="1"/>
        <pt x="638" y="690" on="1"/>
      </contour>
    </TTGlyph>
    <TTGlyph name="Ygrave" xMin="-5" yMin="0" xMax="638" yMax="946">
      <contour>
        <pt x="353" y="721" on="1"/>
        <pt x="111" y="827" on="1"/>
        <pt x="185" y="946" on="1"/>
        <pt x="404" y="797" on="1"/>
      </contour>
      <contour>
        <pt x="411" y="221" on="1"/>
        <pt x="411" y="0" on="1"/>
        <pt x="223" y="0" on="1"/>
        <pt x="223" y="220" on="1"/>
        <pt x="-5" y="690" on="1"/>
        <pt x="189" y="690" on="1"/>
        <pt x="288" y="457" on="1"/>
        <pt x="301" y="427" on="0"/>
        <pt x="311" y="364" on="1"/>
        <pt x="323" y="364" on="1"/>
        <pt x="337" y="434" on="0"/>
        <pt x="346" y="457" on="1"/>
        <pt x="445" y="690" on="1"/>
        <pt x="638" y="690" on="1"/>
      </contour>
    </TTGlyph>
    <TTGlyph name="Z" xMin="34" yMin="0" xMax="562" yMax="690">
      <contour>
        <pt x="562" y="136" on="1"/>
        <pt x="562" y="0" on="1"/>
        <pt x="34" y="0" on="1"/>
        <pt x="34" y="136" on="1"/>
        <pt x="346" y="554" on="1"/>
        <pt x="43" y="554" on="1"/>
        <pt x="43" y="690" on="1"/>
        <pt x="553" y="690" on="1"/>
        <pt x="553" y="554" on="1"/>
        <pt x="241" y="136" on="1"/>
      </contour>
    </TTGlyph>
    <TTGlyph name="Zacute" xMin="34" yMin="0" xMax="562" yMax="946">
      <contour>
        <pt x="260" y="721" on="1"/>
        <pt x="209" y="797" on="1"/>
        <pt x="428" y="946" on="1"/>
        <pt x="502" y="827" on="1"/>
      </contour>
      <contour>
        <pt x="562" y="136" on="1"/>
        <pt x="562" y="0" on="1"/>
        <pt x="34" y="0" on="1"/>
        <pt x="34" y="136" on="1"/>
        <pt x="346" y="554" on="1"/>
        <pt x="43" y="554" on="1"/>
        <pt x="43" y="690" on="1"/>
        <pt x="553" y="690" on="1"/>
        <pt x="553" y="554" on="1"/>
        <pt x="241" y="136" on="1"/>
      </contour>
    </TTGlyph>
    <TTGlyph name="Zcaron" xMin="34" yMin="0" xMax="562" yMax="937">
      <contour>
        <pt x="267" y="737" on="1"/>
        <pt x="108" y="868" on="1"/>
        <pt x="154" y="937" on="1"/>
        <pt x="299" y="859" on="1"/>
        <pt x="307" y="859" on="1"/>
        <pt x="453" y="937" on="1"/>
        <pt x="498" y="868" on="1"/>
        <pt x="340" y="737" on="1"/>
      </contour>
      <contour>
        <pt x="562" y="136" on="1"/>
        <pt x="562" y="0" on="1"/>
        <pt x="34" y="0" on="1"/>
        <pt x="34" y="136" on="1"/>
        <pt x="346" y="554" on="1"/>
        <pt x="43" y="554" on="1"/>
        <pt x="43" y="690" on="1"/>
        <pt x="553" y="690" on="1"/>
        <pt x="553" y="554" on="1"/>
        <pt x="241" y="136" on="1"/>
      </contour>
    </TTGlyph>
    <TTGlyph name="Zdotaccent" xMin="34" yMin="0" xMax="562" yMax="901">
      <contour>
        <pt x="331" y="752" on="1"/>
        <pt x="276" y="752" on="1"/>
        <pt x="225" y="752" on="0"/>
        <pt x="225" y="802" on="1"/>
        <pt x="225" y="851" on="1"/>
        <pt x="225" y="901" on="0"/>
        <pt x="276" y="901" on="1"/>
        <pt x="331" y="901" on="1"/>
        <pt x="382" y="901" on="0"/>
        <pt x="382" y="851" on="1"/>
        <pt x="382" y="802" on="1"/>
        <pt x="382" y="752" on="0"/>
      </contour>
      <contour>
        <pt x="562" y="136" on="1"/>
        <pt x="562" y="0" on="1"/>
        <pt x="34" y="0" on="1"/>
        <pt x="34" y="136" on="1"/>
        <pt x="346" y="554" on="1"/>
        <pt x="43" y="554" on="1"/>
        <pt x="43" y="690" on="1"/>
        <pt x="553" y="690" on="1"/>
        <pt x="553" y="554" on="1"/>
        <pt x="241" y="136" on="1"/>
      </contour>
    </TTGlyph>
    <TTGlyph name="a" xMin="28" yMin="-13" xMax="533" yMax="511">
      <contour>
        <pt x="70" y="368" on="1"/>
        <pt x="54" y="486" on="1"/>
        <pt x="186" y="511" on="0"/>
        <pt x="326" y="511" on="1"/>
        <pt x="431" y="511" on="0"/>
        <pt x="533" y="424" on="0"/>
        <pt x="533" y="317" on="1"/>
        <pt x="533" y="0" on="1"/>
        <pt x="389" y="0" on="1"/>
        <pt x="372" y="73" on="1"/>
        <pt x="300" y="-13" on="0"/>
        <pt x="195" y="-13" on="1"/>
        <pt x="122" y="-13" on="0"/>
        <pt x="28" y="62" on="0"/>
        <pt x="28" y="129" on="1"/>
        <pt x="28" y="179" on="1"/>
        <pt x="28" y="238" on="0"/>
        <pt x="113" y="306" on="0"/>
        <pt x="187" y="306" on="1"/>
        <pt x="352" y="306" on="1"/>
        <pt x="352" y="318" on="1"/>
        <pt x="351" y="350" on="0"/>
        <pt x="322" y="375" on="0"/>
        <pt x="283" y="375" on="1"/>
        <pt x="186" y="375" on="0"/>
      </contour>
      <contour>
        <pt x="206" y="172" on="1"/>
        <pt x="206" y="155" on="1"/>
        <pt x="206" y="115" on="0"/>
        <pt x="255" y="115" on="1"/>
        <pt x="299" y="115" on="0"/>
        <pt x="352" y="149" on="1"/>
        <pt x="352" y="211" on="1"/>
        <pt x="248" y="211" on="1"/>
        <pt x="206" y="210" on="0"/>
      </contour>
    </TTGlyph>
    <TTGlyph name="aacute" xMin="28" yMin="-13" xMax="533" yMax="761">
      <contour>
        <pt x="251" y="536" on="1"/>
        <pt x="200" y="612" on="1"/>
        <pt x="419" y="761" on="1"/>
        <pt x="493" y="642" on="1"/>
      </contour>
      <contour>
        <pt x="70" y="368" on="1"/>
        <pt x="54" y="486" on="1"/>
        <pt x="186" y="511" on="0"/>
        <pt x="326" y="511" on="1"/>
        <pt x="431" y="511" on="0"/>
        <pt x="533" y="424" on="0"/>
        <pt x="533" y="317" on="1"/>
        <pt x="533" y="0" on="1"/>
        <pt x="389" y="0" on="1"/>
        <pt x="372" y="73" on="1"/>
        <pt x="300" y="-13" on="0"/>
        <pt x="195" y="-13" on="1"/>
        <pt x="122" y="-13" on="0"/>
        <pt x="28" y="62" on="0"/>
        <pt x="28" y="129" on="1"/>
        <pt x="28" y="179" on="1"/>
        <pt x="28" y="238" on="0"/>
        <pt x="113" y="306" on="0"/>
        <pt x="187" y="306" on="1"/>
        <pt x="352" y="306" on="1"/>
        <pt x="352" y="318" on="1"/>
        <pt x="351" y="350" on="0"/>
        <pt x="322" y="375" on="0"/>
        <pt x="283" y="375" on="1"/>
        <pt x="186" y="375" on="0"/>
      </contour>
      <contour>
        <pt x="206" y="172" on="1"/>
        <pt x="206" y="155" on="1"/>
        <pt x="206" y="115" on="0"/>
        <pt x="255" y="115" on="1"/>
        <pt x="299" y="115" on="0"/>
        <pt x="352" y="149" on="1"/>
        <pt x="352" y="211" on="1"/>
        <pt x="248" y="211" on="1"/>
        <pt x="206" y="210" on="0"/>
      </contour>
    </TTGlyph>
    <TTGlyph name="abreve" xMin="28" yMin="-13" xMax="533" yMax="727">
      <contour>
        <pt x="380" y="727" on="1"/>
        <pt x="465" y="715" on="1"/>
        <pt x="476" y="649" on="0"/>
        <pt x="380" y="553" on="0"/>
        <pt x="208" y="553" on="0"/>
        <pt x="111" y="649" on="0"/>
        <pt x="121" y="715" on="1"/>
        <pt x="206" y="727" on="1"/>
        <pt x="206" y="695" on="0"/>
        <pt x="248" y="666" on="0"/>
        <pt x="340" y="666" on="0"/>
        <pt x="381" y="695" on="0"/>
      </contour>
      <contour>
        <pt x="70" y="368" on="1"/>
        <pt x="54" y="486" on="1"/>
        <pt x="186" y="511" on="0"/>
        <pt x="326" y="511" on="1"/>
        <pt x="431" y="511" on="0"/>
        <pt x="533" y="424" on="0"/>
        <pt x="533" y="317" on="1"/>
        <pt x="533" y="0" on="1"/>
        <pt x="389" y="0" on="1"/>
        <pt x="372" y="73" on="1"/>
        <pt x="300" y="-13" on="0"/>
        <pt x="195" y="-13" on="1"/>
        <pt x="122" y="-13" on="0"/>
        <pt x="28" y="62" on="0"/>
        <pt x="28" y="129" on="1"/>
        <pt x="28" y="179" on="1"/>
        <pt x="28" y="238" on="0"/>
        <pt x="113" y="306" on="0"/>
        <pt x="187" y="306" on="1"/>
        <pt x="352" y="306" on="1"/>
        <pt x="352" y="318" on="1"/>
        <pt x="351" y="350" on="0"/>
        <pt x="322" y="375" on="0"/>
        <pt x="283" y="375" on="1"/>
        <pt x="186" y="375" on="0"/>
      </contour>
      <contour>
        <pt x="206" y="172" on="1"/>
        <pt x="206" y="155" on="1"/>
        <pt x="206" y="115" on="0"/>
        <pt x="255" y="115" on="1"/>
        <pt x="299" y="115" on="0"/>
        <pt x="352" y="149" on="1"/>
        <pt x="352" y="211" on="1"/>
        <pt x="248" y="211" on="1"/>
        <pt x="206" y="210" on="0"/>
      </contour>
    </TTGlyph>
    <TTGlyph name="acircumflex" xMin="28" yMin="-13" xMax="533" yMax="730">
      <contour>
        <pt x="137" y="529" on="1"/>
        <pt x="92" y="597" on="1"/>
        <pt x="229" y="730" on="1"/>
        <pt x="360" y="730" on="1"/>
        <pt x="494" y="591" on="1"/>
        <pt x="449" y="529" on="1"/>
        <pt x="299" y="623" on="1"/>
        <pt x="291" y="623" on="1"/>
      </contour>
      <contour>
        <pt x="70" y="368" on="1"/>
        <pt x="54" y="486" on="1"/>
        <pt x="186" y="511" on="0"/>
        <pt x="326" y="511" on="1"/>
        <pt x="431" y="511" on="0"/>
        <pt x="533" y="424" on="0"/>
        <pt x="533" y="317" on="1"/>
        <pt x="533" y="0" on="1"/>
        <pt x="389" y="0" on="1"/>
        <pt x="372" y="73" on="1"/>
        <pt x="300" y="-13" on="0"/>
        <pt x="195" y="-13" on="1"/>
        <pt x="122" y="-13" on="0"/>
        <pt x="28" y="62" on="0"/>
        <pt x="28" y="129" on="1"/>
        <pt x="28" y="179" on="1"/>
        <pt x="28" y="238" on="0"/>
        <pt x="113" y="306" on="0"/>
        <pt x="187" y="306" on="1"/>
        <pt x="352" y="306" on="1"/>
        <pt x="352" y="318" on="1"/>
        <pt x="351" y="350" on="0"/>
        <pt x="322" y="375" on="0"/>
        <pt x="283" y="375" on="1"/>
        <pt x="186" y="375" on="0"/>
      </contour>
      <contour>
        <pt x="206" y="172" on="1"/>
        <pt x="206" y="155" on="1"/>
        <pt x="206" y="115" on="0"/>
        <pt x="255" y="115" on="1"/>
        <pt x="299" y="115" on="0"/>
        <pt x="352" y="149" on="1"/>
        <pt x="352" y="211" on="1"/>
        <pt x="248" y="211" on="1"/>
        <pt x="206" y="210" on="0"/>
      </contour>
    </TTGlyph>
    <TTGlyph name="acute" xMin="44" yMin="517" xMax="336" yMax="742">
      <contour>
        <pt x="336" y="623" on="1"/>
        <pt x="95" y="517" on="1"/>
        <pt x="44" y="593" on="1"/>
        <pt x="262" y="742" on="1"/>
      </contour>
    </TTGlyph>
    <TTGlyph name="adieresis" xMin="28" yMin="-13" xMax="533" yMax="710">
      <contour>
        <pt x="229" y="577" on="1"/>
        <pt x="170" y="577" on="1"/>
        <pt x="134" y="577" on="0"/>
        <pt x="134" y="614" on="1"/>
        <pt x="134" y="674" on="1"/>
        <pt x="134" y="710" on="0"/>
        <pt x="170" y="710" on="1"/>
        <pt x="229" y="710" on="1"/>
        <pt x="265" y="710" on="0"/>
        <pt x="265" y="674" on="1"/>
        <pt x="265" y="614" on="1"/>
        <pt x="265" y="577" on="0"/>
      </contour>
      <contour>
        <pt x="415" y="577" on="1"/>
        <pt x="355" y="577" on="1"/>
        <pt x="319" y="577" on="0"/>
        <pt x="319" y="614" on="1"/>
        <pt x="319" y="674" on="1"/>
        <pt x="319" y="710" on="0"/>
        <pt x="355" y="710" on="1"/>
        <pt x="415" y="710" on="1"/>
        <pt x="451" y="710" on="0"/>
        <pt x="451" y="674" on="1"/>
        <pt x="451" y="614" on="1"/>
        <pt x="451" y="577" on="0"/>
      </contour>
      <contour>
        <pt x="70" y="368" on="1"/>
        <pt x="54" y="486" on="1"/>
        <pt x="186" y="511" on="0"/>
        <pt x="326" y="511" on="1"/>
        <pt x="431" y="511" on="0"/>
        <pt x="533" y="424" on="0"/>
        <pt x="533" y="317" on="1"/>
        <pt x="533" y="0" on="1"/>
        <pt x="389" y="0" on="1"/>
        <pt x="372" y="73" on="1"/>
        <pt x="300" y="-13" on="0"/>
        <pt x="195" y="-13" on="1"/>
        <pt x="122" y="-13" on="0"/>
        <pt x="28" y="62" on="0"/>
        <pt x="28" y="129" on="1"/>
        <pt x="28" y="179" on="1"/>
        <pt x="28" y="238" on="0"/>
        <pt x="113" y="306" on="0"/>
        <pt x="187" y="306" on="1"/>
        <pt x="352" y="306" on="1"/>
        <pt x="352" y="318" on="1"/>
        <pt x="351" y="350" on="0"/>
        <pt x="322" y="375" on="0"/>
        <pt x="283" y="375" on="1"/>
        <pt x="186" y="375" on="0"/>
      </contour>
      <contour>
        <pt x="206" y="172" on="1"/>
        <pt x="206" y="155" on="1"/>
        <pt x="206" y="115" on="0"/>
        <pt x="255" y="115" on="1"/>
        <pt x="299" y="115" on="0"/>
        <pt x="352" y="149" on="1"/>
        <pt x="352" y="211" on="1"/>
        <pt x="248" y="211" on="1"/>
        <pt x="206" y="210" on="0"/>
      </contour>
    </TTGlyph>
    <TTGlyph name="ae" xMin="28" yMin="-13" xMax="853" yMax="511">
      <contour>
        <pt x="680" y="201" on="1"/>
        <pt x="531" y="201" on="1"/>
        <pt x="538" y="160" on="0"/>
        <pt x="582" y="129" on="0"/>
        <pt x="633" y="129" on="1"/>
        <pt x="722" y="129" on="0"/>
        <pt x="823" y="141" on="1"/>
        <pt x="840" y="30" on="1"/>
        <pt x="757" y="-12" on="0"/>
        <pt x="612" y="-12" on="1"/>
        <pt x="440" y="-12" on="0"/>
        <pt x="381" y="80" on="1"/>
        <pt x="310" y="-13" on="0"/>
        <pt x="192" y="-13" on="1"/>
        <pt x="121" y="-13" on="0"/>
        <pt x="28" y="62" on="0"/>
        <pt x="28" y="129" on="1"/>
        <pt x="28" y="179" on="1"/>
        <pt x="28" y="237" on="0"/>
        <pt x="111" y="304" on="0"/>
        <pt x="184" y="304" on="1"/>
        <pt x="344" y="304" on="1"/>
        <pt x="344" y="318" on="1"/>
        <pt x="344" y="350" on="0"/>
        <pt x="315" y="375" on="0"/>
        <pt x="278" y="375" on="1"/>
        <pt x="182" y="375" on="0"/>
        <pt x="69" y="368" on="1"/>
        <pt x="53" y="486" on="1"/>
        <pt x="182" y="511" on="0"/>
        <pt x="321" y="511" on="1"/>
        <pt x="404" y="511" on="0"/>
        <pt x="452" y="485" on="1"/>
        <pt x="510" y="511" on="0"/>
        <pt x="609" y="511" on="1"/>
        <pt x="739" y="511" on="0"/>
        <pt x="853" y="424" on="0"/>
        <pt x="853" y="335" on="1"/>
        <pt x="854" y="265" on="0"/>
        <pt x="775" y="201" on="0"/>
      </contour>
      <contour>
        <pt x="528" y="295" on="1"/>
        <pt x="629" y="295" on="1"/>
        <pt x="660" y="295" on="0"/>
        <pt x="678" y="314" on="0"/>
        <pt x="678" y="339" on="1"/>
        <pt x="678" y="368" on="0"/>
        <pt x="650" y="388" on="0"/>
        <pt x="615" y="388" on="1"/>
        <pt x="566" y="389" on="0"/>
        <pt x="530" y="353" on="0"/>
      </contour>
      <contour>
        <pt x="206" y="172" on="1"/>
        <pt x="206" y="155" on="1"/>
        <pt x="206" y="115" on="0"/>
        <pt x="252" y="115" on="1"/>
        <pt x="297" y="115" on="0"/>
        <pt x="352" y="153" on="1"/>
        <pt x="347" y="177" on="0"/>
        <pt x="345" y="211" on="1"/>
        <pt x="247" y="211" on="1"/>
        <pt x="206" y="210" on="0"/>
      </contour>
    </TTGlyph>
    <TTGlyph name="agrave" xMin="28" yMin="-13" xMax="533" yMax="761">
      <contour>
        <pt x="330" y="536" on="1"/>
        <pt x="89" y="642" on="1"/>
        <pt x="162" y="761" on="1"/>
        <pt x="381" y="612" on="1"/>
      </contour>
      <contour>
        <pt x="70" y="368" on="1"/>
        <pt x="54" y="486" on="1"/>
        <pt x="186" y="511" on="0"/>
        <pt x="326" y="511" on="1"/>
        <pt x="431" y="511" on="0"/>
        <pt x="533" y="424" on="0"/>
        <pt x="533" y="317" on="1"/>
        <pt x="533" y="0" on="1"/>
        <pt x="389" y="0" on="1"/>
        <pt x="372" y="73" on="1"/>
        <pt x="300" y="-13" on="0"/>
        <pt x="195" y="-13" on="1"/>
        <pt x="122" y="-13" on="0"/>
        <pt x="28" y="62" on="0"/>
        <pt x="28" y="129" on="1"/>
        <pt x="28" y="179" on="1"/>
        <pt x="28" y="238" on="0"/>
        <pt x="113" y="306" on="0"/>
        <pt x="187" y="306" on="1"/>
        <pt x="352" y="306" on="1"/>
        <pt x="352" y="318" on="1"/>
        <pt x="351" y="350" on="0"/>
        <pt x="322" y="375" on="0"/>
        <pt x="283" y="375" on="1"/>
        <pt x="186" y="375" on="0"/>
      </contour>
      <contour>
        <pt x="206" y="172" on="1"/>
        <pt x="206" y="155" on="1"/>
        <pt x="206" y="115" on="0"/>
        <pt x="255" y="115" on="1"/>
        <pt x="299" y="115" on="0"/>
        <pt x="352" y="149" on="1"/>
        <pt x="352" y="211" on="1"/>
        <pt x="248" y="211" on="1"/>
        <pt x="206" y="210" on="0"/>
      </contour>
    </TTGlyph>
    <TTGlyph name="amacron" xMin="28" yMin="-13" xMax="533" yMax="699">
      <contour>
        <pt x="450" y="588" on="1"/>
        <pt x="139" y="588" on="1"/>
        <pt x="139" y="699" on="1"/>
        <pt x="450" y="699" on="1"/>
      </contour>
      <contour>
        <pt x="70" y="368" on="1"/>
        <pt x="54" y="486" on="1"/>
        <pt x="186" y="511" on="0"/>
        <pt x="326" y="511" on="1"/>
        <pt x="431" y="511" on="0"/>
        <pt x="533" y="424" on="0"/>
        <pt x="533" y="317" on="1"/>
        <pt x="533" y="0" on="1"/>
        <pt x="389" y="0" on="1"/>
        <pt x="372" y="73" on="1"/>
        <pt x="300" y="-13" on="0"/>
        <pt x="195" y="-13" on="1"/>
        <pt x="122" y="-13" on="0"/>
        <pt x="28" y="62" on="0"/>
        <pt x="28" y="129" on="1"/>
        <pt x="28" y="179" on="1"/>
        <pt x="28" y="238" on="0"/>
        <pt x="113" y="306" on="0"/>
        <pt x="187" y="306" on="1"/>
        <pt x="352" y="306" on="1"/>
        <pt x="352" y="318" on="1"/>
        <pt x="351" y="350" on="0"/>
        <pt x="322" y="375" on="0"/>
        <pt x="283" y="375" on="1"/>
        <pt x="186" y="375" on="0"/>
      </contour>
      <contour>
        <pt x="206" y="172" on="1"/>
        <pt x="206" y="155" on="1"/>
        <pt x="206" y="115" on="0"/>
        <pt x="255" y="115" on="1"/>
        <pt x="299" y="115" on="0"/>
        <pt x="352" y="149" on="1"/>
        <pt x="352" y="211" on="1"/>
        <pt x="248" y="211" on="1"/>
        <pt x="206" y="210" on="0"/>
      </contour>
    </TTGlyph>
    <TTGlyph name="ampersand" xMin="42" yMin="-13" xMax="737" yMax="703">
      <contour>
        <pt x="717" y="129" on="1"/>
        <pt x="737" y="10" on="1"/>
        <pt x="685" y="-13" on="0"/>
        <pt x="597" y="-13" on="1"/>
        <pt x="500" y="-13" on="0"/>
        <pt x="466" y="54" on="1"/>
        <pt x="426" y="18" on="0"/>
        <pt x="331" y="-13" on="0"/>
        <pt x="255" y="-13" on="1"/>
        <pt x="141" y="-13" on="0"/>
        <pt x="42" y="73" on="0"/>
        <pt x="42" y="176" on="1"/>
        <pt x="42" y="258" on="0"/>
        <pt x="106" y="348" on="0"/>
        <pt x="179" y="355" on="1"/>
        <pt x="179" y="361" on="1"/>
        <pt x="118" y="367" on="0"/>
        <pt x="64" y="443" on="0"/>
        <pt x="64" y="520" on="1"/>
        <pt x="64" y="569" on="0"/>
        <pt x="84" y="634" on="0"/>
        <pt x="121" y="675" on="0"/>
        <pt x="191" y="696" on="0"/>
        <pt x="272" y="703" on="0"/>
        <pt x="337" y="703" on="1"/>
        <pt x="437" y="703" on="0"/>
        <pt x="502" y="690" on="1"/>
        <pt x="480" y="566" on="1"/>
        <pt x="366" y="569" on="0"/>
        <pt x="332" y="569" on="1"/>
        <pt x="284" y="569" on="0"/>
        <pt x="253" y="540" on="0"/>
        <pt x="253" y="491" on="1"/>
        <pt x="253" y="445" on="0"/>
        <pt x="282" y="413" on="0"/>
        <pt x="325" y="413" on="1"/>
        <pt x="457" y="413" on="1"/>
        <pt x="468" y="510" on="1"/>
        <pt x="622" y="510" on="1"/>
        <pt x="622" y="413" on="1"/>
        <pt x="718" y="413" on="1"/>
        <pt x="718" y="295" on="1"/>
        <pt x="622" y="295" on="1"/>
        <pt x="622" y="172" on="1"/>
        <pt x="622" y="148" on="0"/>
        <pt x="640" y="129" on="0"/>
        <pt x="662" y="129" on="1"/>
      </contour>
      <contour>
        <pt x="451" y="295" on="1"/>
        <pt x="314" y="295" on="1"/>
        <pt x="269" y="295" on="0"/>
        <pt x="241" y="263" on="0"/>
        <pt x="241" y="214" on="1"/>
        <pt x="241" y="164" on="0"/>
        <pt x="267" y="131" on="0"/>
        <pt x="311" y="132" on="1"/>
        <pt x="391" y="134" on="0"/>
        <pt x="451" y="160" on="1"/>
      </contour>
    </TTGlyph>
    <TTGlyph name="aogonek" xMin="28" yMin="-213" xMax="547" yMax="511">
      <contour>
        <pt x="535" y="-128" on="1"/>
        <pt x="547" y="-192" on="1"/>
        <pt x="470" y="-221" on="0"/>
        <pt x="380" y="-204" on="0"/>
        <pt x="347" y="-146" on="0"/>
        <pt x="360" y="-108" on="1"/>
        <pt x="378" y="-52" on="0"/>
        <pt x="460" y="0" on="1"/>
        <pt x="389" y="0" on="1"/>
        <pt x="372" y="73" on="1"/>
        <pt x="300" y="-13" on="0"/>
        <pt x="195" y="-13" on="1"/>
        <pt x="122" y="-13" on="0"/>
        <pt x="28" y="62" on="0"/>
        <pt x="28" y="129" on="1"/>
        <pt x="28" y="179" on="1"/>
        <pt x="28" y="238" on="0"/>
        <pt x="113" y="306" on="0"/>
        <pt x="187" y="306" on="1"/>
        <pt x="352" y="306" on="1"/>
        <pt x="352" y="318" on="1"/>
        <pt x="351" y="350" on="0"/>
        <pt x="322" y="375" on="0"/>
        <pt x="283" y="375" on="1"/>
        <pt x="186" y="375" on="0"/>
        <pt x="70" y="368" on="1"/>
        <pt x="54" y="486" on="1"/>
        <pt x="186" y="511" on="0"/>
        <pt x="326" y="511" on="1"/>
        <pt x="431" y="511" on="0"/>
        <pt x="533" y="424" on="0"/>
        <pt x="533" y="317" on="1"/>
        <pt x="533" y="0" on="1"/>
        <pt x="497" y="-56" on="0"/>
        <pt x="480" y="-93" on="1"/>
        <pt x="468" y="-120" on="0"/>
        <pt x="502" y="-137" on="0"/>
      </contour>
      <contour>
        <pt x="206" y="172" on="1"/>
        <pt x="206" y="155" on="1"/>
        <pt x="206" y="115" on="0"/>
        <pt x="255" y="115" on="1"/>
        <pt x="299" y="115" on="0"/>
        <pt x="352" y="149" on="1"/>
        <pt x="352" y="211" on="1"/>
        <pt x="248" y="211" on="1"/>
        <pt x="206" y="210" on="0"/>
      </contour>
    </TTGlyph>
    <TTGlyph name="approxequal" xMin="56" yMin="105" xMax="519" yMax="474">
      <contour>
        <pt x="167" y="310" on="1"/>
        <pt x="56" y="310" on="1"/>
        <pt x="37" y="394" on="0"/>
        <pt x="110" y="480" on="0"/>
        <pt x="182" y="474" on="1"/>
        <pt x="205" y="472" on="0"/>
        <pt x="356" y="431" on="0"/>
        <pt x="380" y="429" on="1"/>
        <pt x="391" y="428" on="0"/>
        <pt x="403" y="430" on="0"/>
        <pt x="408" y="445" on="0"/>
        <pt x="408" y="453" on="0"/>
        <pt x="408" y="469" on="1"/>
        <pt x="519" y="469" on="1"/>
        <pt x="538" y="387" on="0"/>
        <pt x="472" y="302" on="0"/>
        <pt x="394" y="305" on="1"/>
        <pt x="368" y="306" on="0"/>
        <pt x="218" y="349" on="0"/>
        <pt x="195" y="351" on="1"/>
        <pt x="184" y="352" on="0"/>
        <pt x="172" y="349" on="0"/>
        <pt x="167" y="334" on="0"/>
        <pt x="167" y="326" on="0"/>
      </contour>
      <contour>
        <pt x="167" y="109" on="1"/>
        <pt x="56" y="109" on="1"/>
        <pt x="37" y="194" on="0"/>
        <pt x="110" y="280" on="0"/>
        <pt x="182" y="274" on="1"/>
        <pt x="206" y="272" on="0"/>
        <pt x="357" y="230" on="0"/>
        <pt x="380" y="228" on="1"/>
        <pt x="391" y="227" on="0"/>
        <pt x="403" y="229" on="0"/>
        <pt x="408" y="245" on="0"/>
        <pt x="408" y="253" on="0"/>
        <pt x="408" y="269" on="1"/>
        <pt x="519" y="269" on="1"/>
        <pt x="538" y="187" on="0"/>
        <pt x="472" y="102" on="0"/>
        <pt x="394" y="105" on="1"/>
        <pt x="368" y="106" on="0"/>
        <pt x="218" y="149" on="0"/>
        <pt x="195" y="151" on="1"/>
        <pt x="184" y="152" on="0"/>
        <pt x="172" y="150" on="0"/>
        <pt x="167" y="134" on="0"/>
        <pt x="167" y="126" on="0"/>
      </contour>
    </TTGlyph>
    <TTGlyph name="aring" xMin="28" yMin="-13" xMax="533" yMax="768">
      <contour>
        <pt x="345" y="527" on="0"/>
        <pt x="243" y="527" on="0"/>
        <pt x="170" y="597" on="0"/>
        <pt x="170" y="648" on="1"/>
        <pt x="170" y="698" on="0"/>
        <pt x="243" y="768" on="0"/>
        <pt x="345" y="768" on="0"/>
        <pt x="418" y="698" on="0"/>
        <pt x="418" y="648" on="1"/>
        <pt x="418" y="597" on="0"/>
      </contour>
      <contour>
        <pt x="314" y="696" on="0"/>
        <pt x="274" y="696" on="0"/>
        <pt x="247" y="668" on="0"/>
        <pt x="247" y="648" on="1"/>
        <pt x="247" y="627" on="0"/>
        <pt x="274" y="600" on="0"/>
        <pt x="314" y="600" on="0"/>
        <pt x="341" y="627" on="0"/>
        <pt x="341" y="648" on="1"/>
        <pt x="341" y="668" on="0"/>
      </contour>
      <contour>
        <pt x="70" y="368" on="1"/>
        <pt x="54" y="486" on="1"/>
        <pt x="186" y="511" on="0"/>
        <pt x="326" y="511" on="1"/>
        <pt x="431" y="511" on="0"/>
        <pt x="533" y="424" on="0"/>
        <pt x="533" y="317" on="1"/>
        <pt x="533" y="0" on="1"/>
        <pt x="389" y="0" on="1"/>
        <pt x="372" y="73" on="1"/>
        <pt x="300" y="-13" on="0"/>
        <pt x="195" y="-13" on="1"/>
        <pt x="122" y="-13" on="0"/>
        <pt x="28" y="62" on="0"/>
        <pt x="28" y="129" on="1"/>
        <pt x="28" y="179" on="1"/>
        <pt x="28" y="238" on="0"/>
        <pt x="113" y="306" on="0"/>
        <pt x="187" y="306" on="1"/>
        <pt x="352" y="306" on="1"/>
        <pt x="352" y="318" on="1"/>
        <pt x="351" y="350" on="0"/>
        <pt x="322" y="375" on="0"/>
        <pt x="283" y="375" on="1"/>
        <pt x="186" y="375" on="0"/>
      </contour>
      <contour>
        <pt x="206" y="172" on="1"/>
        <pt x="206" y="155" on="1"/>
        <pt x="206" y="115" on="0"/>
        <pt x="255" y="115" on="1"/>
        <pt x="299" y="115" on="0"/>
        <pt x="352" y="149" on="1"/>
        <pt x="352" y="211" on="1"/>
        <pt x="248" y="211" on="1"/>
        <pt x="206" y="210" on="0"/>
      </contour>
    </TTGlyph>
    <TTGlyph name="asciicircum" xMin="30" yMin="371" xMax="451" yMax="641">
      <contour>
        <pt x="451" y="409" on="1"/>
        <pt x="381" y="371" on="1"/>
        <pt x="246" y="532" on="1"/>
        <pt x="238" y="532" on="1"/>
        <pt x="100" y="371" on="1"/>
        <pt x="30" y="409" on="1"/>
        <pt x="176" y="641" on="1"/>
        <pt x="308" y="641" on="1"/>
      </contour>
    </TTGlyph>
    <TTGlyph name="asciitilde" xMin="53" yMin="207" xMax="454" yMax="370">
      <contour>
        <pt x="131" y="211" on="1"/>
        <pt x="53" y="211" on="1"/>
        <pt x="40" y="290" on="0"/>
        <pt x="90" y="371" on="0"/>
        <pt x="136" y="370" on="1"/>
        <pt x="166" y="369" on="0"/>
        <pt x="334" y="325" on="0"/>
        <pt x="343" y="324" on="1"/>
        <pt x="365" y="320" on="0"/>
        <pt x="376" y="337" on="0"/>
        <pt x="376" y="365" on="1"/>
        <pt x="454" y="365" on="1"/>
        <pt x="467" y="288" on="0"/>
        <pt x="418" y="205" on="0"/>
        <pt x="371" y="207" on="1"/>
        <pt x="339" y="208" on="0"/>
        <pt x="171" y="252" on="0"/>
        <pt x="162" y="253" on="1"/>
        <pt x="140" y="256" on="0"/>
        <pt x="131" y="240" on="0"/>
      </contour>
    </TTGlyph>
    <TTGlyph name="asterisk" xMin="30" yMin="333" xMax="424" yMax="692">
      <contour>
        <pt x="262" y="520" on="1"/>
        <pt x="372" y="391" on="1"/>
        <pt x="294" y="333" on="1"/>
        <pt x="227" y="453" on="1"/>
        <pt x="161" y="333" on="1"/>
        <pt x="82" y="391" on="1"/>
        <pt x="193" y="519" on="1"/>
        <pt x="178" y="692" on="1"/>
        <pt x="276" y="692" on="1"/>
      </contour>
      <contour>
        <pt x="424" y="524" on="1"/>
        <pt x="303" y="498" on="1"/>
        <pt x="281" y="524" on="1"/>
        <pt x="280" y="567" on="1"/>
        <pt x="394" y="618" on="1"/>
      </contour>
      <contour>
        <pt x="174" y="567" on="1"/>
        <pt x="174" y="524" on="1"/>
        <pt x="152" y="498" on="1"/>
        <pt x="30" y="524" on="1"/>
        <pt x="60" y="617" on="1"/>
      </contour>
    </TTGlyph>
    <TTGlyph name="at" xMin="47" yMin="-74" xMax="732" yMax="610">
      <contour>
        <pt x="387" y="610" on="1"/>
        <pt x="545" y="610" on="1"/>
        <pt x="639" y="610" on="0"/>
        <pt x="732" y="528" on="0"/>
        <pt x="732" y="431" on="1"/>
        <pt x="732" y="137" on="1"/>
        <pt x="599" y="137" on="1"/>
        <pt x="584" y="202" on="1"/>
        <pt x="519" y="125" on="0"/>
        <pt x="420" y="125" on="1"/>
        <pt x="355" y="125" on="0"/>
        <pt x="271" y="191" on="0"/>
        <pt x="271" y="252" on="1"/>
        <pt x="271" y="298" on="1"/>
        <pt x="271" y="351" on="0"/>
        <pt x="344" y="412" on="0"/>
        <pt x="409" y="412" on="1"/>
        <pt x="565" y="412" on="1"/>
        <pt x="565" y="431" on="1"/>
        <pt x="565" y="460" on="0"/>
        <pt x="540" y="482" on="0"/>
        <pt x="507" y="482" on="1"/>
        <pt x="387" y="482" on="1"/>
        <pt x="352" y="482" on="0"/>
        <pt x="318" y="481" on="0"/>
        <pt x="273" y="474" on="0"/>
        <pt x="255" y="465" on="0"/>
        <pt x="230" y="442" on="0"/>
        <pt x="224" y="415" on="0"/>
        <pt x="214" y="366" on="0"/>
        <pt x="213" y="311" on="0"/>
        <pt x="213" y="269" on="1"/>
        <pt x="213" y="212" on="0"/>
        <pt x="216" y="146" on="0"/>
        <pt x="238" y="93" on="0"/>
        <pt x="254" y="71" on="0"/>
        <pt x="315" y="57" on="0"/>
        <pt x="361" y="56" on="0"/>
        <pt x="417" y="56" on="1"/>
        <pt x="429" y="56" on="0"/>
        <pt x="435" y="56" on="1"/>
        <pt x="732" y="56" on="1"/>
        <pt x="732" y="-59" on="1"/>
        <pt x="548" y="-74" on="0"/>
        <pt x="436" y="-74" on="1"/>
        <pt x="343" y="-74" on="0"/>
        <pt x="227" y="-67" on="0"/>
        <pt x="133" y="-37" on="0"/>
        <pt x="86" y="5" on="0"/>
        <pt x="55" y="90" on="0"/>
        <pt x="47" y="188" on="0"/>
        <pt x="47" y="269" on="1"/>
        <pt x="47" y="349" on="0"/>
        <pt x="54" y="447" on="0"/>
        <pt x="81" y="531" on="0"/>
        <pt x="122" y="572" on="0"/>
        <pt x="204" y="602" on="0"/>
        <pt x="306" y="610" on="0"/>
      </contour>
      <contour>
        <pt x="565" y="331" on="1"/>
        <pt x="472" y="327" on="1"/>
        <pt x="432" y="324" on="0"/>
        <pt x="432" y="293" on="1"/>
        <pt x="432" y="278" on="1"/>
        <pt x="432" y="242" on="0"/>
        <pt x="474" y="242" on="1"/>
        <pt x="525" y="242" on="0"/>
        <pt x="565" y="273" on="1"/>
      </contour>
    </TTGlyph>
    <TTGlyph name="atilde" xMin="28" yMin="-13" xMax="533" yMax="725">
      <contour>
        <pt x="187" y="568" on="1"/>
        <pt x="111" y="568" on="1"/>
        <pt x="98" y="645" on="0"/>
        <pt x="151" y="728" on="0"/>
        <pt x="194" y="725" on="1"/>
        <pt x="232" y="722" on="0"/>
        <pt x="339" y="684" on="0"/>
        <pt x="359" y="680" on="1"/>
        <pt x="381" y="676" on="0"/>
        <pt x="392" y="693" on="0"/>
        <pt x="392" y="720" on="1"/>
        <pt x="468" y="720" on="1"/>
        <pt x="481" y="645" on="0"/>
        <pt x="432" y="561" on="0"/>
        <pt x="385" y="564" on="1"/>
        <pt x="346" y="567" on="0"/>
        <pt x="235" y="607" on="0"/>
        <pt x="219" y="610" on="1"/>
        <pt x="197" y="613" on="0"/>
        <pt x="187" y="596" on="0"/>
      </contour>
      <contour>
        <pt x="70" y="368" on="1"/>
        <pt x="54" y="486" on="1"/>
        <pt x="186" y="511" on="0"/>
        <pt x="326" y="511" on="1"/>
        <pt x="431" y="511" on="0"/>
        <pt x="533" y="424" on="0"/>
        <pt x="533" y="317" on="1"/>
        <pt x="533" y="0" on="1"/>
        <pt x="389" y="0" on="1"/>
        <pt x="372" y="73" on="1"/>
        <pt x="300" y="-13" on="0"/>
        <pt x="195" y="-13" on="1"/>
        <pt x="122" y="-13" on="0"/>
        <pt x="28" y="62" on="0"/>
        <pt x="28" y="129" on="1"/>
        <pt x="28" y="179" on="1"/>
        <pt x="28" y="238" on="0"/>
        <pt x="113" y="306" on="0"/>
        <pt x="187" y="306" on="1"/>
        <pt x="352" y="306" on="1"/>
        <pt x="352" y="318" on="1"/>
        <pt x="351" y="350" on="0"/>
        <pt x="322" y="375" on="0"/>
        <pt x="283" y="375" on="1"/>
        <pt x="186" y="375" on="0"/>
      </contour>
      <contour>
        <pt x="206" y="172" on="1"/>
        <pt x="206" y="155" on="1"/>
        <pt x="206" y="115" on="0"/>
        <pt x="255" y="115" on="1"/>
        <pt x="299" y="115" on="0"/>
        <pt x="352" y="149" on="1"/>
        <pt x="352" y="211" on="1"/>
        <pt x="248" y="211" on="1"/>
        <pt x="206" y="210" on="0"/>
      </contour>
    </TTGlyph>
    <TTGlyph name="b" xMin="50" yMin="-12" xMax="573" yMax="700">
      <contour>
        <pt x="233" y="700" on="1"/>
        <pt x="233" y="553" on="1"/>
        <pt x="235" y="487" on="0"/>
        <pt x="219" y="434" on="1"/>
        <pt x="298" y="511" on="0"/>
        <pt x="387" y="511" on="1"/>
        <pt x="488" y="511" on="0"/>
        <pt x="573" y="392" on="0"/>
        <pt x="573" y="254" on="1"/>
        <pt x="573" y="208" on="0"/>
        <pt x="561" y="134" on="0"/>
        <pt x="527" y="64" on="0"/>
        <pt x="471" y="17" on="0"/>
        <pt x="378" y="-12" on="0"/>
        <pt x="316" y="-12" on="1"/>
        <pt x="252" y="-12" on="0"/>
        <pt x="90" y="9" on="0"/>
        <pt x="50" y="28" on="1"/>
        <pt x="50" y="700" on="1"/>
      </contour>
      <contour>
        <pt x="231" y="346" on="1"/>
        <pt x="231" y="121" on="1"/>
        <pt x="275" y="113" on="0"/>
        <pt x="313" y="115" on="1"/>
        <pt x="355" y="117" on="0"/>
        <pt x="386" y="173" on="0"/>
        <pt x="386" y="253" on="1"/>
        <pt x="386" y="324" on="0"/>
        <pt x="357" y="371" on="0"/>
        <pt x="313" y="371" on="1"/>
        <pt x="277" y="371" on="0"/>
      </contour>
    </TTGlyph>
    <TTGlyph name="backslash" xMin="17" yMin="-76" xMax="554" yMax="690">
      <contour>
        <pt x="554" y="-76" on="1"/>
        <pt x="410" y="-76" on="1"/>
        <pt x="17" y="690" on="1"/>
        <pt x="161" y="690" on="1"/>
      </contour>
    </TTGlyph>
    <TTGlyph name="bar" xMin="71" yMin="-169" xMax="198" yMax="781">
      <contour>
        <pt x="198" y="-169" on="1"/>
        <pt x="71" y="-169" on="1"/>
        <pt x="71" y="781" on="1"/>
        <pt x="198" y="781" on="1"/>
      </contour>
    </TTGlyph>
    <TTGlyph name="braceleft" xMin="28" yMin="-165" xMax="322" yMax="768">
      <contour>
        <pt x="318" y="768" on="1"/>
        <pt x="318" y="657" on="1"/>
        <pt x="276" y="657" on="0"/>
        <pt x="249" y="640" on="0"/>
        <pt x="249" y="608" on="1"/>
        <pt x="249" y="471" on="1"/>
        <pt x="250" y="404" on="0"/>
        <pt x="203" y="337" on="0"/>
        <pt x="139" y="328" on="1"/>
        <pt x="203" y="311" on="0"/>
        <pt x="252" y="245" on="0"/>
        <pt x="253" y="189" on="1"/>
        <pt x="253" y="-8" on="1"/>
        <pt x="253" y="-39" on="0"/>
        <pt x="280" y="-54" on="0"/>
        <pt x="322" y="-54" on="1"/>
        <pt x="322" y="-165" on="1"/>
        <pt x="199" y="-183" on="0"/>
        <pt x="80" y="-103" on="0"/>
        <pt x="80" y="-22" on="1"/>
        <pt x="80" y="208" on="1"/>
        <pt x="80" y="230" on="0"/>
        <pt x="66" y="254" on="0"/>
        <pt x="52" y="261" on="0"/>
        <pt x="28" y="271" on="1"/>
        <pt x="28" y="385" on="1"/>
        <pt x="45" y="391" on="0"/>
        <pt x="52" y="393" on="0"/>
        <pt x="70" y="403" on="0"/>
        <pt x="72" y="415" on="0"/>
        <pt x="76" y="435" on="0"/>
        <pt x="76" y="452" on="1"/>
        <pt x="76" y="625" on="1"/>
        <pt x="76" y="706" on="0"/>
        <pt x="195" y="786" on="0"/>
      </contour>
    </TTGlyph>
    <TTGlyph name="braceright" xMin="29" yMin="-165" xMax="323" yMax="768">
      <contour>
        <pt x="33" y="657" on="1"/>
        <pt x="33" y="768" on="1"/>
        <pt x="155" y="786" on="0"/>
        <pt x="275" y="706" on="0"/>
        <pt x="275" y="625" on="1"/>
        <pt x="275" y="452" on="1"/>
        <pt x="275" y="414" on="0"/>
        <pt x="290" y="396" on="0"/>
        <pt x="323" y="385" on="1"/>
        <pt x="323" y="271" on="1"/>
        <pt x="299" y="261" on="0"/>
        <pt x="285" y="254" on="0"/>
        <pt x="271" y="230" on="0"/>
        <pt x="271" y="208" on="1"/>
        <pt x="271" y="-22" on="1"/>
        <pt x="271" y="-103" on="0"/>
        <pt x="151" y="-183" on="0"/>
        <pt x="29" y="-165" on="1"/>
        <pt x="29" y="-54" on="1"/>
        <pt x="71" y="-54" on="0"/>
        <pt x="98" y="-39" on="0"/>
        <pt x="98" y="-8" on="1"/>
        <pt x="98" y="189" on="1"/>
        <pt x="99" y="245" on="0"/>
        <pt x="148" y="311" on="0"/>
        <pt x="212" y="328" on="1"/>
        <pt x="148" y="337" on="0"/>
        <pt x="100" y="404" on="0"/>
        <pt x="102" y="471" on="1"/>
        <pt x="102" y="608" on="1"/>
        <pt x="102" y="640" on="0"/>
        <pt x="75" y="657" on="0"/>
      </contour>
    </TTGlyph>
    <TTGlyph name="bracketleft" xMin="68" yMin="-165" xMax="327" yMax="768">
      <contour>
        <pt x="327" y="656" on="1"/>
        <pt x="258" y="656" on="1"/>
        <pt x="238" y="656" on="0"/>
        <pt x="238" y="636" on="1"/>
        <pt x="238" y="-33" on="1"/>
        <pt x="238" y="-53" on="0"/>
        <pt x="258" y="-53" on="1"/>
        <pt x="327" y="-53" on="1"/>
        <pt x="327" y="-165" on="1"/>
        <pt x="158" y="-165" on="1"/>
        <pt x="115" y="-165" on="0"/>
        <pt x="68" y="-124" on="0"/>
        <pt x="68" y="-75" on="1"/>
        <pt x="68" y="678" on="1"/>
        <pt x="68" y="718" on="0"/>
        <pt x="118" y="768" on="0"/>
        <pt x="158" y="768" on="1"/>
        <pt x="327" y="768" on="1"/>
      </contour>
    </TTGlyph>
    <TTGlyph name="bracketright" xMin="28" yMin="-165" xMax="287" yMax="768">
      <contour>
        <pt x="28" y="768" on="1"/>
        <pt x="197" y="768" on="1"/>
        <pt x="237" y="768" on="0"/>
        <pt x="287" y="718" on="0"/>
        <pt x="287" y="678" on="1"/>
        <pt x="287" y="-75" on="1"/>
        <pt x="287" y="-115" on="0"/>
        <pt x="237" y="-165" on="0"/>
        <pt x="197" y="-165" on="1"/>
        <pt x="28" y="-165" on="1"/>
        <pt x="28" y="-53" on="1"/>
        <pt x="97" y="-53" on="1"/>
        <pt x="118" y="-53" on="0"/>
        <pt x="118" y="-33" on="1"/>
        <pt x="118" y="636" on="1"/>
        <pt x="118" y="656" on="0"/>
        <pt x="97" y="656" on="1"/>
        <pt x="28" y="656" on="1"/>
      </contour>
    </TTGlyph>
    <TTGlyph name="breve" xMin="29" yMin="540" xMax="374" yMax="714">
      <contour>
        <pt x="289" y="714" on="1"/>
        <pt x="374" y="702" on="1"/>
        <pt x="384" y="636" on="0"/>
        <pt x="288" y="540" on="0"/>
        <pt x="116" y="540" on="0"/>
        <pt x="19" y="636" on="0"/>
        <pt x="29" y="702" on="1"/>
        <pt x="114" y="714" on="1"/>
        <pt x="114" y="682" on="0"/>
        <pt x="156" y="652" on="0"/>
        <pt x="248" y="652" on="0"/>
        <pt x="289" y="682" on="0"/>
      </contour>
    </TTGlyph>
    <TTGlyph name="brevecy" xMin="29" yMin="540" xMax="374" yMax="704">
      <contour>
        <pt x="259" y="704" on="1"/>
        <pt x="374" y="704" on="1"/>
        <pt x="384" y="639" on="0"/>
        <pt x="287" y="540" on="0"/>
        <pt x="117" y="540" on="0"/>
        <pt x="19" y="639" on="0"/>
        <pt x="29" y="704" on="1"/>
        <pt x="144" y="704" on="1"/>
        <pt x="140" y="661" on="0"/>
        <pt x="169" y="625" on="0"/>
        <pt x="202" y="625" on="1"/>
        <pt x="234" y="625" on="0"/>
        <pt x="263" y="661" on="0"/>
      </contour>
    </TTGlyph>
    <TTGlyph name="brokenbar" xMin="72" yMin="-169" xMax="199" yMax="781">
      <contour>
        <pt x="199" y="381" on="1"/>
        <pt x="72" y="381" on="1"/>
        <pt x="72" y="781" on="1"/>
        <pt x="199" y="781" on="1"/>
      </contour>
      <contour>
        <pt x="199" y="-169" on="1"/>
        <pt x="72" y="-169" on="1"/>
        <pt x="72" y="231" on="1"/>
        <pt x="199" y="231" on="1"/>
      </contour>
    </TTGlyph>
    <TTGlyph name="bullet" xMin="64" yMin="143" xMax="313" yMax="392">
      <contour>
        <pt x="184" y="392" on="1"/>
        <pt x="200" y="392" on="1"/>
        <pt x="263" y="392" on="0"/>
        <pt x="313" y="342" on="0"/>
        <pt x="313" y="279" on="1"/>
        <pt x="313" y="263" on="1"/>
        <pt x="313" y="195" on="0"/>
        <pt x="263" y="143" on="0"/>
        <pt x="200" y="143" on="1"/>
        <pt x="184" y="143" on="1"/>
        <pt x="116" y="143" on="0"/>
        <pt x="64" y="195" on="0"/>
        <pt x="64" y="263" on="1"/>
        <pt x="64" y="279" on="1"/>
        <pt x="64" y="342" on="0"/>
        <pt x="116" y="392" on="0"/>
      </contour>
    </TTGlyph>
    <TTGlyph name="c" xMin="32" yMin="-12" xMax="496" yMax="511">
      <contour>
        <pt x="479" y="141" on="1"/>
        <pt x="496" y="26" on="1"/>
        <pt x="419" y="-12" on="0"/>
        <pt x="290" y="-12" on="1"/>
        <pt x="148" y="-12" on="0"/>
        <pt x="32" y="105" on="0"/>
        <pt x="32" y="393" on="0"/>
        <pt x="149" y="511" on="0"/>
        <pt x="292" y="511" on="1"/>
        <pt x="413" y="511" on="0"/>
        <pt x="488" y="477" on="1"/>
        <pt x="470" y="364" on="1"/>
        <pt x="323" y="365" on="1"/>
        <pt x="265" y="365" on="0"/>
        <pt x="223" y="317" on="0"/>
        <pt x="223" y="181" on="0"/>
        <pt x="265" y="133" on="0"/>
        <pt x="323" y="133" on="1"/>
        <pt x="410" y="133" on="0"/>
      </contour>
    </TTGlyph>
    <TTGlyph name="cacute" xMin="32" yMin="-12" xMax="496" yMax="761">
      <contour>
        <pt x="483" y="642" on="1"/>
        <pt x="242" y="536" on="1"/>
        <pt x="191" y="612" on="1"/>
        <pt x="410" y="761" on="1"/>
      </contour>
      <contour>
        <pt x="479" y="141" on="1"/>
        <pt x="496" y="26" on="1"/>
        <pt x="419" y="-12" on="0"/>
        <pt x="290" y="-12" on="1"/>
        <pt x="148" y="-12" on="0"/>
        <pt x="32" y="105" on="0"/>
        <pt x="32" y="393" on="0"/>
        <pt x="149" y="511" on="0"/>
        <pt x="292" y="511" on="1"/>
        <pt x="413" y="511" on="0"/>
        <pt x="488" y="477" on="1"/>
        <pt x="470" y="364" on="1"/>
        <pt x="323" y="365" on="1"/>
        <pt x="265" y="365" on="0"/>
        <pt x="223" y="317" on="0"/>
        <pt x="223" y="181" on="0"/>
        <pt x="265" y="133" on="0"/>
        <pt x="323" y="133" on="1"/>
        <pt x="410" y="133" on="0"/>
      </contour>
    </TTGlyph>
    <TTGlyph name="caron" xMin="38" yMin="548" xMax="428" yMax="748">
      <contour>
        <pt x="428" y="679" on="1"/>
        <pt x="270" y="548" on="1"/>
        <pt x="197" y="548" on="1"/>
        <pt x="38" y="679" on="1"/>
        <pt x="84" y="748" on="1"/>
        <pt x="229" y="670" on="1"/>
        <pt x="237" y="670" on="1"/>
        <pt x="383" y="748" on="1"/>
      </contour>
    </TTGlyph>
    <TTGlyph name="ccaron" xMin="32" yMin="-12" xMax="496" yMax="751">
      <contour>
        <pt x="480" y="683" on="1"/>
        <pt x="321" y="552" on="1"/>
        <pt x="249" y="552" on="1"/>
        <pt x="90" y="683" on="1"/>
        <pt x="136" y="751" on="1"/>
        <pt x="281" y="674" on="1"/>
        <pt x="289" y="674" on="1"/>
        <pt x="435" y="751" on="1"/>
      </contour>
      <contour>
        <pt x="479" y="141" on="1"/>
        <pt x="496" y="26" on="1"/>
        <pt x="419" y="-12" on="0"/>
        <pt x="290" y="-12" on="1"/>
        <pt x="148" y="-12" on="0"/>
        <pt x="32" y="105" on="0"/>
        <pt x="32" y="393" on="0"/>
        <pt x="149" y="511" on="0"/>
        <pt x="292" y="511" on="1"/>
        <pt x="413" y="511" on="0"/>
        <pt x="488" y="477" on="1"/>
        <pt x="470" y="364" on="1"/>
        <pt x="323" y="365" on="1"/>
        <pt x="265" y="365" on="0"/>
        <pt x="223" y="317" on="0"/>
        <pt x="223" y="181" on="0"/>
        <pt x="265" y="133" on="0"/>
        <pt x="323" y="133" on="1"/>
        <pt x="410" y="133" on="0"/>
      </contour>
    </TTGlyph>
    <TTGlyph name="ccedilla" xMin="32" yMin="-257" xMax="496" yMax="511">
      <contour>
        <pt x="479" y="141" on="1"/>
        <pt x="496" y="26" on="1"/>
        <pt x="419" y="-12" on="0"/>
        <pt x="290" y="-12" on="1"/>
        <pt x="148" y="-12" on="0"/>
        <pt x="32" y="105" on="0"/>
        <pt x="32" y="393" on="0"/>
        <pt x="149" y="511" on="0"/>
        <pt x="292" y="511" on="1"/>
        <pt x="413" y="511" on="0"/>
        <pt x="488" y="477" on="1"/>
        <pt x="470" y="364" on="1"/>
        <pt x="323" y="365" on="1"/>
        <pt x="265" y="365" on="0"/>
        <pt x="223" y="317" on="0"/>
        <pt x="223" y="181" on="0"/>
        <pt x="265" y="133" on="0"/>
        <pt x="323" y="133" on="1"/>
        <pt x="410" y="133" on="0"/>
      </contour>
      <contour>
        <pt x="196" y="-117" on="1"/>
        <pt x="213" y="-51" on="1"/>
        <pt x="299" y="-38" on="0"/>
        <pt x="377" y="-62" on="0"/>
        <pt x="375" y="-116" on="1"/>
        <pt x="371" y="-195" on="0"/>
        <pt x="248" y="-269" on="0"/>
        <pt x="156" y="-257" on="1"/>
        <pt x="177" y="-185" on="1"/>
        <pt x="259" y="-187" on="0"/>
        <pt x="263" y="-131" on="1"/>
        <pt x="264" y="-120" on="0"/>
        <pt x="245" y="-117" on="0"/>
      </contour>
    </TTGlyph>
    <TTGlyph name="cdotaccent" xMin="32" yMin="-12" xMax="496" yMax="716">
      <contour>
        <pt x="258" y="716" on="1"/>
        <pt x="313" y="716" on="1"/>
        <pt x="364" y="716" on="0"/>
        <pt x="364" y="666" on="1"/>
        <pt x="364" y="617" on="1"/>
        <pt x="364" y="567" on="0"/>
        <pt x="313" y="567" on="1"/>
        <pt x="258" y="567" on="1"/>
        <pt x="206" y="567" on="0"/>
        <pt x="206" y="617" on="1"/>
        <pt x="206" y="666" on="1"/>
        <pt x="206" y="716" on="0"/>
      </contour>
      <contour>
        <pt x="479" y="141" on="1"/>
        <pt x="496" y="26" on="1"/>
        <pt x="419" y="-12" on="0"/>
        <pt x="290" y="-12" on="1"/>
        <pt x="148" y="-12" on="0"/>
        <pt x="32" y="105" on="0"/>
        <pt x="32" y="393" on="0"/>
        <pt x="149" y="511" on="0"/>
        <pt x="292" y="511" on="1"/>
        <pt x="413" y="511" on="0"/>
        <pt x="488" y="477" on="1"/>
        <pt x="470" y="364" on="1"/>
        <pt x="323" y="365" on="1"/>
        <pt x="265" y="365" on="0"/>
        <pt x="223" y="317" on="0"/>
        <pt x="223" y="181" on="0"/>
        <pt x="265" y="133" on="0"/>
        <pt x="323" y="133" on="1"/>
        <pt x="410" y="133" on="0"/>
      </contour>
    </TTGlyph>
    <TTGlyph name="cedilla" xMin="19" yMin="-242" xMax="237" yMax="-34">
      <contour>
        <pt x="59" y="-101" on="1"/>
        <pt x="76" y="-35" on="1"/>
        <pt x="162" y="-22" on="0"/>
        <pt x="240" y="-47" on="0"/>
        <pt x="237" y="-100" on="1"/>
        <pt x="234" y="-179" on="0"/>
        <pt x="111" y="-254" on="0"/>
        <pt x="19" y="-242" on="1"/>
        <pt x="39" y="-170" on="1"/>
        <pt x="121" y="-170" on="0"/>
        <pt x="126" y="-116" on="1"/>
        <pt x="127" y="-105" on="0"/>
        <pt x="107" y="-101" on="0"/>
      </contour>
    </TTGlyph>
    <TTGlyph name="cent" xMin="31" yMin="0" xMax="498" yMax="690">
      <contour>
        <pt x="482" y="232" on="1"/>
        <pt x="498" y="124" on="1"/>
        <pt x="435" y="93" on="0"/>
        <pt x="335" y="88" on="1"/>
        <pt x="325" y="0" on="1"/>
        <pt x="190" y="0" on="1"/>
        <pt x="201" y="93" on="1"/>
        <pt x="109" y="109" on="0"/>
        <pt x="31" y="229" on="0"/>
        <pt x="31" y="348" on="1"/>
        <pt x="31" y="485" on="0"/>
        <pt x="137" y="604" on="0"/>
        <pt x="265" y="608" on="1"/>
        <pt x="274" y="690" on="1"/>
        <pt x="410" y="690" on="1"/>
        <pt x="399" y="601" on="1"/>
        <pt x="456" y="591" on="0"/>
        <pt x="491" y="575" on="1"/>
        <pt x="472" y="468" on="1"/>
        <pt x="413" y="470" on="0"/>
        <pt x="324" y="470" on="1"/>
        <pt x="257" y="470" on="0"/>
        <pt x="211" y="421" on="0"/>
        <pt x="211" y="348" on="1"/>
        <pt x="211" y="274" on="0"/>
        <pt x="257" y="224" on="0"/>
        <pt x="324" y="224" on="1"/>
        <pt x="412" y="224" on="0"/>
      </contour>
    </TTGlyph>
    <TTGlyph name="circumflex" xMin="30" yMin="529" xMax="433" yMax="730">
      <contour>
        <pt x="433" y="592" on="1"/>
        <pt x="388" y="529" on="1"/>
        <pt x="237" y="623" on="1"/>
        <pt x="229" y="623" on="1"/>
        <pt x="76" y="529" on="1"/>
        <pt x="30" y="597" on="1"/>
        <pt x="168" y="730" on="1"/>
        <pt x="299" y="730" on="1"/>
      </contour>
    </TTGlyph>
    <TTGlyph name="colon" xMin="43" yMin="1" xMax="212" yMax="457">
      <contour>
        <pt x="106" y="457" on="1"/>
        <pt x="149" y="457" on="1"/>
        <pt x="185" y="457" on="0"/>
        <pt x="212" y="430" on="0"/>
        <pt x="212" y="394" on="1"/>
        <pt x="212" y="350" on="1"/>
        <pt x="212" y="314" on="0"/>
        <pt x="185" y="287" on="0"/>
        <pt x="149" y="287" on="1"/>
        <pt x="106" y="287" on="1"/>
        <pt x="70" y="287" on="0"/>
        <pt x="43" y="314" on="0"/>
        <pt x="43" y="350" on="1"/>
        <pt x="43" y="394" on="1"/>
        <pt x="43" y="430" on="0"/>
        <pt x="70" y="457" on="0"/>
      </contour>
      <contour>
        <pt x="106" y="171" on="1"/>
        <pt x="149" y="171" on="1"/>
        <pt x="185" y="171" on="0"/>
        <pt x="212" y="143" on="0"/>
        <pt x="212" y="108" on="1"/>
        <pt x="212" y="64" on="1"/>
        <pt x="212" y="28" on="0"/>
        <pt x="185" y="1" on="0"/>
        <pt x="149" y="1" on="1"/>
        <pt x="106" y="1" on="1"/>
        <pt x="70" y="1" on="0"/>
        <pt x="43" y="28" on="0"/>
        <pt x="43" y="64" on="1"/>
        <pt x="43" y="108" on="1"/>
        <pt x="43" y="143" on="0"/>
        <pt x="70" y="171" on="0"/>
      </contour>
    </TTGlyph>
    <TTGlyph name="comma" xMin="40" yMin="-155" xMax="206" yMax="170">
      <contour>
        <pt x="105" y="170" on="1"/>
        <pt x="143" y="170" on="1"/>
        <pt x="178" y="170" on="0"/>
        <pt x="205" y="143" on="0"/>
        <pt x="206" y="107" on="1"/>
        <pt x="206" y="43" on="1"/>
        <pt x="206" y="-21" on="0"/>
        <pt x="177" y="-110" on="0"/>
        <pt x="146" y="-155" on="1"/>
        <pt x="76" y="-133" on="1"/>
        <pt x="91" y="-81" on="0"/>
        <pt x="93" y="0" on="1"/>
        <pt x="42" y="0" on="0"/>
        <pt x="40" y="56" on="1"/>
        <pt x="42" y="107" on="1"/>
        <pt x="44" y="143" on="0"/>
        <pt x="70" y="170" on="0"/>
      </contour>
    </TTGlyph>
    <TTGlyph name="copyright" xMin="34" yMin="-14" xMax="760" yMax="704">
      <contour>
        <pt x="243" y="704" on="0"/>
        <pt x="551" y="704" on="0"/>
        <pt x="760" y="500" on="0"/>
        <pt x="760" y="190" on="0"/>
        <pt x="551" y="-14" on="0"/>
        <pt x="243" y="-14" on="0"/>
        <pt x="34" y="190" on="0"/>
        <pt x="34" y="500" on="0"/>
      </contour>
      <contour>
        <pt x="397" y="618" on="1"/>
        <pt x="284" y="618" on="0"/>
        <pt x="124" y="462" on="0"/>
        <pt x="124" y="228" on="0"/>
        <pt x="284" y="72" on="0"/>
        <pt x="397" y="72" on="1"/>
        <pt x="512" y="72" on="0"/>
        <pt x="671" y="228" on="0"/>
        <pt x="671" y="462" on="0"/>
        <pt x="512" y="618" on="0"/>
      </contour>
      <contour>
        <pt x="539" y="259" on="1"/>
        <pt x="549" y="164" on="1"/>
        <pt x="491" y="145" on="0"/>
        <pt x="402" y="145" on="1"/>
        <pt x="294" y="145" on="0"/>
        <pt x="207" y="235" on="0"/>
        <pt x="207" y="457" on="0"/>
        <pt x="295" y="547" on="0"/>
        <pt x="402" y="547" on="1"/>
        <pt x="476" y="547" on="0"/>
        <pt x="540" y="532" on="1"/>
        <pt x="529" y="436" on="1"/>
        <pt x="509" y="436" on="0"/>
        <pt x="431" y="437" on="0"/>
        <pt x="401" y="437" on="1"/>
        <pt x="366" y="437" on="0"/>
        <pt x="345" y="402" on="0"/>
        <pt x="345" y="290" on="0"/>
        <pt x="366" y="256" on="0"/>
        <pt x="401" y="256" on="1"/>
        <pt x="497" y="256" on="0"/>
      </contour>
    </TTGlyph>
    <TTGlyph name="currency" xMin="38" yMin="104" xMax="538" yMax="598">
      <contour>
        <pt x="538" y="524" on="1"/>
        <pt x="468" y="454" on="1"/>
        <pt x="495" y="406" on="0"/>
        <pt x="495" y="352" on="1"/>
        <pt x="495" y="296" on="0"/>
        <pt x="467" y="248" on="1"/>
        <pt x="538" y="178" on="1"/>
        <pt x="463" y="104" on="1"/>
        <pt x="393" y="174" on="1"/>
        <pt x="345" y="146" on="0"/>
        <pt x="289" y="146" on="1"/>
        <pt x="235" y="146" on="0"/>
        <pt x="186" y="173" on="1"/>
        <pt x="118" y="105" on="1"/>
        <pt x="38" y="185" on="1"/>
        <pt x="108" y="254" on="1"/>
        <pt x="83" y="299" on="0"/>
        <pt x="83" y="352" on="1"/>
        <pt x="83" y="409" on="0"/>
        <pt x="111" y="456" on="1"/>
        <pt x="43" y="524" on="1"/>
        <pt x="118" y="598" on="1"/>
        <pt x="186" y="530" on="1"/>
        <pt x="233" y="558" on="0"/>
        <pt x="345" y="558" on="0"/>
        <pt x="395" y="529" on="1"/>
        <pt x="464" y="598" on="1"/>
      </contour>
      <contour>
        <pt x="248" y="249" on="0"/>
        <pt x="330" y="249" on="0"/>
        <pt x="391" y="310" on="0"/>
        <pt x="391" y="396" on="0"/>
        <pt x="330" y="457" on="0"/>
        <pt x="248" y="457" on="0"/>
        <pt x="187" y="396" on="0"/>
        <pt x="187" y="310" on="0"/>
      </contour>
    </TTGlyph>
    <TTGlyph name="d" xMin="34" yMin="-12" xMax="557" yMax="700">
      <contour>
        <pt x="557" y="700" on="1"/>
        <pt x="557" y="0" on="1"/>
        <pt x="413" y="0" on="1"/>
        <pt x="398" y="77" on="1"/>
        <pt x="337" y="-12" on="0"/>
        <pt x="212" y="-12" on="1"/>
        <pt x="119" y="-12" on="0"/>
        <pt x="34" y="123" on="0"/>
        <pt x="34" y="254" on="1"/>
        <pt x="34" y="399" on="0"/>
        <pt x="126" y="511" on="0"/>
        <pt x="224" y="511" on="1"/>
        <pt x="321" y="511" on="0"/>
        <pt x="379" y="468" on="1"/>
        <pt x="375" y="536" on="0"/>
        <pt x="375" y="574" on="1"/>
        <pt x="375" y="700" on="1"/>
      </contour>
      <contour>
        <pt x="375" y="161" on="1"/>
        <pt x="375" y="370" on="1"/>
        <pt x="325" y="386" on="0"/>
        <pt x="292" y="386" on="1"/>
        <pt x="251" y="386" on="0"/>
        <pt x="221" y="337" on="0"/>
        <pt x="221" y="255" on="1"/>
        <pt x="221" y="181" on="0"/>
        <pt x="250" y="135" on="0"/>
        <pt x="288" y="135" on="1"/>
        <pt x="334" y="135" on="0"/>
      </contour>
    </TTGlyph>
    <TTGlyph name="dagger" xMin="26" yMin="-110" xMax="453" yMax="691">
      <contour>
        <pt x="312" y="-110" on="1"/>
        <pt x="167" y="-110" on="1"/>
        <pt x="176" y="401" on="1"/>
        <pt x="176" y="484" on="1"/>
        <pt x="167" y="691" on="1"/>
        <pt x="312" y="691" on="1"/>
        <pt x="304" y="484" on="1"/>
        <pt x="304" y="401" on="1"/>
      </contour>
      <contour>
        <pt x="26" y="368" on="1"/>
        <pt x="26" y="497" on="1"/>
        <pt x="155" y="497" on="1"/>
        <pt x="155" y="387" on="1"/>
      </contour>
      <contour>
        <pt x="453" y="497" on="1"/>
        <pt x="453" y="368" on="1"/>
        <pt x="324" y="387" on="1"/>
        <pt x="324" y="497" on="1"/>
      </contour>
    </TTGlyph>
    <TTGlyph name="daggerdbl" xMin="45" yMin="-110" xMax="471" yMax="691">
      <contour>
        <pt x="321" y="496" on="1"/>
        <pt x="321" y="95" on="1"/>
        <pt x="331" y="-110" on="1"/>
        <pt x="185" y="-110" on="1"/>
        <pt x="194" y="95" on="1"/>
        <pt x="194" y="496" on="1"/>
        <pt x="185" y="691" on="1"/>
        <pt x="331" y="691" on="1"/>
      </contour>
      <contour>
        <pt x="174" y="387" on="1"/>
        <pt x="45" y="368" on="1"/>
        <pt x="45" y="497" on="1"/>
        <pt x="174" y="497" on="1"/>
      </contour>
      <contour>
        <pt x="471" y="368" on="1"/>
        <pt x="342" y="387" on="1"/>
        <pt x="342" y="497" on="1"/>
        <pt x="471" y="497" on="1"/>
      </contour>
      <contour>
        <pt x="174" y="194" on="1"/>
        <pt x="174" y="84" on="1"/>
        <pt x="45" y="84" on="1"/>
        <pt x="45" y="213" on="1"/>
      </contour>
      <contour>
        <pt x="471" y="84" on="1"/>
        <pt x="342" y="84" on="1"/>
        <pt x="342" y="194" on="1"/>
        <pt x="471" y="213" on="1"/>
      </contour>
    </TTGlyph>
    <TTGlyph name="dcaron" xMin="34" yMin="-12" xMax="734" yMax="703">
      <contour>
        <pt x="734" y="658" on="1"/>
        <pt x="734" y="613" on="1"/>
        <pt x="734" y="535" on="0"/>
        <pt x="685" y="473" on="1"/>
        <pt x="627" y="488" on="1"/>
        <pt x="641" y="527" on="0"/>
        <pt x="641" y="583" on="1"/>
        <pt x="600" y="583" on="0"/>
        <pt x="598" y="622" on="1"/>
        <pt x="600" y="658" on="1"/>
        <pt x="601" y="683" on="0"/>
        <pt x="623" y="703" on="0"/>
        <pt x="652" y="703" on="1"/>
        <pt x="683" y="703" on="1"/>
        <pt x="712" y="703" on="0"/>
        <pt x="734" y="683" on="0"/>
      </contour>
      <contour>
        <pt x="375" y="700" on="1"/>
        <pt x="557" y="700" on="1"/>
        <pt x="557" y="0" on="1"/>
        <pt x="413" y="0" on="1"/>
        <pt x="398" y="77" on="1"/>
        <pt x="337" y="-12" on="0"/>
        <pt x="212" y="-12" on="1"/>
        <pt x="119" y="-12" on="0"/>
        <pt x="34" y="123" on="0"/>
        <pt x="34" y="254" on="1"/>
        <pt x="34" y="399" on="0"/>
        <pt x="126" y="511" on="0"/>
        <pt x="224" y="511" on="1"/>
        <pt x="321" y="511" on="0"/>
        <pt x="379" y="468" on="1"/>
        <pt x="375" y="536" on="0"/>
        <pt x="375" y="574" on="1"/>
      </contour>
      <contour>
        <pt x="375" y="161" on="1"/>
        <pt x="375" y="370" on="1"/>
        <pt x="325" y="386" on="0"/>
        <pt x="292" y="386" on="1"/>
        <pt x="251" y="386" on="0"/>
        <pt x="221" y="337" on="0"/>
        <pt x="221" y="255" on="1"/>
        <pt x="221" y="181" on="0"/>
        <pt x="250" y="135" on="0"/>
        <pt x="288" y="135" on="1"/>
        <pt x="334" y="135" on="0"/>
      </contour>
    </TTGlyph>
    <TTGlyph name="dcroat" xMin="34" yMin="-12" xMax="614" yMax="700">
      <contour>
        <pt x="614" y="553" on="1"/>
        <pt x="557" y="553" on="1"/>
        <pt x="557" y="0" on="1"/>
        <pt x="413" y="0" on="1"/>
        <pt x="398" y="77" on="1"/>
        <pt x="337" y="-12" on="0"/>
        <pt x="212" y="-12" on="1"/>
        <pt x="119" y="-12" on="0"/>
        <pt x="34" y="123" on="0"/>
        <pt x="34" y="254" on="1"/>
        <pt x="34" y="399" on="0"/>
        <pt x="126" y="511" on="0"/>
        <pt x="224" y="511" on="1"/>
        <pt x="321" y="511" on="0"/>
        <pt x="379" y="468" on="1"/>
        <pt x="377" y="495" on="0"/>
        <pt x="375" y="553" on="1"/>
        <pt x="258" y="553" on="1"/>
        <pt x="258" y="630" on="1"/>
        <pt x="375" y="630" on="1"/>
        <pt x="375" y="700" on="1"/>
        <pt x="557" y="700" on="1"/>
        <pt x="557" y="630" on="1"/>
        <pt x="614" y="630" on="1"/>
      </contour>
      <contour>
        <pt x="375" y="161" on="1"/>
        <pt x="375" y="370" on="1"/>
        <pt x="325" y="386" on="0"/>
        <pt x="292" y="386" on="1"/>
        <pt x="251" y="386" on="0"/>
        <pt x="221" y="337" on="0"/>
        <pt x="221" y="255" on="1"/>
        <pt x="221" y="181" on="0"/>
        <pt x="250" y="135" on="0"/>
        <pt x="288" y="135" on="1"/>
        <pt x="334" y="135" on="0"/>
      </contour>
    </TTGlyph>
    <TTGlyph name="degree" xMin="27" yMin="431" xMax="306" yMax="704">
      <contour>
        <pt x="110" y="704" on="0"/>
        <pt x="224" y="704" on="0"/>
        <pt x="306" y="625" on="0"/>
        <pt x="306" y="511" on="0"/>
        <pt x="224" y="431" on="0"/>
        <pt x="110" y="431" on="0"/>
        <pt x="27" y="511" on="0"/>
        <pt x="27" y="625" on="0"/>
      </contour>
      <contour>
        <pt x="167" y="621" on="1"/>
        <pt x="145" y="621" on="0"/>
        <pt x="115" y="591" on="0"/>
        <pt x="115" y="545" on="0"/>
        <pt x="145" y="513" on="0"/>
        <pt x="167" y="513" on="1"/>
        <pt x="188" y="513" on="0"/>
        <pt x="218" y="545" on="0"/>
        <pt x="218" y="591" on="0"/>
        <pt x="188" y="621" on="0"/>
      </contour>
    </TTGlyph>
    <TTGlyph name="dieresis" xMin="57" yMin="581" xMax="374" yMax="714">
      <contour>
        <pt x="93" y="714" on="1"/>
        <pt x="152" y="714" on="1"/>
        <pt x="188" y="714" on="0"/>
        <pt x="188" y="678" on="1"/>
        <pt x="188" y="618" on="1"/>
        <pt x="188" y="581" on="0"/>
        <pt x="152" y="581" on="1"/>
        <pt x="93" y="581" on="1"/>
        <pt x="57" y="581" on="0"/>
        <pt x="57" y="618" on="1"/>
        <pt x="57" y="678" on="1"/>
        <pt x="57" y="714" on="0"/>
      </contour>
      <contour>
        <pt x="279" y="714" on="1"/>
        <pt x="338" y="714" on="1"/>
        <pt x="374" y="714" on="0"/>
        <pt x="374" y="678" on="1"/>
        <pt x="374" y="618" on="1"/>
        <pt x="374" y="581" on="0"/>
        <pt x="338" y="581" on="1"/>
        <pt x="279" y="581" on="1"/>
        <pt x="242" y="581" on="0"/>
        <pt x="242" y="618" on="1"/>
        <pt x="242" y="678" on="1"/>
        <pt x="242" y="714" on="0"/>
      </contour>
    </TTGlyph>
</ttFont>
